<?xml version="1.0" standalone="no"?>
<!DOCTYPE svg PUBLIC "-//W3C//DTD SVG 20010904//EN"
 "http://www.w3.org/TR/2001/REC-SVG-20010904/DTD/svg10.dtd">
<svg version="1.0" xmlns="http://www.w3.org/2000/svg"
 width="715.000000pt" height="400.000000pt" viewBox="0 0 715.000000 400.000000"
 preserveAspectRatio="xMidYMid meet">

<g transform="translate(0.000000,400.000000) scale(0.100000,-0.100000)"
fill="#000000" stroke="none">
<path d="M0 3355 c0 -638 0 -645 20 -645 23 0 27 -15 6 -23 -8 -3 -17 -1 -20
6 -2 7 -4 -56 -4 -139 l0 -150 29 4 c17 3 29 0 29 -7 0 -6 7 -11 17 -11 9 0
13 -3 9 -7 -4 -4 -25 -6 -46 -4 -34 2 -40 0 -40 -18 0 -11 8 -25 17 -30 17
-10 17 -10 0 -11 -16 0 -17 -40 -17 -700 l0 -700 38 28 c55 40 131 102 169
140 36 34 48 37 87 22 23 -8 28 -6 43 23 9 18 16 35 15 40 -1 4 15 5 35 2 21
-3 44 -2 51 3 18 12 6 37 -24 48 -25 9 -25 9 30 52 30 23 59 42 65 42 6 0 11
5 11 10 0 14 35 26 100 33 l55 6 -33 -30 c-42 -38 -36 -48 10 -16 40 26 111
27 101 1 -3 -8 0 -14 6 -14 6 0 11 6 11 14 0 7 10 16 23 19 20 6 21 5 4 -7
-10 -8 -15 -20 -11 -29 3 -10 -2 -18 -15 -22 -12 -3 -21 -10 -21 -15 0 -4 -10
-6 -21 -3 -20 6 -21 3 -15 -23 4 -16 8 -39 8 -52 0 -22 1 -22 19 -6 17 16 19
16 25 0 4 -11 -3 -27 -22 -47 -15 -16 -22 -29 -15 -29 7 0 11 -8 10 -17 -3
-32 13 -83 27 -83 8 0 14 8 14 17 0 23 40 103 51 103 17 0 9 17 -13 27 l-23
11 28 12 c16 8 27 21 28 34 0 15 4 10 13 -14 7 -19 9 -39 4 -44 -14 -17 -9
-41 12 -59 20 -16 19 -44 0 -32 -5 3 -6 -5 -3 -17 13 -55 9 -73 -21 -106 -17
-19 -42 -39 -56 -46 -31 -15 -66 -14 -63 2 2 6 -9 15 -25 18 -15 4 -33 11 -39
17 -9 7 -13 5 -13 -7 0 -26 49 -85 92 -112 21 -13 38 -28 38 -33 0 -4 -18 -20
-40 -35 -23 -15 -50 -38 -61 -51 -18 -19 -25 -22 -48 -14 -41 14 -74 7 -92
-21 -15 -23 -15 -26 -1 -37 9 -7 32 -13 51 -13 24 0 31 -3 23 -9 -8 -4 -19
-19 -26 -32 -7 -13 -19 -22 -27 -21 -8 2 -29 6 -48 9 l-33 6 7 -34 c10 -47 19
-54 77 -55 39 0 52 -5 60 -20 17 -31 40 -44 79 -44 58 0 121 33 277 143 l84
59 -24 25 c-20 23 -21 24 -3 15 19 -10 196 -71 283 -97 28 -9 42 -10 40 -3 -2
6 -24 17 -49 23 -37 11 -90 28 -194 65 -96 35 -148 72 -62 45 88 -28 203 -67
217 -74 8 -5 39 -14 68 -21 28 -8 52 -17 52 -22 0 -4 7 -5 15 -2 26 10 17 -7
-23 -43 -24 -22 -33 -36 -24 -39 29 -13 7 -19 -60 -18 -121 2 -139 4 -133 13
3 5 -4 13 -16 16 -22 7 -62 -8 -89 -34 -13 -12 -11 -14 13 -9 19 4 25 2 19 -4
-6 -6 -34 -11 -64 -12 -29 -1 -59 -5 -66 -10 -9 -5 -15 -1 -19 13 -3 12 -11
21 -18 21 -16 0 -129 -65 -168 -97 -16 -13 -32 -23 -36 -23 -5 0 -46 -22 -92
-48 -110 -64 -119 -68 -153 -78 -16 -5 -34 -18 -40 -29 -16 -30 -28 -36 -58
-31 -17 3 -28 0 -32 -9 -3 -8 -23 -17 -44 -21 -27 -4 -39 -11 -38 -21 0 -9
-28 -33 -68 -57 l-68 -41 38 -3 c26 -2 42 2 50 12 6 9 18 16 27 16 8 0 17 5
19 11 3 9 9 9 24 1 15 -8 24 -8 32 0 16 16 42 2 42 -22 0 -19 6 -20 98 -20 83
1 94 3 80 14 -21 16 -23 26 -5 26 7 0 18 -9 24 -19 11 -18 25 -20 163 -19 107
0 150 3 150 11 0 7 4 6 10 -3 13 -21 24 -5 16 25 -5 21 -11 24 -30 19 -18 -4
-25 -1 -29 16 -4 17 1 24 24 34 33 14 28 29 -7 20 -15 -4 -24 -2 -24 5 0 6
-11 11 -24 11 -13 0 -26 6 -29 13 -2 6 -8 9 -12 5 -4 -4 -3 -14 4 -21 6 -8 9
-22 5 -31 -9 -24 -23 -19 -16 6 5 21 4 21 -19 5 -40 -29 -55 -19 -20 13 28 28
45 70 21 55 -6 -3 -12 0 -15 7 -3 8 -17 15 -32 16 -26 2 -40 9 -32 15 2 2 62
36 132 76 l129 73 81 -7 c192 -15 222 -28 436 -187 58 -43 108 -78 112 -78 25
0 -32 -69 -57 -70 -6 0 -17 -7 -24 -15 -11 -13 -4 -15 56 -15 50 0 92 8 154
30 48 17 95 27 110 24 24 -5 24 -5 -3 11 -33 19 -30 33 3 15 12 -6 24 -9 28
-6 7 8 -29 35 -46 36 -9 0 -11 7 -7 20 10 32 -20 35 -58 6 -19 -14 -39 -26
-45 -26 -7 0 -12 -4 -12 -10 0 -21 -30 -9 -31 13 0 14 -18 37 -49 62 -27 22
-49 47 -49 55 0 11 160 202 238 282 4 4 70 23 147 43 l141 35 172 -60 c166
-58 202 -68 188 -53 -4 3 -2 12 3 18 8 9 -4 17 -45 30 -57 17 -80 35 -48 35
14 0 19 8 21 33 l2 32 -13 -25 c-11 -22 -19 -25 -62 -24 -61 2 -151 28 -178
51 -11 10 -17 12 -13 6 8 -14 -19 -8 -40 9 -6 4 -19 6 -28 2 -9 -3 -24 -3 -33
1 -26 12 -47 11 -55 0 -5 -6 -8 -3 -8 7 0 9 -6 23 -14 30 -7 8 -16 23 -20 34
-7 21 -36 29 -36 10 0 -8 -2 -8 -8 0 -4 6 -19 13 -34 16 -21 4 -28 1 -28 -11
-1 -12 -5 -11 -20 7 -15 18 -36 26 -87 33 -74 10 -142 37 -143 56 0 8 -12 10
-37 6 -24 -4 -34 -3 -30 4 7 11 -31 22 -94 28 -21 2 -48 10 -60 18 -22 14 -55
21 -86 18 -16 -1 -17 -41 -1 -41 6 0 9 -3 5 -6 -3 -3 -15 -3 -26 1 -19 6 -19
8 -7 28 12 18 12 24 1 34 -10 9 -17 7 -34 -8 -17 -16 -21 -17 -21 -5 0 9 9 20
21 27 23 12 17 23 -20 34 -15 5 -21 4 -17 -3 4 -6 -2 -16 -13 -21 -14 -8 -20
-7 -25 4 -3 9 -12 12 -22 8 -14 -5 -16 -3 -11 12 4 9 2 24 -4 32 -10 11 -8 12
15 3 15 -5 25 -6 22 -2 -2 4 4 14 16 21 11 7 18 8 15 4 -10 -17 37 -47 78 -50
45 -4 125 -32 125 -43 0 -5 9 -6 20 -3 11 3 20 0 20 -6 0 -6 3 -10 8 -9 4 1
18 -1 32 -4 14 -3 53 -11 88 -17 l63 -12 95 55 c52 31 100 53 108 50 8 -3 28
2 45 11 30 15 32 15 40 -7 8 -22 9 -21 16 10 6 32 9 33 48 30 22 -2 42 -7 44
-13 3 -12 -51 -45 -74 -45 -9 0 -13 -6 -10 -14 8 -20 -25 -46 -57 -46 -30 0
-126 -47 -126 -62 0 -4 8 -8 18 -8 9 0 44 -14 77 -30 33 -17 68 -30 78 -30 23
0 75 26 103 52 22 20 22 20 48 -3 35 -30 33 -42 -7 -36 -30 4 -33 2 -32 -21 0
-22 7 -27 53 -40 28 -8 52 -18 52 -23 0 -5 7 -5 17 -2 11 5 14 3 8 -6 -5 -10
-2 -12 11 -7 23 7 52 -8 35 -18 -6 -4 -11 -2 -11 4 0 7 -7 9 -16 6 -9 -4 -31
2 -48 12 -37 22 -106 37 -106 24 0 -5 20 -15 45 -22 25 -7 45 -18 45 -24 0
-16 94 -40 126 -32 23 6 25 4 19 -15 -7 -21 7 -39 31 -39 14 0 72 50 59 50 -5
1 5 7 23 15 17 8 32 19 32 25 0 5 5 10 11 10 5 0 9 -8 8 -17 -1 -10 -1 -28 0
-40 1 -22 2 -22 21 -6 13 11 16 21 10 27 -6 6 -10 18 -10 28 0 10 -7 18 -15
18 -8 0 -15 5 -15 10 0 6 -4 10 -10 10 -5 0 -10 -7 -10 -15 0 -22 -72 -68 -82
-52 -6 9 -8 9 -8 0 0 -7 -4 -13 -10 -13 -23 0 -8 31 23 46 44 23 107 75 102
84 -2 4 -25 13 -50 20 -25 7 -45 18 -45 24 0 12 -74 36 -109 36 -11 0 -22 6
-24 13 -4 7 -8 3 -12 -10 -9 -27 -18 -29 -39 -7 -17 16 -22 29 -8 21 4 -3 22
10 41 28 l34 34 48 -19 c46 -17 53 -17 50 3 -2 11 3 10 101 -39 97 -47 215
-98 258 -109 24 -7 24 -7 5 9 -11 8 -24 16 -28 16 -4 0 -74 32 -155 71 -81 39
-158 75 -172 81 -19 7 -21 11 -10 18 10 6 2 11 -26 19 -21 6 -52 20 -69 31
-16 11 -62 27 -100 35 -86 19 -107 30 -85 45 8 5 19 11 25 13 12 4 -19 37 -34
37 -6 0 -11 9 -11 19 0 12 -9 21 -22 24 -13 3 -3 4 21 2 30 -1 55 4 78 18 19
11 36 17 40 14 3 -4 -6 -12 -21 -18 -25 -12 -36 -39 -16 -39 6 0 10 -7 10 -15
0 -9 6 -12 15 -9 8 4 15 15 15 25 0 10 5 19 10 19 7 0 8 -13 4 -35 -4 -23 -2
-35 5 -35 6 0 14 0 19 0 4 -1 10 14 13 32 l6 33 2 -32 c0 -17 8 -39 17 -48 25
-25 74 -47 91 -41 8 3 27 -2 41 -13 42 -28 237 -120 271 -127 17 -4 28 -10 25
-15 -3 -5 4 -9 16 -9 11 0 37 -8 58 -19 20 -10 52 -22 71 -26 20 -4 35 -14 38
-26 6 -22 14 -24 30 -8 17 17 31 3 44 -41 7 -22 15 -40 19 -40 17 0 19 15 4
38 -21 32 -14 36 34 21 l41 -12 95 77 c53 43 99 75 104 72 4 -2 6 13 4 33 l-4
38 59 -1 c54 -1 58 -3 56 -23 -2 -18 2 -23 22 -23 14 0 25 -6 25 -12 0 -9 4
-8 10 2 8 13 10 12 10 -4 0 -15 5 -17 30 -12 23 4 30 2 30 -10 0 -13 3 -14 15
-4 8 6 23 9 35 5 17 -5 19 -10 9 -21 -13 -16 -33 -19 -24 -4 3 5 1 10 -4 10
-6 0 -11 -9 -11 -20 0 -11 -4 -20 -8 -20 -5 0 -22 -11 -38 -26 -34 -29 -77
-55 -56 -33 16 18 15 29 -3 29 -9 0 -15 -9 -15 -22 0 -19 -6 -23 -29 -23 l-30
0 21 22 c13 14 18 28 13 43 -10 31 -31 18 -27 -17 2 -24 -4 -36 -28 -56 -35
-30 -40 -44 -7 -23 35 24 53 5 22 -24 -14 -13 -25 -19 -25 -14 0 5 -7 1 -14
-8 -12 -16 -17 -17 -52 -4 -25 8 -38 19 -36 29 4 24 -26 29 -39 6 -6 -11 -16
-18 -24 -16 -12 5 -96 -50 -140 -92 -41 -39 -201 -164 -222 -174 -17 -7 -34
-6 -68 7 -53 21 -69 12 -77 -42 -4 -30 -3 -32 27 -32 17 0 36 5 41 10 7 7 28
4 67 -11 46 -18 55 -24 46 -35 -6 -8 -65 -54 -129 -104 -147 -111 -154 -118
-140 -135 6 -7 57 -32 113 -55 56 -23 107 -47 114 -52 6 -5 27 -8 45 -6 29 3
17 10 -95 57 -70 29 -129 57 -132 61 -7 11 165 163 239 211 23 15 50 35 62 47
11 11 40 32 65 47 24 15 60 42 79 60 19 17 76 61 125 96 50 35 96 70 104 77 7
7 36 28 65 47 28 19 76 52 106 74 30 23 71 52 90 66 19 14 62 46 95 71 103 78
116 84 172 84 28 0 55 5 58 10 4 6 23 21 43 34 60 39 109 85 91 86 -9 0 -29
-11 -45 -25 -16 -14 -35 -25 -43 -25 -8 0 -11 -3 -8 -6 4 -4 -10 -20 -31 -35
-31 -23 -44 -27 -78 -22 -36 5 -48 0 -102 -36 -61 -42 -61 -42 -93 -26 -17 9
-55 19 -85 22 -30 3 -54 9 -54 13 0 4 -11 10 -25 12 -14 3 -25 1 -25 -3 0 -5
-4 -9 -10 -9 -5 0 -10 6 -10 14 0 20 -109 43 -120 26 -5 -8 -9 -6 -12 7 -4 14
-23 23 -74 35 -38 8 -74 17 -79 19 -6 2 -11 0 -13 -6 -1 -5 8 -11 21 -13 18
-2 26 -12 34 -42 6 -25 7 -40 1 -40 -6 0 -12 9 -15 20 -6 22 -18 26 -28 10 -3
-5 -26 -21 -50 -35 -43 -26 -44 -26 -92 -10 -48 17 -151 38 -273 56 -36 5 -73
12 -82 15 -10 3 -18 1 -18 -4 0 -6 24 -15 53 -22 80 -18 297 -91 297 -99 0 -5
-33 3 -72 16 -40 13 -86 24 -103 25 -16 1 -54 12 -83 25 -29 12 -59 23 -66 23
-7 0 -19 7 -26 15 -18 22 -160 61 -255 70 -15 2 -20 9 -18 30 1 15 -2 35 -7
45 -8 15 -3 16 73 4 45 -6 122 -19 171 -28 48 -10 90 -15 93 -12 4 4 -84 34
-122 42 -5 1 -53 15 -105 32 -52 17 -105 33 -117 37 -12 3 -36 -1 -55 -10
l-33 -16 25 20 c14 12 19 21 11 21 -22 0 -131 54 -131 65 0 5 -4 4 -8 -2 -6
-10 -38 -4 -132 22 -192 53 -314 90 -445 134 -66 23 -129 43 -140 45 -11 1
-50 13 -87 25 -59 20 -68 26 -68 47 0 30 29 44 42 21 11 -21 38 -22 38 -2 0 9
9 15 23 15 20 -1 21 -2 4 -14 -16 -12 -15 -14 10 -24 16 -6 64 -21 108 -33 44
-11 105 -29 136 -40 31 -10 63 -19 72 -19 9 0 21 -8 26 -18 6 -12 35 -25 78
-37 105 -27 164 -46 206 -66 22 -11 43 -17 48 -14 4 3 25 -1 45 -10 20 -8 44
-15 54 -15 9 0 31 -7 48 -16 17 -8 42 -16 54 -16 13 -1 28 -5 33 -8 14 -10 68
-24 83 -21 6 1 12 -2 12 -8 0 -5 19 -12 43 -16 23 -3 56 -13 73 -21 18 -7 80
-22 139 -31 58 -9 99 -20 90 -23 -25 -9 2 -28 45 -33 19 -2 52 -11 73 -20 47
-20 58 -22 80 -12 10 4 45 0 83 -11 64 -17 67 -17 100 1 33 18 34 20 34 80 0
34 -6 68 -12 76 -7 9 -40 23 -73 32 -173 48 -758 213 -880 249 -150 43 -204
57 -220 58 -7 0 -9 -24 -7 -67 4 -62 3 -66 -12 -54 -9 7 -16 21 -16 30 0 13
-2 14 -9 2 -8 -12 -11 -10 -14 10 -19 97 -22 102 -52 111 -77 22 -95 27 -170
47 -44 11 -140 37 -213 56 -74 20 -136 34 -139 31 -3 -3 -1 -26 3 -52 8 -41
13 -49 39 -56 17 -5 45 -6 62 -3 27 5 32 3 27 -10 -4 -10 0 -15 10 -15 9 0 16
-4 16 -10 0 -13 3 -13 -59 6 -30 8 -64 13 -77 10 -17 -5 -24 -2 -24 9 0 8 -9
15 -21 15 -11 0 -18 4 -15 9 3 5 -2 8 -11 7 -9 0 -18 4 -20 11 -3 9 4 10 28 3
18 -5 34 -9 35 -7 1 1 0 24 -3 50 -6 47 -7 48 -49 59 -30 8 -44 18 -44 29 0
10 -3 25 -6 33 -5 13 -2 15 16 8 12 -4 21 -12 20 -17 -2 -10 26 -23 50 -24 13
-1 13 0 0 9 -13 9 -13 10 0 10 19 0 42 -15 40 -26 -1 -4 8 -12 20 -16 18 -7
21 -5 16 8 -4 10 -1 14 6 12 7 -3 13 -11 13 -19 0 -8 12 -15 29 -17 20 -3 26
0 21 8 -6 9 4 10 36 5 72 -12 41 1 -81 34 -185 50 -190 51 -190 60 0 18 54 19
66 3 7 -10 16 -13 20 -9 5 4 3 12 -4 16 -7 4 -10 14 -7 22 6 17 -30 20 -54 5
-10 -6 -12 -6 -7 2 4 7 2 12 -3 12 -6 0 -11 7 -11 15 0 19 17 19 35 2 23 -24
104 -19 183 9 62 23 75 25 82 13 5 -7 15 -14 22 -15 7 0 21 -2 32 -2 28 -3 0
-32 -30 -32 -22 0 -24 -3 -18 -27 4 -16 17 -37 28 -47 19 -17 19 -18 2 -12
-17 6 -18 2 -13 -50 3 -30 8 -58 11 -61 8 -8 27 47 20 58 -3 5 0 9 6 9 6 0 17
-15 25 -33 11 -27 22 -35 72 -49 32 -10 72 -19 88 -21 17 -2 44 -9 60 -16 17
-7 37 -14 45 -17 70 -17 90 -21 94 -16 3 2 12 -1 20 -7 8 -7 19 -10 25 -7 5 3
11 0 14 -8 4 -9 17 -13 34 -11 15 1 31 -2 34 -7 4 -5 25 -11 48 -11 22 -1 41
-5 41 -9 0 -7 69 -28 101 -31 10 -1 20 -10 23 -22 4 -12 9 -16 13 -9 11 16 63
26 76 16 7 -5 42 -15 79 -22 37 -7 65 -16 62 -22 -3 -5 5 -8 18 -7 32 4 108
-12 108 -21 0 -5 9 -6 20 -3 14 4 20 0 20 -10 0 -9 9 -19 20 -22 11 -3 20 -13
20 -21 0 -11 4 -12 18 -3 13 8 32 7 77 -4 33 -8 61 -14 62 -13 1 1 -11 40 -27
86 -21 59 -28 95 -24 118 5 28 3 32 -15 32 -11 0 -21 5 -21 10 0 6 5 10 11 10
6 0 17 6 24 14 12 11 7 16 -28 31 -48 19 -36 31 17 16 20 -5 36 -6 36 -3 0 4
-14 45 -30 92 -16 48 -25 89 -20 94 12 12 1 36 -16 36 -8 0 -14 5 -14 10 0 6
7 10 16 10 11 0 14 5 10 16 -3 9 -6 18 -6 20 0 3 -12 9 -26 14 -37 14 -20 29
26 23 22 -3 40 -4 40 -2 0 2 -14 42 -30 89 -16 47 -25 89 -21 93 13 13 1 47
-18 48 -10 0 -11 2 -3 6 22 9 14 50 -11 57 -20 5 -29 22 -55 103 -18 54 -32
104 -32 112 0 10 12 12 51 8 47 -5 50 -4 47 16 -2 18 -11 23 -43 25 -22 2 -44
8 -50 14 -7 7 4 9 38 4 45 -5 47 -4 47 18 0 22 -5 25 -55 31 -45 6 -55 11 -55
26 0 23 19 24 137 5 49 -8 141 -22 206 -32 65 -9 125 -24 135 -31 9 -8 12 -12
6 -9 -18 9 -22 -33 -13 -156 4 -62 13 -207 19 -323 6 -115 16 -276 21 -358 9
-115 8 -151 -1 -162 -8 -10 -9 -15 -2 -15 14 0 20 -41 25 -177 4 -110 4 -112
-17 -110 -20 2 -21 -2 -18 -63 5 -104 8 -108 48 -69 l33 32 113 -6 c62 -3 106
-2 99 2 -7 5 -13 26 -13 47 0 22 -4 47 -9 56 -6 10 -5 19 1 23 6 4 8 19 6 33
-2 15 -5 37 -5 50 -1 12 -7 22 -16 22 -12 0 -15 12 -13 58 l2 57 3 -52 c3 -33
9 -53 16 -53 8 0 11 17 9 52 -2 29 1 71 7 93 9 38 10 36 6 -20 -3 -44 -2 -52
4 -30 7 26 9 27 10 7 0 -13 5 -21 9 -18 5 3 13 -15 19 -39 9 -39 8 -45 -6 -46
-24 -1 100 -39 129 -39 14 0 59 -9 100 -20 89 -23 83 -22 75 -10 -3 6 2 10 13
10 10 0 21 3 25 6 7 8 -17 34 -32 34 -6 0 -11 5 -11 11 0 6 10 9 23 6 12 -3
59 -14 105 -24 45 -10 82 -21 82 -24 0 -4 10 -5 23 -2 21 4 22 4 3 -11 -11 -9
-26 -16 -33 -16 -7 0 -13 -4 -13 -10 0 -5 11 -10 25 -10 13 0 28 -6 32 -14 4
-7 23 -17 41 -21 l32 -7 0 69 c1 125 -1 367 -3 369 -1 1 -42 5 -92 8 l-90 7
23 -23 c26 -29 27 -36 4 -66 l-18 -24 -165 17 c-90 9 -200 19 -244 21 -44 3
-87 8 -95 11 -8 3 -18 5 -22 5 -5 -1 -8 42 -9 96 -1 53 -4 143 -8 200 -5 83
-4 99 7 85 16 -22 15 -10 -2 31 -7 18 -17 53 -20 77 -4 24 -13 58 -20 74 -27
62 -66 188 -60 196 3 5 21 9 40 9 19 0 55 5 80 11 25 6 48 9 51 5 4 -4 8 -46
10 -94 4 -121 11 -152 34 -152 11 0 19 7 19 17 0 15 2 14 15 -3 8 -10 15 -13
15 -7 0 18 91 13 98 -5 4 -11 6 -11 13 0 7 10 9 9 9 -4 0 -21 36 -25 42 -6 3
9 9 8 22 -5 19 -19 42 -22 51 -7 9 15 25 12 25 -4 0 -8 8 -15 17 -15 10 0 38
-4 63 -10 114 -24 204 -35 208 -23 2 7 7 12 12 12 12 0 19 -39 9 -46 -6 -3 -7
-14 -4 -24 6 -19 14 -267 14 -483 1 -148 0 -146 49 -94 9 9 22 17 29 17 7 0
13 5 13 10 0 6 6 10 14 10 7 0 30 14 51 30 21 17 42 30 47 30 9 0 -24 -26
-118 -95 -15 -11 -38 -30 -50 -42 -12 -12 -25 -19 -28 -16 -5 6 -10 -11 -8
-29 1 -3 2 -76 3 -162 l1 -155 95 3 c82 3 94 1 78 -10 -10 -8 -31 -25 -47 -39
-15 -14 -32 -25 -37 -25 -6 0 -14 -6 -18 -12 -4 -7 -33 -33 -63 -58 -30 -24
-48 -36 -40 -25 10 13 11 16 2 11 -7 -4 -17 -19 -22 -32 -5 -13 -16 -24 -24
-24 -7 0 -16 -7 -20 -15 -3 -8 -12 -15 -21 -15 -8 0 -15 -5 -15 -11 0 -5 -5
-7 -12 -3 -6 4 -8 3 -5 -3 7 -10 -49 -60 -93 -83 -14 -7 -36 -26 -49 -42 -13
-15 -39 -37 -56 -48 -18 -11 -50 -36 -71 -55 -21 -19 -43 -35 -49 -35 -5 0
-16 -9 -23 -21 -7 -12 -16 -18 -19 -15 -4 3 -12 -3 -20 -14 -8 -11 -20 -20
-27 -20 -6 0 -12 -11 -11 -24 0 -18 17 -36 62 -69 33 -25 69 -52 80 -61 10 -8
32 -26 50 -41 18 -14 30 -32 27 -39 -3 -7 -52 -55 -110 -106 -57 -52 -104 -98
-104 -102 0 -23 63 13 123 71 37 36 71 68 75 71 4 3 15 17 25 32 21 34 41 35
130 4 l69 -23 -27 -22 c-15 -11 -32 -21 -36 -21 -5 0 -9 -6 -9 -13 0 -7 -15
-27 -32 -44 -38 -36 -110 -57 -231 -68 -73 -6 -80 -5 -103 16 -13 12 -24 28
-24 35 0 15 -44 44 -67 44 -10 0 -23 10 -28 22 -11 24 -123 99 -140 94 -6 -2
-33 1 -60 6 -88 16 -205 19 -205 5 0 -21 14 -33 50 -44 23 -7 28 -11 15 -12
-11 -1 15 -17 59 -36 43 -19 82 -32 86 -30 5 3 10 0 12 -7 3 -8 21 -12 49 -11
64 2 109 -14 110 -40 2 -41 -3 -62 -23 -89 -25 -36 -4 -36 27 0 17 18 24 37
23 57 -2 30 2 32 36 19 15 -6 17 -4 11 7 -4 8 6 1 22 -16 21 -21 26 -33 19
-40 -6 -6 -17 -20 -24 -33 l-12 -22 788 0 787 0 33 50 c25 38 39 50 57 50 14
0 25 -3 25 -7 0 -4 -19 -27 -42 -50 -26 -26 -36 -43 -27 -43 8 0 32 18 54 40
30 30 49 41 84 46 89 12 123 35 169 110 l42 69 -28 9 c-15 5 -28 10 -30 11 -8
7 30 65 42 65 8 0 29 24 47 52 65 105 295 459 308 474 5 6 44 67 86 135 43 68
92 144 109 169 17 24 33 49 36 55 3 5 46 71 96 145 50 74 152 225 226 335 125
186 159 224 177 197 8 -12 174 -24 166 -12 -4 6 6 15 20 20 29 11 26 31 -3 23
-10 -2 -24 3 -31 11 -8 9 -26 16 -42 16 -16 0 -29 5 -29 10 0 6 20 10 45 10
32 0 45 4 45 14 0 8 -10 17 -22 19 -13 3 8 3 46 1 82 -6 159 4 149 19 -4 6 2
8 15 4 12 -4 31 -10 42 -13 12 -4 20 -2 20 5 0 6 -8 11 -19 11 -21 0 -45 23
-34 33 3 4 -8 7 -24 7 -17 0 -33 4 -35 10 -1 5 -29 11 -61 14 -32 2 -61 7 -64
10 -3 3 13 14 35 24 l42 19 -53 23 c-28 14 -53 25 -55 26 -1 0 54 86 123 189
69 103 124 189 122 191 -2 2 -43 -55 -91 -126 -54 -79 -95 -130 -105 -130 -12
0 -13 2 -3 9 8 4 13 11 13 15 -2 16 1 23 24 50 14 16 25 32 25 36 0 3 8 15 18
26 10 11 31 42 47 69 30 50 38 62 81 109 13 15 31 40 39 55 8 16 22 28 31 27
11 -1 28 21 50 64 30 57 32 66 18 76 -15 12 -24 87 -11 100 4 4 35 8 70 8 l64
1 67 62 66 62 0 131 c0 80 -4 130 -10 130 -6 0 -31 -13 -57 -29 -39 -25 -50
-27 -75 -19 -22 8 -26 13 -16 19 7 5 -3 6 -24 2 -25 -4 -38 -2 -38 6 0 6 6 11
14 11 8 0 22 7 31 16 21 21 105 43 130 33 45 -17 45 -16 45 131 l0 140 -29 0
c-29 0 -41 14 -41 49 0 14 -7 16 -36 13 -26 -3 -35 -1 -29 7 4 7 16 11 28 9
16 -2 22 2 21 15 -1 9 2 17 7 17 15 0 -2 29 -19 33 -10 3 -6 5 9 6 15 0 30 8
33 18 5 13 9 14 15 5 8 -13 41 -6 41 8 0 5 -10 11 -22 13 l-23 4 23 2 c29 1
29 18 0 24 l-23 4 23 2 c18 1 22 7 22 31 0 22 -5 30 -17 30 -15 0 -14 2 3 15
17 13 -8 14 -227 15 -182 0 -248 -3 -257 -12 -9 -9 -15 -10 -20 -2 -4 7 -48
12 -119 12 -100 1 -113 -1 -114 -16 0 -10 -3 -12 -6 -5 -8 20 -41 -7 -36 -28
3 -11 9 -16 14 -13 5 3 9 -4 9 -15 0 -12 9 -43 19 -71 11 -27 15 -50 10 -50
-5 0 -9 7 -9 15 0 20 -42 37 -52 21 -8 -12 -74 -9 -102 6 -16 9 -18 20 -14 84
l3 74 -215 -2 -215 -3 -6 -65 -6 -65 -1 63 c-1 41 -6 62 -14 63 -73 7 -114 6
-126 -3 -10 -9 -16 -8 -24 3 -7 11 -11 11 -15 2 -2 -7 -18 -13 -34 -13 -18 0
-28 -4 -24 -10 4 -6 11 -8 16 -5 5 4 9 -16 9 -44 0 -44 3 -51 19 -51 25 0 29
-8 22 -42 l-6 -27 -47 21 -48 21 -56 -39 -55 -38 -44 15 c-43 16 -44 16 -90
-14 -25 -16 -44 -31 -43 -32 2 -2 44 3 93 11 171 26 266 37 271 31 3 -3 1 -21
-5 -40 -10 -29 -18 -35 -59 -46 -26 -7 -55 -12 -64 -12 -10 0 -18 -4 -18 -10
0 -20 181 8 188 30 7 20 20 12 18 -11 0 -15 -8 -24 -21 -25 -11 -1 -58 -8
-103 -14 -67 -10 -85 -10 -92 1 -10 16 -135 6 -182 -15 -32 -14 -26 -19 20
-15 24 2 29 -9 10 -28 -7 -7 -9 -12 -4 -12 14 0 33 25 28 39 -3 10 1 12 15 9
11 -3 40 -2 64 1 25 4 59 3 78 -1 27 -8 31 -11 20 -24 -10 -12 -13 -12 -24 2
-8 12 -18 14 -36 8 -13 -4 -28 -8 -32 -9 -4 0 -12 -7 -17 -15 -7 -10 -10 -11
-10 -2 0 6 -9 12 -20 12 -13 0 -18 -5 -14 -15 6 -14 -11 -20 -38 -16 -5 0 -8
-5 -8 -12 0 -8 -4 -7 -11 3 -8 11 -12 12 -16 3 -7 -19 -34 -16 -27 2 4 8 12
15 20 15 8 0 14 7 14 15 0 11 -5 12 -24 5 -19 -7 -26 -5 -30 6 -10 26 -7 32
19 38 14 4 25 13 25 21 0 29 -31 26 -43 -5 -3 -9 -6 -4 -6 13 -1 25 -4 27 -42
27 l-41 0 16 -25 c9 -14 14 -30 11 -35 -11 -17 -23 -11 -27 13 -2 12 -9 22
-16 22 -7 0 -17 6 -21 14 -6 9 -10 10 -16 2 -5 -9 -10 -9 -21 0 -11 9 -14 7
-14 -12 -1 -24 -1 -24 -18 4 -9 15 -23 27 -30 27 -7 0 -11 -4 -8 -9 7 -11 -22
-23 -35 -15 -5 3 -9 12 -9 21 0 11 -4 13 -12 6 -17 -13 -108 -15 -108 -3 0 6
-9 10 -20 10 -11 0 -20 -4 -20 -10 0 -15 -30 -12 -30 3 -1 7 -6 5 -14 -6 -13
-17 -51 -14 -40 4 3 5 -1 9 -8 9 -7 0 -23 3 -36 6 -16 5 -22 2 -22 -10 0 -9
-6 -16 -14 -16 -16 0 -66 -39 -51 -40 6 0 17 -5 25 -10 13 -8 12 -11 -5 -24
-11 -9 -28 -16 -37 -16 -10 0 -17 -5 -15 -11 1 -6 -8 -13 -21 -14 -12 -1 -35
-14 -50 -28 -16 -15 -35 -27 -44 -27 -9 0 -20 -4 -23 -10 -3 -5 -11 -10 -16
-10 -6 0 -8 4 -4 9 3 5 -3 12 -12 14 -34 10 -158 21 -203 19 -30 -1 -40 1 -31
7 18 11 7 41 -15 41 -10 0 -14 5 -10 15 7 19 -10 20 -21 1 -4 -8 -19 -16 -33
-18 -17 -2 -25 -9 -24 -21 1 -9 -2 -17 -6 -17 -15 0 -22 42 -22 132 0 82 -2
90 -22 98 l-21 9 23 0 c17 1 22 7 22 26 0 22 4 25 36 25 21 0 33 4 29 10 -3 5
-2 10 4 10 5 0 13 -5 16 -10 4 -7 53 -9 138 -5 292 12 368 15 497 21 74 4 151
7 170 7 87 -1 397 -4 412 -3 13 0 18 11 20 43 l3 42 48 3 c28 2 47 -1 47 -7 0
-13 37 -14 45 -2 3 5 19 9 35 9 17 -1 33 2 37 6 23 23 -43 26 -528 24 l-514
-3 -6 -55 c-7 -63 -12 -57 -9 13 l1 47 -190 0 c-128 0 -191 -4 -191 -11 0 -5
5 -7 10 -4 6 4 10 -10 10 -34 0 -30 -4 -41 -15 -41 -8 0 -15 -4 -15 -10 0 -5
-5 -10 -11 -10 -8 0 -7 6 2 17 11 13 11 17 1 21 -9 3 -10 7 -2 17 8 10 8 15 0
20 -8 5 -8 11 1 21 10 12 3 14 -44 14 -44 0 -56 -3 -60 -17 -4 -17 -5 -17 -6
0 -1 14 -11 17 -62 17 l-61 0 7 -85 c5 -59 3 -85 -4 -85 -7 0 -11 30 -11 85 0
78 -2 85 -20 85 -17 0 -20 -7 -20 -40 0 -30 -4 -40 -16 -40 -11 0 -15 -6 -11
-20 3 -13 0 -20 -9 -20 -8 0 -14 9 -14 20 0 11 -7 20 -15 20 -8 0 -15 5 -15
11 0 6 7 9 15 5 10 -3 15 1 15 13 0 11 -6 22 -12 24 -10 4 -10 6 0 6 6 1 12 6
12 11 0 6 -97 10 -270 10 l-270 0 -1 -27 -1 -28 -10 28 -10 27 -403 0 c-358 0
-404 -2 -409 -16 -10 -27 -7 -46 7 -38 9 5 9 4 0 -6 -17 -19 -35 -1 -31 31 l5
30 -469 -1 c-401 -1 -468 -3 -468 -16 0 -7 -5 -14 -11 -14 -5 0 -8 4 -5 9 3 5
-1 12 -10 15 -9 3 -326 6 -705 6 l-689 0 0 -645z m1980 627 c0 -16 -66 -41
-103 -38 -40 4 -64 16 -31 16 11 0 24 4 30 9 5 5 27 11 49 14 22 2 43 4 48 5
4 1 7 -1 7 -6z m4177 -14 c-3 -8 -6 -5 -6 6 -1 11 2 17 5 13 3 -3 4 -12 1 -19z
m-4443 4 c2 -4 -35 -8 -82 -10 -48 -2 -91 -7 -96 -12 -13 -13 -43 -13 -52 1
-3 6 -1 15 6 19 16 10 218 11 224 2z m373 -12 c-21 -11 -56 -20 -79 -20 l-43
0 25 20 c18 14 41 20 80 20 l55 0 -38 -20z m-714 3 c-7 -2 -21 -2 -30 0 -10 3
-4 5 12 5 17 0 24 -2 18 -5z m400 0 c-7 -2 -21 -2 -30 0 -10 3 -4 5 12 5 17 0
24 -2 18 -5z m-323 -13 c0 -5 -2 -10 -4 -10 -3 0 -8 5 -11 10 -3 6 -1 10 4 10
6 0 11 -4 11 -10z m4537 -27 c-3 -10 -5 -4 -5 12 0 17 2 24 5 18 2 -7 2 -21 0
-30z m-2947 -50 c0 -94 -9 -91 -16 6 -4 48 -2 71 5 71 7 0 11 -28 11 -77z
m1170 46 c0 -10 -7 -19 -15 -19 -9 0 -15 9 -15 25 0 18 4 23 15 19 8 -4 15
-15 15 -25z m2630 15 c0 -2 -7 -4 -15 -4 -8 0 -15 4 -15 10 0 5 7 7 15 4 8 -4
15 -8 15 -10z m-4923 -36 c-3 -8 -6 -5 -6 6 -1 11 2 17 5 13 3 -3 4 -12 1 -19z
m133 7 c0 -8 -8 -15 -18 -15 -10 0 -19 7 -19 15 0 8 9 15 19 15 10 0 18 -7 18
-15z m-800 -4 c0 -5 -10 -11 -22 -13 -16 -2 -24 -11 -26 -28 -3 -24 -3 -25 12
-5 15 20 15 20 16 -2 0 -12 8 -24 18 -26 10 -3 6 -5 -10 -6 -19 -1 -28 -6 -28
-17 0 -10 6 -14 15 -10 9 3 15 0 15 -9 0 -7 8 -16 18 -18 11 -3 8 -5 -8 -6
-15 0 -30 2 -35 7 -6 4 -7 3 -2 -2 4 -6 7 -18 7 -28 0 -10 6 -18 14 -18 23 0
27 -27 4 -33 -12 -4 -17 -10 -13 -17 6 -9 10 -9 16 1 7 11 9 10 9 -3 0 -9 8
-22 18 -27 14 -9 13 -10 -10 -11 -29 0 -35 -14 -18 -40 8 -12 10 -10 10 10 1
25 1 25 10 3 5 -13 15 -23 22 -23 10 0 9 -3 -1 -9 -8 -5 -20 -7 -28 -4 -21 8
-15 -24 7 -40 18 -12 18 -15 5 -20 -8 -4 -15 -14 -15 -23 0 -14 2 -15 17 -3
10 8 14 9 10 2 -4 -6 -3 -14 3 -18 16 -10 12 -25 -5 -19 -24 9 -18 -29 6 -44
12 -7 19 -16 16 -18 -3 -3 -17 2 -31 11 -24 16 -26 16 -20 1 3 -9 10 -13 15
-10 5 3 9 -7 9 -21 0 -14 3 -24 8 -21 4 2 16 -2 27 -10 17 -13 17 -14 1 -14
-9 0 -26 -9 -38 -20 -12 -10 -25 -17 -29 -14 -4 2 -10 0 -14 -6 -8 -13 -25
-13 -25 0 0 6 11 15 24 19 13 5 26 18 30 28 6 14 5 16 -5 6 -21 -21 -29 -15
-23 17 4 18 1 36 -6 45 -9 10 -9 15 -1 15 16 0 14 35 -4 50 -13 11 -13 14 1
27 13 14 13 17 -3 28 -15 11 -15 15 -4 29 12 14 11 19 -5 30 -16 12 -16 16 -4
31 12 14 12 18 0 25 -11 7 -11 14 -3 33 10 20 9 26 -2 31 -10 4 -13 14 -9 36
5 20 3 30 -6 30 -9 0 -11 9 -7 30 4 16 2 32 -3 35 -17 11 -11 45 8 46 13 0 12
2 -5 9 -37 15 -26 27 27 29 28 1 50 -3 50 -8z m2547 -23 c-3 -7 -5 -2 -5 12 0
14 2 19 5 13 2 -7 2 -19 0 -25z m-2395 9 c-6 -7 -8 -23 -5 -36 4 -17 8 -19 14
-9 7 10 9 10 9 -2 0 -9 -5 -21 -12 -28 -9 -9 -7 -16 7 -32 10 -11 15 -23 11
-27 -4 -4 -12 -1 -17 7 -8 11 -9 9 -4 -10 4 -14 14 -30 22 -37 12 -9 12 -15 1
-33 -11 -18 -11 -22 5 -31 15 -9 16 -12 3 -31 -8 -11 -12 -27 -9 -35 5 -12 7
-12 14 -1 7 10 9 9 9 -4 0 -10 -4 -18 -10 -18 -15 0 -12 -16 5 -34 18 -18 19
-33 3 -40 -10 -3 -8 -9 5 -19 19 -15 23 -37 7 -37 -16 0 -12 -28 6 -38 14 -8
14 -12 3 -31 -12 -19 -12 -23 4 -32 18 -10 18 -12 1 -30 -9 -11 -14 -22 -10
-26 4 -4 11 -1 16 7 8 12 10 9 10 -11 0 -30 -27 -47 -44 -28 -8 9 -7 10 7 6
20 -8 23 8 3 16 -8 3 -17 -1 -20 -9 -3 -9 -10 -13 -15 -9 -11 6 -3 36 13 47 6
4 4 9 -7 14 -9 3 -17 13 -17 21 0 8 4 12 9 9 5 -3 11 1 14 9 4 9 1 12 -7 9
-19 -7 -28 23 -13 47 10 17 9 22 -5 30 -20 11 -12 43 8 35 8 -3 14 -3 14 0 0
7 -28 35 -35 34 -3 0 -4 3 -2 8 1 4 7 6 14 6 14 -2 5 27 -14 42 -14 12 -7 48
8 38 5 -3 6 2 3 10 -3 9 -12 16 -20 16 -8 0 -14 7 -14 15 0 8 7 15 15 15 8 0
15 3 15 8 0 11 -16 34 -24 33 -29 -4 -37 2 -13 11 32 11 36 38 7 45 -24 6 -24
12 -5 37 18 24 19 40 3 33 -7 -2 -22 -1 -33 4 -16 6 -17 8 -3 8 10 1 22 10 28
22 9 17 8 23 -7 35 -16 12 -14 13 21 14 30 0 36 -3 28 -13z m148 3 c0 -5 5
-10 11 -10 5 0 8 4 5 9 -3 5 10 9 29 9 19 0 38 -4 41 -9 3 -5 -6 -9 -20 -9
-14 0 -27 -4 -30 -9 -9 -14 30 -51 54 -51 32 0 19 -11 -16 -13 -39 -3 -37 -26
6 -48 l35 -19 -33 0 c-26 0 -32 -4 -32 -21 0 -15 5 -19 15 -15 9 3 15 0 15
-10 0 -8 4 -13 9 -9 5 3 12 1 16 -5 4 -6 -4 -10 -18 -10 -14 0 -27 -7 -31 -15
-3 -10 1 -15 13 -15 22 0 28 -14 25 -57 -1 -25 3 -33 20 -36 14 -3 10 -5 -11
-6 -40 -1 -42 -17 -5 -50 17 -15 20 -22 9 -18 -11 4 -20 1 -24 -9 -8 -21 6
-32 17 -14 8 12 10 10 10 -7 0 -17 6 -23 23 -24 21 0 21 -1 2 -8 -11 -5 -26
-6 -32 -4 -8 3 -13 -3 -13 -16 0 -23 15 -29 23 -8 3 6 6 2 6 -10 1 -12 9 -24
19 -26 9 -3 0 -5 -21 -6 -41 -1 -40 -8 13 -44 l24 -17 -23 0 c-14 0 -25 -7
-28 -20 -3 -11 -10 -17 -15 -14 -6 4 -8 -2 -3 -15 5 -16 3 -20 -9 -15 -17 7
-30 34 -16 34 14 0 12 38 -1 42 -9 3 -9 10 0 26 10 18 9 23 -4 28 -19 8 -19
33 0 41 13 5 13 8 -5 20 -21 15 -28 43 -10 43 16 0 12 22 -7 37 -13 10 -15 16
-5 19 14 7 16 44 2 44 -5 0 -10 12 -10 26 0 14 4 23 9 19 5 -3 13 -1 16 5 4 6
3 10 -2 9 -21 -4 -33 2 -33 16 0 8 4 15 10 15 5 0 9 11 8 24 -1 15 -7 22 -15
19 -7 -3 -13 2 -13 11 0 9 5 16 10 16 15 0 12 19 -6 38 -11 10 -13 17 -5 20
14 5 14 42 0 42 -7 0 -9 11 -6 30 4 16 2 32 -3 35 -13 8 -13 25 0 25 6 0 10
-4 10 -10z m177 -6 c-3 -3 -12 -4 -19 -1 -8 3 -5 6 6 6 11 1 17 -2 13 -5z
m103 -4 c0 -5 -7 -10 -15 -10 -8 0 -15 -4 -15 -9 0 -5 7 -16 15 -25 22 -22 19
-38 -7 -32 -13 3 -17 3 -10 0 6 -3 12 -12 12 -20 0 -8 7 -17 15 -20 17 -7 21
-34 5 -34 -17 0 -11 -28 8 -39 14 -8 15 -12 5 -22 -18 -18 -16 -46 2 -53 20
-7 19 -26 -1 -26 -10 0 -14 -7 -12 -17 2 -10 10 -17 16 -15 7 1 12 -7 12 -18
0 -11 -4 -20 -10 -20 -5 0 -10 -7 -10 -15 0 -8 7 -15 15 -15 22 0 18 -25 -7
-44 -13 -9 -17 -14 -10 -11 6 3 12 1 12 -4 0 -6 7 -11 15 -11 8 0 15 -7 15
-15 0 -8 -4 -15 -10 -15 -5 0 -10 -9 -10 -21 0 -11 5 -17 10 -14 6 3 10 -3 10
-14 0 -12 -4 -21 -9 -21 -9 0 -23 -41 -16 -48 3 -3 11 1 20 8 12 10 15 10 15
-4 0 -9 -4 -16 -10 -16 -16 0 -12 -37 5 -44 8 -3 14 -11 13 -18 -2 -9 23 -15
85 -22 48 -4 87 -12 87 -15 0 -7 -44 -3 -212 16 l-67 8 20 25 c14 17 22 21 26
12 2 -7 13 -17 24 -22 15 -8 17 -7 13 4 -3 8 -12 17 -20 20 -8 3 -14 12 -14
20 0 7 -8 16 -18 18 -10 3 -18 15 -19 29 0 13 1 18 4 12 8 -21 20 -15 25 12 4
21 3 23 -13 14 -22 -11 -21 -12 -24 19 -1 13 3 22 11 22 28 0 13 18 -23 28
-22 6 -29 10 -17 11 27 1 55 23 46 37 -4 6 -20 16 -37 22 -26 9 -27 11 -7 11
13 1 21 5 18 10 -3 5 1 12 10 15 21 8 8 26 -19 26 l-22 1 24 19 c22 19 24 59
1 45 -5 -3 -10 3 -10 14 0 12 5 21 10 21 6 0 10 9 10 21 0 11 -5 17 -10 14 -6
-3 -13 2 -17 11 -4 10 -2 19 5 22 7 2 12 13 12 23 0 11 -4 18 -9 14 -18 -11
-21 14 -4 31 23 22 23 25 -4 35 -15 5 -21 14 -17 24 3 8 10 12 15 9 5 -3 9 4
9 15 0 12 -7 21 -15 21 -8 0 -15 5 -15 10 0 6 20 10 45 10 25 0 45 -4 45 -10z
m5211 0 c40 0 47 -3 42 -16 -4 -11 -13 -13 -33 -9 -14 3 -39 1 -53 -4 -26 -10
-40 2 -14 12 9 4 9 6 0 6 -6 1 -15 -3 -18 -9 -9 -14 -35 -12 -32 3 3 15 28 27
45 21 8 -2 36 -4 63 -4z m-191 -10 c12 -8 12 -10 -5 -10 -11 0 -27 5 -35 10
-12 8 -12 10 5 10 11 0 27 -5 35 -10z m-3042 -22 c-2 -6 -10 -14 -16 -16 -7
-2 -10 2 -6 12 7 18 28 22 22 4z m-1759 -27 c-15 -5 -22 6 -14 19 6 9 10 9 16
-1 5 -8 4 -15 -2 -18z m328 9 c1 -11 -2 -18 -8 -15 -11 7 -12 35 -1 35 4 0 8
-9 9 -20z m1172 5 c48 -3 79 -9 90 -19 10 -9 27 -16 39 -16 24 0 27 -7 13 -29
-7 -11 -10 -11 -17 1 -16 24 -60 38 -93 28 -18 -5 -44 -5 -63 0 -17 5 -42 7
-55 4 -13 -4 -30 -1 -38 6 -13 11 -18 10 -30 -6 -10 -13 -13 -14 -10 -3 4 10
-3 19 -17 26 -22 10 -21 11 10 10 18 0 36 3 40 7 3 4 18 4 32 1 14 -4 58 -9
99 -10z m3220 8 c-1 -5 -1 -17 0 -28 1 -17 3 -18 12 -5 8 11 12 12 16 3 6 -15
33 -17 33 -3 0 6 12 11 28 11 l27 1 -30 8 c-24 6 -20 8 25 7 30 0 45 -2 33 -4
-14 -3 -23 -12 -23 -22 0 -29 -26 -46 -45 -31 -12 10 -19 10 -27 2 -7 -7 -21
-13 -32 -13 -18 -1 -18 -2 -3 -6 22 -6 12 -23 -14 -23 -10 0 -28 -9 -38 -19
-11 -11 -22 -17 -24 -14 -3 2 -13 -7 -22 -21 -22 -33 -42 -33 -42 -1 0 24 27
43 45 31 4 -2 14 -1 22 5 12 7 11 9 -5 10 -11 0 -14 3 -7 6 6 2 12 13 12 24 0
10 5 19 10 19 6 0 10 16 10 35 0 28 4 35 20 35 11 0 19 -3 19 -7z m-4456 -18
c-3 -9 -8 -14 -10 -11 -3 3 -2 9 2 15 9 16 15 13 8 -4z m92 5 c3 -5 1 -10 -4
-10 -6 0 -11 5 -11 10 0 6 2 10 4 10 3 0 8 -4 11 -10z m4585 -35 c18 0 6 -19
-13 -20 -22 -2 -43 31 -24 38 6 2 15 -1 19 -7 4 -6 12 -11 18 -11z m-4932 -24
c4 -28 -13 -20 -21 9 -3 14 -1 20 6 17 7 -2 14 -14 15 -26z m982 0 c0 -11 3
-27 6 -36 6 -14 3 -14 -22 -3 -22 10 -24 14 -10 16 12 3 16 10 13 23 -3 10 -1
19 4 19 5 0 9 -9 9 -19z m330 4 c0 -17 -2 -18 -25 -9 -13 5 -14 8 -3 15 19 13
28 11 28 -6z m-265 -5 c-3 -5 -10 -10 -16 -10 -5 0 -9 5 -9 10 0 6 7 10 16 10
8 0 12 -4 9 -10z m40 0 c3 -5 2 -10 -4 -10 -5 0 -13 5 -16 10 -3 6 -2 10 4 10
5 0 13 -4 16 -10z m590 0 c3 -5 -1 -10 -10 -10 -9 0 -13 5 -10 10 3 6 8 10 10
10 2 0 7 -4 10 -10z m-1275 -10 c0 -5 -4 -10 -10 -10 -5 0 -10 5 -10 10 0 6 5
10 10 10 6 0 10 -4 10 -10z m3557 -10 c-1 -14 -8 -20 -24 -20 -22 0 -22 1 -5
19 22 25 31 26 29 1z m346 14 c4 -4 -3 -20 -14 -36 -16 -22 -18 -32 -9 -43 18
-22 -24 -29 -54 -10 -14 9 -29 14 -34 11 -6 -3 -12 3 -15 13 -7 28 -68 38 -99
17 -28 -20 -38 -20 -38 -1 0 9 -6 12 -15 9 -8 -4 -15 -1 -15 6 0 10 -3 10 -14
1 -8 -7 -17 -8 -19 -4 -12 19 11 32 58 36 90 6 262 7 268 1z m332 -5 c-4 -6
-13 -8 -21 -5 -8 3 -14 1 -14 -4 0 -6 -7 -10 -15 -10 -8 0 -15 -5 -15 -12 0
-6 -3 -8 -7 -5 -11 11 30 46 55 46 14 1 21 -3 17 -10z m-3450 -18 c-3 -6 -11
-11 -16 -11 -5 0 -4 6 3 14 14 16 24 13 13 -3z m76 -14 c18 -14 14 -37 -7 -37
-17 0 -19 17 -1 23 6 3 2 6 -10 6 -12 1 -25 6 -28 11 -9 14 27 12 46 -3z m407
1 c-2 -7 5 -12 15 -10 20 3 24 -23 4 -31 -15 -6 -41 29 -32 43 9 14 15 12 13
-2z m1969 -14 c-3 -3 -12 -4 -19 -1 -8 3 -5 6 6 6 11 1 17 -2 13 -5z m-2410
-24 c-4 -28 -15 -36 -23 -15 -4 10 -1 21 7 26 19 12 19 12 16 -11z m513 0 c11
-21 10 -22 -32 -24 -21 -1 -25 1 -16 11 8 10 14 10 24 2 11 -9 14 -8 14 4 0 8
-6 18 -12 20 -10 4 -10 6 -1 6 7 1 17 -8 23 -19z m860 10 c0 -5 -4 -10 -10
-10 -5 0 -10 5 -10 10 0 6 5 10 10 10 6 0 10 -4 10 -10z m-1566 -15 c-4 -8 -8
-15 -10 -15 -2 0 -4 7 -4 15 0 8 4 15 10 15 5 0 7 -7 4 -15z m3986 5 c0 -5 -5
-10 -11 -10 -5 0 -7 5 -4 10 3 6 8 10 11 10 2 0 4 -4 4 -10z m-3590 -42 c0 7
13 11 33 11 26 -1 27 -3 8 -6 -13 -3 -31 -11 -38 -19 -8 -8 -23 -14 -34 -14
-11 0 -27 -7 -36 -15 -8 -9 -18 -13 -22 -9 -3 4 0 9 7 11 6 3 12 11 12 19 0 8
-6 11 -16 7 -12 -4 -15 -2 -12 8 7 21 70 29 86 10 7 -9 12 -10 12 -3z m-870
-18 c-13 -11 -25 -20 -27 -20 -1 0 -3 9 -3 20 0 15 7 20 27 20 l26 0 -23 -20z
m600 7 c0 -7 -9 -18 -20 -25 -17 -10 -20 -10 -20 3 0 8 7 15 15 15 8 0 15 5
15 10 0 6 2 10 5 10 3 0 5 -6 5 -13z m152 -9 c-7 -7 -12 -8 -12 -2 0 6 3 14 7
17 3 4 9 5 12 2 2 -3 -1 -11 -7 -17z m1675 16 c-3 -3 -12 -4 -19 -1 -8 3 -5 6
6 6 11 1 17 -2 13 -5z m-1747 -8 c0 -2 -7 -7 -16 -10 -8 -3 -12 -2 -9 4 6 10
25 14 25 6z m2233 -36 c-3 -11 -8 -20 -12 -20 -4 0 -7 9 -8 20 -1 11 4 20 12
20 8 0 11 -7 8 -20z m-3776 4 c-3 -3 -12 -4 -19 -1 -8 3 -5 6 6 6 11 1 17 -2
13 -5z m1403 2 c0 -3 -4 -8 -10 -11 -5 -3 -10 -1 -10 4 0 6 5 11 10 11 6 0 10
-2 10 -4z m214 -40 c-3 -8 -11 -13 -19 -10 -7 3 -15 -2 -18 -10 -4 -9 -2 -16
3 -16 6 0 10 3 10 8 0 4 15 6 32 6 18 -1 41 3 50 8 13 6 16 5 12 -6 -3 -8 -27
-16 -55 -20 -30 -4 -52 -13 -56 -21 -8 -22 -26 -18 -20 4 4 17 0 19 -30 18
-34 -2 -34 -2 -12 -19 12 -10 18 -19 15 -19 -3 -1 -9 -2 -13 -3 -5 -1 -14 -5
-22 -10 -11 -7 -13 -4 -8 14 4 16 1 23 -14 27 -26 7 -24 23 3 23 12 0 30 8 40
17 18 16 18 16 12 0 -4 -12 -1 -17 12 -17 9 0 14 3 11 7 -4 4 6 12 23 19 17 8
30 21 30 31 1 16 1 17 10 1 6 -9 7 -23 4 -32z m150 28 c3 -8 2 -12 -4 -9 -6 3
-10 10 -10 16 0 14 7 11 14 -7z m1676 2 c0 -3 -4 -8 -10 -11 -5 -3 -10 -1 -10
4 0 6 5 11 10 11 6 0 10 -2 10 -4z m-1598 -18 c-9 -9 -15 -9 -24 0 -9 9 -7 12
12 12 19 0 21 -3 12 -12z m498 -13 c0 -9 -6 -12 -15 -9 -8 4 -15 10 -15 15 0
5 7 9 15 9 8 0 15 -7 15 -15z m-940 1 c0 -11 -19 -15 -25 -6 -3 5 1 10 9 10 9
0 16 -2 16 -4z m30 -6 c0 -5 -2 -10 -4 -10 -3 0 -8 5 -11 10 -3 6 -1 10 4 10
6 0 11 -4 11 -10z m2266 -13 c4 -4 -2 -7 -14 -7 -12 0 -22 4 -22 9 0 10 26 9
36 -2z m84 2 c0 -5 -12 -9 -26 -9 -14 0 -23 4 -20 8 7 11 46 12 46 1z m401
-14 c25 -13 29 -19 18 -26 -16 -10 -8 -12 15 -3 13 5 14 9 5 20 -14 17 2 19
18 3 8 -8 27 -7 72 4 65 17 136 8 128 -16 -6 -15 11 -47 24 -47 6 0 7 5 4 10
-3 6 3 10 14 10 11 0 23 5 26 10 4 6 14 10 23 9 10 -1 42 5 72 14 44 14 61 15
90 6 19 -6 39 -15 44 -19 5 -5 16 -6 25 -3 13 4 13 2 -2 -7 -9 -6 -22 -8 -29
-4 -7 4 -8 3 -4 -5 4 -7 17 -9 29 -6 20 5 20 5 4 -6 -11 -6 -33 -9 -50 -6 -18
3 -26 3 -19 0 6 -2 12 -10 12 -16 0 -5 -3 -7 -6 -4 -4 3 -16 0 -28 -8 -11 -8
-33 -15 -48 -15 -16 0 -28 -4 -28 -9 0 -5 -8 -7 -18 -4 -10 2 -24 -3 -31 -11
-10 -12 -26 -14 -75 -10 -85 8 -118 21 -106 44 8 15 0 20 -63 38 -74 22 -87
22 -69 -1 7 -8 9 -18 5 -23 -4 -5 -1 -3 7 4 24 21 78 13 64 -9 -3 -5 -14 -4
-25 2 -12 6 -24 8 -27 4 -3 -3 4 -8 16 -12 45 -11 15 -28 -57 -31 -49 -2 -71
1 -66 8 3 6 -3 10 -15 10 -12 0 -31 5 -42 11 -16 9 -23 8 -29 -2 -7 -11 -10
-9 -15 8 -5 19 -10 21 -25 12 -10 -5 -19 -7 -19 -5 0 3 -12 1 -27 -5 -18 -7
-28 -6 -33 1 -3 5 -25 12 -48 14 -24 2 -54 11 -67 20 -30 20 -36 20 -29 2 7
-18 -15 -31 -29 -17 -6 6 -23 11 -38 11 -46 0 -42 17 7 30 36 10 54 11 78 2
26 -10 47 -7 136 18 115 32 175 33 231 5z m-2771 -30 c-11 -18 -16 -36 -12
-40 4 -5 2 -5 -5 -1 -6 3 -14 2 -18 -4 -3 -6 2 -13 11 -17 10 -4 19 -2 22 5 2
7 11 12 20 12 13 0 11 -4 -6 -16 -14 -10 -33 -14 -47 -10 -23 6 -23 7 -9 36 9
16 13 38 10 48 -5 15 -1 19 24 19 l30 0 -20 -32z m344 26 c3 -5 0 -11 -7 -14
-8 -3 -14 1 -14 9 0 16 13 19 21 5z m1719 2 c-7 -2 -21 -2 -30 0 -10 3 -4 5
12 5 17 0 24 -2 18 -5z m-2368 -13 c-3 -5 -16 -10 -28 -9 -20 1 -20 2 3 9 14
4 26 8 28 9 2 1 0 -3 -3 -9z m1441 -13 c7 -7 15 -22 18 -33 6 -19 2 -22 -42
-28 -77 -10 -163 -35 -214 -61 -58 -31 -106 -32 -160 -4 -53 27 -149 22 -203
-10 -43 -25 -46 -26 -38 -5 3 8 35 29 72 45 36 17 74 34 83 40 10 5 25 9 35 9
15 0 14 2 -3 14 -29 21 -10 30 38 18 28 -7 57 -8 88 -1 90 19 246 37 280 32
19 -2 40 -10 46 -16z m2539 -28 c44 -23 83 -47 87 -53 4 -6 8 -7 8 -2 0 6 7 1
16 -10 8 -10 13 -14 10 -8 -6 11 23 24 54 24 17 0 9 -5 -101 -62 -39 -21 -75
-35 -80 -32 -5 3 -9 1 -9 -4 0 -5 -14 -15 -30 -22 -28 -11 -33 -11 -51 9 -26
28 -32 27 -25 -6 3 -16 3 -23 0 -16 -4 8 -13 9 -36 1 -18 -6 -55 -8 -91 -4
-66 7 -122 12 -279 22 -88 5 -98 8 -98 25 0 16 -6 19 -35 16 -19 -1 -35 -5
-35 -8 0 -3 -28 -4 -62 -2 -124 7 -188 15 -188 23 0 5 7 7 15 4 8 -4 15 -1 15
6 0 8 32 10 123 6 130 -6 178 -13 188 -28 3 -5 73 -11 155 -14 82 -2 158 -7
169 -11 11 -4 35 -5 53 -4 17 1 32 -2 32 -8 0 -6 7 -8 15 -5 25 10 17 22 -25
44 -28 14 -38 25 -33 36 3 8 12 13 20 10 8 -3 12 -2 9 2 -3 5 -23 14 -44 21
-30 10 -44 11 -61 2 -11 -7 -21 -8 -21 -3 0 5 26 17 58 27 31 11 62 23 68 27
8 6 104 35 124 37 3 1 42 -18 85 -40z m-3275 17 c-7 -7 -14 -6 -21 1 -9 9 -7
12 9 10 14 -1 18 -5 12 -11z m1760 4 c0 -5 -4 -10 -10 -10 -5 0 -10 5 -10 10
0 6 5 10 10 10 6 0 10 -4 10 -10z m1240 -15 c0 -12 -19 -12 -23 0 -4 9 -1 12
9 8 7 -3 14 -7 14 -8z m-3120 -9 c0 -2 -8 -10 -17 -17 -16 -13 -17 -12 -4 4
13 16 21 21 21 13z m-780 -16 c0 -5 -5 -10 -11 -10 -5 0 -7 5 -4 10 3 6 8 10
11 10 2 0 4 -4 4 -10z m3427 -26 c-3 -3 -12 -4 -19 -1 -8 3 -5 6 6 6 11 1 17
-2 13 -5z m-2837 -14 c0 -5 -4 -10 -10 -10 -5 0 -10 5 -10 10 0 6 5 10 10 10
6 0 10 -4 10 -10z m3330 -5 c7 -9 10 -18 7 -22 -9 -9 -68 18 -61 28 8 14 40
10 54 -6z m-3460 -5 c0 -5 -8 -10 -18 -10 -10 0 -22 -3 -25 -6 -3 -4 -50 -7
-104 -8 -109 -3 -107 1 10 19 105 16 137 17 137 5z m2205 -20 c3 -5 1 -10 -4
-10 -6 0 -11 5 -11 10 0 6 2 10 4 10 3 0 8 -4 11 -10z m-2163 -9 c-7 -4 -12
-14 -10 -22 2 -10 -7 -14 -30 -14 -22 0 -34 -5 -38 -17 -3 -10 -10 -18 -15
-18 -5 0 -2 12 7 26 13 20 23 24 43 20 14 -3 20 -3 14 0 -18 8 -16 22 5 27 29
8 38 7 24 -2z m-2337 -29 c-3 -3 -11 0 -18 7 -9 10 -8 11 6 5 10 -3 15 -9 12
-12z m3650 8 c3 -5 1 -10 -4 -10 -6 0 -11 5 -11 10 0 6 2 10 4 10 3 0 8 -4 11
-10z m-1150 -30 c3 -5 1 -10 -4 -10 -6 0 -11 5 -11 10 0 6 2 10 4 10 3 0 8 -4
11 -10z m1185 1 c0 -6 -5 -13 -11 -17 -8 -5 -7 -9 1 -14 22 -14 3 -40 -29 -40
-41 0 -45 13 -15 49 25 30 54 41 54 22z m-3310 -11 c0 -5 -8 -10 -17 -10 -15
0 -16 2 -3 10 19 12 20 12 20 0z m1220 -9 c16 -30 12 -44 -10 -38 -11 3 -18 1
-14 -4 7 -12 -29 2 -38 15 -4 6 -8 19 -8 29 0 25 56 23 70 -2z m405 10 c-14
-12 -123 -25 -110 -12 11 10 43 18 90 20 17 0 25 -3 20 -8z m-1675 -16 c-7 -8
-17 -12 -23 -8 -6 4 -3 9 9 14 27 11 28 11 14 -6z m1366 -8 c6 -7 14 -25 18
-40 l7 -28 -30 16 c-17 8 -36 15 -44 15 -15 0 -29 44 -18 55 8 8 54 -4 67 -18z
m3424 19 c0 -11 -19 -15 -25 -6 -3 5 1 10 9 10 9 0 16 -2 16 -4z m1038 -18 c9
-8 3 -18 -28 -40 -33 -24 -46 -28 -72 -22 -31 6 -32 7 -10 15 12 5 22 15 22
24 0 14 -3 14 -27 0 -16 -8 -38 -22 -50 -31 -13 -9 -23 -12 -23 -6 0 6 9 13
19 17 10 3 21 14 24 25 9 35 108 47 145 18z m-5918 8 c0 -2 -7 -6 -15 -10 -8
-3 -15 -1 -15 4 0 6 7 10 15 10 8 0 15 -2 15 -4z m45 -6 c8 -13 -5 -13 -25 0
-13 8 -13 10 2 10 9 0 20 -4 23 -10z m1235 -24 c0 -18 3 -48 6 -65 6 -30 5
-31 -27 -30 -30 2 -31 3 -7 6 15 2 25 9 23 16 -10 29 -13 107 -4 107 5 0 9
-15 9 -34z m232 7 c-5 -25 -6 -25 -18 -8 -19 25 -17 35 5 35 14 0 17 -6 13
-27z m384 12 c11 -28 -15 -45 -65 -43 l-46 1 43 4 c37 4 42 7 42 29 0 27 17
33 26 9z m1722 -13 c-2 -10 5 -23 17 -30 18 -11 16 -12 -20 -8 -22 3 -41 5
-42 6 -2 0 6 9 17 20 12 12 18 26 14 32 -4 7 -3 8 5 4 7 -4 11 -15 9 -24z
m382 -19 c0 -21 -28 -15 -41 8 -9 17 -8 23 2 30 15 9 39 -14 39 -38z m-4060
17 c-24 -15 -37 -11 -16 5 11 8 22 12 25 9 3 -3 -1 -9 -9 -14z m1758 0 c8 -4
-9 -5 -38 -4 -30 2 -48 0 -45 -6 3 -5 -1 -7 -9 -4 -8 3 -12 12 -10 19 5 13 74
10 102 -5z m85 6 c3 -8 0 -17 -8 -19 -17 -7 -25 1 -18 19 7 18 19 18 26 0z
m2247 -2 c0 -8 -5 -12 -10 -9 -6 4 -8 11 -5 16 9 14 15 11 15 -7z m1087 -26
c-3 -7 -5 -2 -5 12 0 14 2 19 5 13 2 -7 2 -19 0 -25z m-1842 8 c52 -11 60 -16
63 -37 3 -21 2 -22 -10 -8 -7 10 -43 22 -81 29 -46 8 -64 16 -55 21 16 10 9
11 83 -5z m2008 -20 c-3 -16 -10 -23 -19 -19 -17 6 -17 9 -3 34 13 26 28 16
22 -15z m-2714 -33 l-1 -58 -9 49 c-7 45 -5 66 7 66 2 0 3 -26 3 -57z m1350
26 c-24 -15 -30 -10 -11 9 9 10 19 14 21 9 2 -5 -3 -13 -10 -18z m163 -21 c-6
-6 -7 0 -4 19 5 21 7 23 10 9 2 -10 0 -22 -6 -28z m1368 17 c0 -16 -6 -25 -15
-25 -15 0 -21 31 -8 43 13 14 23 6 23 -18z m-5490 5 c0 -5 -5 -10 -11 -10 -5
0 -7 5 -4 10 3 6 8 10 11 10 2 0 4 -4 4 -10z m660 -32 c0 -16 -2 -16 -21 3
-17 17 -19 23 -8 30 15 9 29 -6 29 -33z m1870 32 c0 -5 -5 -10 -11 -10 -5 0
-7 5 -4 10 3 6 8 10 11 10 2 0 4 -4 4 -10z m1795 0 c3 -5 1 -10 -4 -10 -6 0
-11 5 -11 10 0 6 2 10 4 10 3 0 8 -4 11 -10z m-2435 -9 c0 -10 -30 -24 -37
-17 -3 3 -2 9 2 15 8 13 35 15 35 2z m-2575 -11 c-3 -5 -11 -10 -16 -10 -6 0
-7 5 -4 10 3 6 11 10 16 10 6 0 7 -4 4 -10z m660 -4 c14 -13 10 -26 -7 -26 -5
0 -6 5 -3 10 3 6 1 10 -4 10 -6 0 -11 5 -11 10 0 14 9 12 25 -4z m1577 -34
c-4 -28 -5 -29 -50 -25 -69 7 -74 11 -14 12 36 1 52 5 51 14 -3 24 1 38 9 33
5 -3 7 -18 4 -34z m2818 22 c0 -8 -4 -12 -10 -9 -5 3 -10 10 -10 16 0 5 5 9
10 9 6 0 10 -7 10 -16z m1063 9 c-7 -2 -19 -2 -25 0 -7 3 -2 5 12 5 14 0 19
-2 13 -5z m472 -3 c7 -11 -15 -134 -26 -145 -6 -6 -13 -5 -20 5 -9 13 -10 13
-7 0 4 -18 -1 -20 -56 -20 -50 0 -49 -2 -62 113 l-6 58 86 -2 c48 -1 88 -5 91
-9z m-2710 -10 c90 -8 146 -14 195 -19 3 -1 6 -23 7 -49 l1 -48 -51 4 c-123 9
-162 17 -162 32 0 18 -17 40 -27 34 -4 -2 -9 0 -13 6 -9 14 -38 13 -53 -2 -7
-7 -23 -14 -35 -14 -12 -1 -41 -5 -63 -9 -56 -10 -62 6 -19 44 41 35 50 36
220 21z m1783 3 c-10 -2 -28 -2 -40 0 -13 2 -5 4 17 4 22 1 32 -1 23 -4z m579
1 c-3 -3 -12 -4 -19 -1 -8 3 -5 6 6 6 11 1 17 -2 13 -5z m-5188 -43 c-31 -25
-35 -20 -13 14 11 17 20 23 27 16 7 -7 2 -17 -14 -30z m201 29 c0 -5 -7 -10
-16 -10 -8 0 -12 5 -9 10 3 6 10 10 16 10 5 0 9 -4 9 -10z m4270 6 c0 -11 -19
-15 -25 -6 -3 5 1 10 9 10 9 0 16 -2 16 -4z m217 -2 c-3 -3 -12 -4 -19 -1 -8
3 -5 6 6 6 11 1 17 -2 13 -5z m-5607 -17 c0 -5 6 -7 14 -4 7 3 31 1 52 -4 22
-6 45 -11 52 -11 6 -1 12 -5 12 -10 0 -4 7 -8 16 -8 8 0 12 4 9 10 -3 6 1 7
10 4 8 -4 30 -7 48 -8 18 -2 31 -7 30 -14 -2 -7 2 -12 7 -12 6 0 10 5 10 10 0
6 10 8 23 5 24 -6 68 -12 105 -14 38 -2 25 -21 -33 -47 -58 -27 -75 -26 -220
2 -11 3 -38 7 -60 9 -100 13 -169 27 -188 36 -18 10 -17 12 12 30 17 10 31 23
31 29 0 6 16 10 35 8 19 -1 35 -6 35 -11z m1299 8 c-7 -6 -395 -199 -449 -223
-25 -11 -54 -27 -65 -36 -20 -15 -19 -15 6 -16 14 0 46 11 70 25 24 14 78 41
119 60 41 19 84 40 95 47 11 6 70 37 132 68 83 43 120 57 145 54 18 -2 107
-10 198 -18 91 -9 188 -18 215 -21 190 -22 419 -39 400 -31 -5 3 -131 17 -280
31 -148 14 -274 28 -280 30 -24 9 55 3 313 -21 236 -22 282 -24 317 -13 l40
13 -35 7 c-32 6 -30 6 18 8 29 0 62 6 74 12 11 6 22 8 25 6 3 -3 -18 -16 -46
-28 -29 -12 -50 -23 -48 -25 11 -12 131 -11 182 1 58 13 95 13 41 -1 -14 -3
-26 -10 -26 -14 0 -5 12 -5 28 0 79 24 82 38 10 43 -51 3 -51 3 12 5 36 1 71
-2 79 -7 17 -11 19 -10 -161 -90 l-137 -60 -86 11 c-47 7 -85 15 -85 20 0 4 5
8 11 8 5 0 8 4 5 8 -3 5 9 9 27 10 20 0 37 8 45 20 11 17 22 18 90 14 42 -2
84 -8 92 -12 9 -4 21 0 31 10 14 15 12 16 -35 12 -28 -2 -75 0 -105 6 -40 7
-60 7 -80 -4 -95 -48 -155 -74 -167 -74 -10 0 -11 -6 -4 -24 5 -14 12 -77 16
-141 6 -94 9 -113 20 -104 9 7 12 26 9 52 -2 23 -7 68 -10 101 l-5 58 72 -6
c40 -3 82 -8 93 -10 11 -3 32 -5 48 -5 27 -1 27 -2 27 -65 0 -35 3 -83 6 -108
l6 -44 52 1 c46 0 62 7 127 50 41 27 79 54 85 60 7 5 38 30 69 55 49 38 54 46
36 48 -27 4 -27 19 0 27 12 4 37 18 56 31 32 21 43 23 103 18 40 -4 70 -3 73
3 4 6 -27 12 -78 16 -84 6 -85 6 -137 -29 -67 -44 -82 -41 -86 14 l-3 43 108
-6 c160 -8 327 -27 338 -37 6 -5 10 -42 11 -83 l0 -74 -43 -16 c-46 -18 -63
-14 -59 13 2 12 15 19 47 23 l44 5 -42 8 c-45 9 -47 12 -55 97 -3 25 -12 20
-193 -108 -104 -74 -197 -139 -205 -143 -8 -5 -12 -12 -8 -16 13 -12 79 -8
143 10 11 3 53 14 93 25 40 11 76 22 80 25 6 4 90 -23 157 -49 14 -5 17 -5 10
2 -5 6 -39 21 -75 33 -36 12 -72 26 -80 31 -30 17 10 8 82 -17 40 -15 92 -29
116 -31 67 -8 48 -30 -31 -38 -18 -1 -80 -21 -139 -43 -87 -33 -113 -39 -135
-31 -101 33 -226 69 -242 69 -10 0 -30 -9 -45 -21 -17 -13 -35 -19 -49 -16
-12 3 -112 18 -222 32 -110 14 -211 28 -225 30 -80 13 -577 82 -950 131 -183
24 -327 48 -305 52 11 1 31 12 45 22 23 18 24 20 5 21 -11 1 -24 3 -30 4 -5 2
-16 3 -23 4 -11 1 -25 26 -32 56 -1 6 -6 18 -11 28 -8 14 -5 17 19 17 16 0 31
-3 35 -6 3 -3 27 -7 54 -9 58 -4 122 -13 146 -21 10 -3 28 1 40 9 12 7 34 17
50 21 21 5 27 13 28 34 1 17 3 20 6 10 2 -10 8 -18 11 -17 4 0 50 22 102 48
82 42 135 62 119 46z m3541 -16 c0 -12 -4 -17 -11 -13 -8 4 -9 -1 -4 -17 6
-19 5 -21 -5 -12 -8 7 -10 22 -6 37 8 31 26 35 26 5z m45 12 c3 -5 1 -12 -5
-16 -5 -3 -10 1 -10 9 0 18 6 21 15 7z m-5138 -7 c-3 -3 -12 -4 -19 -1 -8 3
-5 6 6 6 11 1 17 -2 13 -5z m1279 -1 c-10 -11 -37 -12 -30 -2 3 5 12 9 21 9 9
0 13 -3 9 -7z m917 0 c-7 -2 -21 -2 -30 0 -10 3 -4 5 12 5 17 0 24 -2 18 -5z
m617 3 c0 -2 -9 -6 -20 -9 -11 -3 -18 -1 -14 4 5 9 34 13 34 5z m2210 -15 c0
-11 -4 -23 -10 -26 -5 -3 -10 -2 -10 4 0 5 -3 16 -6 25 -4 11 -1 16 10 16 9 0
16 -8 16 -19z m-2612 -8 c-10 -2 -26 -2 -35 0 -10 3 -2 5 17 5 19 0 27 -2 18
-5z m270 0 c-10 -2 -28 -2 -40 0 -13 2 -5 4 17 4 22 1 32 -1 23 -4z m-2804
-18 c-4 -8 -8 -15 -10 -15 -2 0 -4 7 -4 15 0 8 4 15 10 15 5 0 7 -7 4 -15z
m4486 5 c0 -13 -41 -50 -57 -50 -18 0 -16 16 4 40 18 21 53 28 53 10z m770
-14 c0 -14 -4 -28 -10 -31 -6 -4 -10 7 -10 24 0 17 5 31 10 31 6 0 10 -11 10
-24z m559 -32 c44 -21 78 -41 75 -45 -2 -4 -115 -73 -252 -154 -136 -81 -259
-156 -274 -166 -28 -19 -69 -25 -82 -11 -4 4 -26 12 -49 17 -32 8 -43 16 -45
33 -2 12 -11 26 -21 31 -15 8 -16 5 -13 -26 l5 -36 -39 7 c-68 13 -258 37
-284 37 -22 0 -23 1 -7 10 9 6 27 13 40 16 62 14 125 24 155 24 39 0 43 16 5
22 -16 3 -8 4 17 2 47 -3 85 -14 158 -46 24 -11 42 -14 42 -8 0 5 6 7 13 4 6
-4 3 1 -7 9 -11 9 -26 16 -33 16 -7 0 -13 5 -13 11 0 5 -4 8 -8 5 -5 -3 -26 2
-48 10 l-39 15 57 -6 c31 -3 59 -1 62 4 3 5 16 7 29 4 22 -5 22 -5 2 11 l-20
16 20 -7 c18 -6 18 -5 6 10 -16 21 -35 22 -50 3 -19 -23 -61 -26 -74 -5 -8 12
-15 15 -23 8 -8 -6 -14 -7 -18 0 -4 6 -18 6 -38 0 -50 -14 -46 -1 8 22 27 11
83 37 124 56 140 66 259 110 340 124 27 5 29 7 10 8 -20 1 -22 3 -10 12 9 6
53 8 107 6 82 -4 101 -8 172 -43z m-2277 1 c2 -19 0 -35 -4 -35 -4 0 -8 16 -8
35 0 19 2 35 4 35 2 0 6 -16 8 -35z m-2622 5 c47 -7 88 -17 93 -23 7 -11 4
-104 -4 -111 -8 -7 -84 -17 -77 -10 4 4 3 13 -3 21 -9 10 -8 13 3 13 8 0 18
-4 24 -10 5 -5 15 -6 24 0 18 11 11 14 -90 30 -81 13 -140 30 -140 41 0 4 14
12 31 18 25 8 30 15 26 31 -4 16 -1 20 11 16 9 -3 55 -10 102 -16z m2209 4 c8
-8 -105 -2 -129 6 -15 5 6 6 50 3 41 -3 77 -7 79 -9z m1901 -4 c6 9 9 9 15 0
4 -6 13 -9 21 -6 8 3 14 1 14 -4 0 -6 -9 -10 -19 -10 -24 0 -36 -16 -19 -23 7
-3 -8 -5 -34 -4 -51 2 -57 10 -32 45 14 20 17 21 31 6 12 -11 18 -12 23 -4z
m-5045 0 c-3 -6 4 -10 16 -10 12 0 20 -3 16 -6 -3 -4 -18 -3 -34 0 -21 6 -24
9 -12 17 18 11 22 11 14 -1z m3897 -15 c-3 -16 0 -25 9 -25 10 0 10 -3 1 -12
-15 -15 -22 -7 -27 31 -3 21 0 31 9 31 9 0 12 -9 8 -25z m-3825 9 c-3 -3 -12
-4 -19 -1 -8 3 -5 6 6 6 11 1 17 -2 13 -5z m1053 2 c0 -3 -4 -8 -10 -11 -5 -3
-10 -1 -10 4 0 6 5 11 10 11 6 0 10 -2 10 -4z m2285 -17 c57 -6 51 -7 -35 -3
-58 3 -132 9 -165 14 -49 7 -42 8 35 3 52 -3 127 -9 165 -14z m2015 11 c-8 -5
-22 -9 -30 -9 -10 0 -8 3 5 9 27 12 43 12 25 0z m-4237 -7 c-7 -2 -21 -2 -30
0 -10 3 -4 5 12 5 17 0 24 -2 18 -5z m4777 3 c0 -2 -7 -7 -16 -10 -8 -3 -12
-2 -9 4 6 10 25 14 25 6z m220 -23 c-3 -48 0 -78 8 -68 4 6 23 11 42 12 19 0
30 -1 23 -4 -25 -9 -2 -32 28 -26 45 9 99 -5 99 -25 0 -10 -5 -23 -11 -29 -12
-12 10 -17 146 -28 79 -7 72 -4 77 -29 2 -14 -6 -22 -29 -30 -17 -6 -44 -26
-60 -45 l-30 -33 -56 12 c-31 6 -57 15 -57 20 0 4 -9 10 -21 13 -12 3 -18 10
-15 16 4 5 -3 13 -15 16 -19 6 -19 8 -4 25 11 12 13 20 5 25 -19 12 -43 -4
-37 -24 3 -12 -1 -22 -10 -25 -22 -9 -35 -7 -29 3 4 5 0 11 -6 14 -10 4 -11 7
0 18 14 16 16 33 2 24 -5 -3 -10 -2 -10 4 0 5 5 13 10 16 6 3 10 15 10 26 0
15 -7 19 -36 19 -34 0 -36 -2 -32 -28 5 -32 -17 -58 -47 -58 -18 1 -20 7 -17
61 l3 60 -46 -3 c-40 -4 -47 -1 -52 17 -6 24 -20 27 -42 7 -9 -7 -84 -57 -168
-110 -107 -68 -161 -96 -183 -96 -17 0 -43 -8 -58 -18 -15 -11 -44 -30 -64
-43 -21 -13 -38 -27 -38 -31 0 -5 19 -8 43 -9 23 0 53 -2 67 -3 14 -2 40 6 59
16 18 10 35 17 38 14 2 -2 -4 -33 -15 -68 -10 -34 -25 -91 -33 -125 -10 -47
-17 -62 -29 -60 -12 1 -15 -9 -17 -48 -1 -27 -3 -57 -3 -65 -1 -8 2 -26 6 -40
7 -23 6 -24 -10 -11 -14 12 -17 29 -15 104 3 99 -6 117 -62 117 -16 0 -32 7
-38 17 -8 16 -12 16 -50 -2 -23 -10 -41 -21 -41 -25 0 -3 -12 -5 -27 -3 -33 5
-160 -74 -145 -89 5 -5 40 -10 79 -11 60 -2 77 2 124 27 30 16 61 34 69 41 23
19 58 24 73 11 12 -9 13 -28 6 -105 -5 -52 -11 -97 -13 -99 -3 -2 -9 14 -15
37 -6 23 -16 60 -22 84 l-12 42 -13 -31 c-7 -16 -24 -35 -38 -42 -16 -7 -26
-20 -26 -33 0 -18 4 -20 30 -14 l29 6 -5 -68 c-7 -74 -22 -108 -54 -118 -13
-4 -20 -15 -20 -31 0 -26 11 -30 41 -13 20 10 20 8 13 -62 l-7 -72 35 21 c47
29 50 28 42 -15 -9 -53 -27 -80 -19 -30 5 34 4 38 -12 35 -10 -2 -19 -13 -21
-25 -2 -12 -10 -27 -19 -35 -14 -11 -15 -10 -9 10 9 27 2 28 -34 2 -17 -12
-32 -36 -40 -65 -8 -30 -17 -44 -26 -41 -7 3 -18 -2 -24 -10 -9 -10 -9 -14 -1
-14 6 0 11 -5 11 -11 0 -6 -7 -9 -15 -5 -8 3 -15 1 -15 -4 0 -6 5 -10 11 -10
8 0 8 -5 -1 -15 -28 -34 -32 -15 -25 113 l7 127 -53 187 c-30 104 -57 188 -61
188 -7 0 -334 -220 -355 -239 -7 -6 -29 -11 -50 -11 -31 0 -57 -13 -133 -65
-52 -36 -103 -68 -112 -71 -10 -4 -18 -12 -18 -20 0 -7 -6 -11 -14 -8 -19 7
-28 -10 -20 -41 6 -26 34 -35 34 -11 0 9 7 12 21 9 12 -3 18 -11 15 -19 -3 -8
-2 -14 3 -14 12 0 24 -51 14 -61 -8 -7 -234 34 -254 46 -5 4 -9 14 -9 24 0 13
-15 21 -62 32 -75 17 -80 33 -21 63 39 19 63 50 49 63 -3 3 -17 -2 -30 -11
-18 -11 -31 -13 -48 -7 -13 6 -18 10 -13 10 10 1 9 291 -1 291 -3 0 -72 -36
-154 -79 l-148 -80 -199 30 c-109 16 -238 34 -287 39 -119 14 -144 29 -46 28
75 0 107 2 208 17 53 8 82 25 42 25 -12 0 -18 5 -15 10 3 6 -3 10 -14 10 -11
0 -23 5 -26 10 -3 6 1 10 9 10 9 0 16 5 16 10 0 6 7 10 15 10 8 0 15 -4 15
-10 0 -14 41 -12 69 4 23 13 22 14 -24 20 -66 10 -75 15 -75 38 0 19 4 20 58
14 31 -4 58 -11 60 -16 2 -5 9 -7 16 -4 7 3 65 -4 130 -15 129 -23 206 -28
226 -16 8 5 11 4 6 -3 -16 -26 70 -31 129 -6 19 7 42 11 52 8 12 -4 14 -3 6 3
-9 6 4 17 43 36 30 15 59 25 64 22 13 -8 102 33 95 44 -3 6 3 9 13 8 24 -1
101 35 84 41 -19 6 56 57 123 82 25 9 26 9 15 -5 -17 -21 -12 -19 67 16 73 33
202 69 243 68 23 0 23 -1 5 -9 -11 -5 -34 -9 -50 -9 -30 -1 -55 -16 -55 -33 0
-4 17 -8 39 -8 21 0 53 -5 70 -11 24 -9 35 -9 44 0 6 6 18 11 27 11 13 0 13
-2 0 -11 -12 -8 -10 -9 7 -4 12 3 24 1 28 -5 3 -5 10 -10 16 -10 17 0 9 15
-18 33 l-28 18 30 -5 c17 -3 65 -13 107 -21 42 -9 93 -16 112 -17 33 -1 34 -2
19 -24 -16 -25 -68 -59 -433 -289 -129 -81 -284 -180 -345 -220 -60 -39 -140
-89 -177 -111 -37 -21 -67 -42 -68 -46 -1 -30 88 20 400 223 364 238 388 253
511 328 40 24 88 55 107 67 19 13 45 24 58 24 14 0 24 6 24 14 0 8 5 18 10 21
7 4 9 -2 4 -19 -4 -16 -2 -26 5 -26 6 0 12 16 13 35 0 19 1 41 2 47 1 7 -6 14
-14 15 -8 1 -33 5 -55 9 l-40 7 43 8 c24 5 60 21 80 37 20 16 89 60 152 97 63
38 117 72 118 77 2 4 9 8 16 8 6 0 43 20 82 44 165 103 195 115 256 109 33 -3
63 -1 74 5 29 17 36 14 34 -15z m-5623 -6 c7 3 13 0 13 -6 0 -7 9 -9 24 -5 13
3 27 1 31 -5 3 -6 17 -8 30 -5 12 3 26 1 29 -5 4 -5 13 -8 21 -4 8 3 15 0 15
-6 0 -14 0 -14 -95 4 -43 9 -85 13 -92 11 -7 -3 -13 -1 -13 4 0 5 -27 12 -60
16 -33 4 -60 10 -60 14 0 4 32 1 72 -5 40 -7 78 -11 85 -8z m3785 7 c15 -9 8
-31 -9 -32 -39 -5 -68 -1 -77 8 -6 6 -27 10 -48 10 -28 0 -38 4 -38 16 0 15
10 16 82 9 46 -4 86 -9 90 -11z m-505 -25 c1 -19 1 -20 -4 -4 -3 11 -10 24
-17 28 -7 6 -6 7 4 4 8 -2 16 -14 17 -28z m-2470 15 c-3 -3 -12 -4 -19 -1 -8
3 -5 6 6 6 11 1 17 -2 13 -5z m2588 -4 c-3 -5 -10 -10 -16 -10 -5 0 -9 5 -9
10 0 6 7 10 16 10 8 0 12 -4 9 -10z m1182 -10 c3 -10 2 -11 -4 -4 -4 6 -15 14
-23 17 -11 5 -9 6 4 4 11 -1 21 -9 23 -17z m1522 10 c14 0 33 -5 41 -10 13 -8
13 -11 -2 -26 -15 -16 -23 -16 -71 -4 -30 7 -61 10 -68 7 -16 -6 -12 -8 66
-30 l50 -15 -62 -1 c-53 -1 -63 2 -64 17 -1 14 -2 14 -6 1 -4 -16 -50 -17
-140 -3 -69 10 -18 34 73 34 23 0 46 5 49 11 11 17 48 29 79 24 16 -3 40 -5
55 -5z m-2175 -21 c-8 -14 -24 -10 -24 6 0 9 6 12 15 9 8 -4 12 -10 9 -15z
m1740 9 c-5 -8 -2 -9 9 -5 10 3 17 2 17 -3 0 -16 -37 -11 -44 5 -3 9 0 15 10
15 9 0 12 -5 8 -12z m-5807 -34 c-3 -3 -12 -4 -19 -1 -8 3 -5 6 6 6 11 1 17
-2 13 -5z m43 -15 c0 -5 -4 -9 -10 -9 -5 0 -10 7 -10 16 0 8 5 12 10 9 6 -3
10 -10 10 -16z m6313 -16 c-3 -21 -12 -49 -20 -63 -13 -23 -13 -22 -8 24 8 57
14 76 25 76 5 0 6 -17 3 -37z m-6253 11 c0 -2 -7 -4 -15 -4 -8 0 -15 4 -15 10
0 5 7 7 15 4 8 -4 15 -8 15 -10z m380 6 c0 -6 -11 -10 -25 -10 -14 0 -25 4
-25 8 0 4 11 9 25 10 14 1 25 -3 25 -8z m3530 0 c0 -5 -9 -10 -19 -10 -11 0
-23 5 -26 10 -4 6 5 10 19 10 14 0 26 -4 26 -10z m-3870 -10 c0 -5 -4 -10 -10
-10 -5 0 -10 5 -10 10 0 6 5 10 10 10 6 0 10 -4 10 -10z m100 -14 c0 -3 -4 -8
-10 -11 -5 -3 -10 -1 -10 4 0 6 5 11 10 11 6 0 10 -2 10 -4z m5434 -67 c-2
-76 -18 -96 -38 -48 -8 19 -17 51 -21 72 -7 37 -7 37 27 37 l35 0 -3 -61z
m-2444 16 c1 -75 0 -290 -1 -322 l-2 -38 -6 34 c-6 33 -7 34 -23 17 -16 -16
-58 -31 -58 -21 0 3 18 17 40 31 l40 27 0 128 c0 136 -3 145 -44 114 -28 -21
-39 -19 -26 5 6 11 15 18 20 15 6 -4 7 1 3 11 -4 10 -2 15 3 11 6 -3 16 -2 24
4 24 14 30 11 30 -16z m2869 9 c-13 -15 -89 -20 -89 -5 0 10 24 16 73 18 24 1
26 -1 16 -13z m89 -4 c6 0 12 -4 12 -10 0 -12 -67 -13 -74 -1 -9 13 7 23 29
17 11 -3 26 -6 33 -6z m-6186 -17 c4 -16 -1 -18 -39 -14 -34 2 -43 0 -43 -13
0 -9 -3 -15 -7 -15 -23 4 -43 -2 -38 -11 3 -5 1 -10 -4 -10 -6 0 -11 5 -11 10
0 6 -15 10 -33 10 -18 0 -38 5 -44 11 -8 8 -15 4 -27 -12 -11 -16 -19 -20 -26
-13 -8 8 -7 14 4 23 17 14 76 32 75 23 -3 -20 3 -22 17 -7 15 15 18 15 35 -1
20 -18 49 -13 49 10 0 9 12 16 33 19 17 2 37 5 43 5 7 1 14 -6 16 -15z m38 3
c0 -8 -4 -18 -10 -21 -5 -3 -10 3 -10 14 0 12 5 21 10 21 6 0 10 -6 10 -14z
m3451 4 c5 0 9 -6 9 -14 0 -19 -37 -27 -50 -10 -15 17 -3 37 17 30 8 -3 19 -6
24 -6z m-3811 -20 c-8 -5 -17 -7 -19 -4 -3 3 1 9 9 14 8 5 17 7 19 4 3 -3 -1
-9 -9 -14z m200 10 c0 -5 -2 -10 -4 -10 -3 0 -8 5 -11 10 -3 6 -1 10 4 10 6 0
11 -4 11 -10z m230 1 c0 -4 -11 -6 -25 -3 -14 2 -25 6 -25 8 0 2 11 4 25 4 14
0 25 -4 25 -9z m68 -33 c3 -25 6 -26 29 -17 14 5 28 7 30 5 10 -9 -9 -26 -28
-26 -28 0 -59 -18 -59 -34 0 -8 -7 -19 -15 -26 -8 -7 -15 -8 -15 -3 0 6 -12 8
-27 5 -25 -5 -27 -3 -15 11 8 9 22 19 32 22 29 9 5 55 -29 56 -25 0 -25 1 6
12 17 7 35 16 39 20 17 17 49 2 52 -25z m3450 3 c3 -8 -1 -12 -9 -9 -7 2 -15
10 -17 17 -3 8 1 12 9 9 7 -2 15 -10 17 -17z m-4010 -23 c-5 -21 -20 -27 -45
-17 -14 5 -36 10 -51 11 -17 0 -11 4 18 8 71 11 80 11 78 -2z m1447 -29 c110
-17 236 -34 280 -40 142 -18 143 -18 148 -39 4 -16 1 -19 -16 -16 -12 3 -47 8
-77 11 -30 3 -65 9 -77 12 -18 4 -23 1 -24 -13 -1 -17 -2 -17 -6 -2 -3 11 -18
20 -41 23 -20 3 -64 10 -97 16 -33 5 -107 16 -165 25 -230 32 -249 36 -254 51
-8 19 34 15 329 -28z m-961 6 c-4 -8 -10 -15 -14 -15 -4 0 -10 7 -14 15 -4 10
1 15 14 15 13 0 18 -5 14 -15z m256 -26 c0 -5 -14 -9 -31 -9 -28 0 -30 -2 -18
-17 12 -15 12 -16 -3 -10 -11 4 -18 2 -18 -5 0 -6 -3 -9 -6 -5 -11 11 8 48 29
56 24 9 47 4 47 -10z m5420 11 c0 -5 -4 -10 -10 -10 -5 0 -10 5 -10 10 0 6 5
10 10 10 6 0 10 -4 10 -10z m357 -15 c-4 -8 -11 -15 -17 -15 -6 0 -6 7 2 20
14 22 24 19 15 -5z m163 15 c0 -5 -4 -10 -9 -10 -6 0 -13 5 -16 10 -3 6 1 10
9 10 9 0 16 -4 16 -10z m-6047 -33 c19 4 20 3 5 -6 -20 -13 -77 8 -71 26 3 9
10 7 24 -6 12 -11 29 -17 42 -14z m3043 12 c3 -5 -6 -8 -20 -7 -15 1 -26 8
-26 14 0 13 37 7 46 -7z m-3316 1 c0 -5 -5 -10 -11 -10 -5 0 -7 5 -4 10 3 6 8
10 11 10 2 0 4 -4 4 -10z m-354 -27 c-10 -10 -19 5 -10 18 6 11 8 11 12 0 2
-7 1 -15 -2 -18z m273 -14 c-18 -11 -19 -8 -12 20 5 21 7 21 16 6 6 -12 5 -20
-4 -26z m966 21 c14 -6 46 -10 71 -10 24 0 44 -3 44 -7 0 -5 17 -9 38 -9 20
-1 48 -4 62 -7 14 -3 43 -6 65 -6 31 -1 37 -4 25 -12 -12 -8 -9 -9 12 -5 33 7
94 -4 77 -14 -6 -5 19 -5 56 -2 40 3 66 1 62 -4 -3 -5 23 -9 59 -9 35 0 64 -3
64 -7 0 -3 24 -9 53 -12 28 -3 63 -8 77 -10 14 -2 39 -5 55 -6 l30 -1 -28 -15
c-29 -16 -54 -14 -222 16 -66 12 -208 32 -267 37 -27 3 -48 8 -48 11 0 4 -15
7 -32 8 -46 1 -150 14 -168 22 -8 3 -24 6 -35 7 -54 6 -203 26 -230 32 l-30 6
25 8 c30 10 149 3 185 -11z m-1128 -22 c-3 -7 -5 -2 -5 12 0 14 2 19 5 13 2
-7 2 -19 0 -25z m5490 15 c2 -6 -3 -13 -12 -16 -10 -5 -15 0 -15 14 0 21 21
22 27 2z m-5067 -23 c-19 -12 -50 -13 -50 -2 0 5 10 14 23 19 26 13 50 -2 27
-17z m-560 15 c0 -2 -9 -9 -20 -15 -12 -6 -20 -7 -20 -1 0 5 8 12 18 14 9 3
18 5 20 6 1 0 2 -1 2 -4z m2030 -15 c166 -24 303 -39 310 -35 4 3 10 -12 14
-33 7 -47 8 -77 0 -69 -3 3 -22 0 -42 -7 -21 -7 -41 -12 -47 -10 -5 1 -49 8
-97 14 -88 12 -104 22 -50 33 41 8 117 -3 100 -15 -9 -7 -8 -8 5 -4 10 3 43 6
72 6 41 0 53 3 51 15 -3 20 -5 21 -53 29 -37 5 -43 4 -44 -11 -1 -17 -2 -17
-6 -1 -3 10 -17 19 -36 22 -18 3 -63 9 -102 15 -45 7 -71 7 -73 1 -5 -14 -22
-12 -19 2 1 7 -15 15 -41 18 -42 6 -66 25 -55 42 2 5 12 6 21 4 10 -3 51 -10
92 -16z m4452 -2 c-7 -7 -12 -8 -12 -2 0 14 12 26 19 19 2 -3 -1 -11 -7 -17z
m-1472 -38 c0 -5 -4 -10 -10 -10 -5 0 -10 5 -10 10 0 6 5 10 10 10 6 0 10 -4
10 -10z m1432 -22 c-6 -6 -15 -8 -19 -4 -4 4 -1 11 7 16 8 5 17 7 19 4 3 -2
-1 -10 -7 -16z m-2977 -8 c-3 -5 -11 -10 -16 -10 -6 0 -7 5 -4 10 3 6 11 10
16 10 6 0 7 -4 4 -10z m1825 0 c0 -5 -7 -10 -15 -10 -8 0 -15 5 -15 10 0 6 7
10 15 10 8 0 15 -4 15 -10z m772 -12 c-7 -7 -12 -8 -12 -2 0 14 12 26 19 19 2
-3 -1 -11 -7 -17z m-3069 -24 c16 -3 47 -12 69 -20 22 -8 53 -14 69 -14 16 0
29 -4 29 -10 0 -10 -48 -25 -120 -37 -71 -11 -85 -9 -88 12 -2 11 -9 25 -15
30 -7 6 -12 20 -13 33 -1 19 3 22 20 17 12 -3 34 -8 49 -11z m1297 -4 c0 -5
-10 -10 -22 -10 -19 0 -20 2 -8 10 19 13 30 13 30 0z m2110 6 c0 -2 -7 -9 -15
-16 -13 -11 -14 -10 -9 4 5 14 24 23 24 12z m-5196 -55 c21 -37 17 -46 -19
-37 -21 5 -25 12 -25 42 0 43 17 41 44 -5z m5106 25 c0 -3 -4 -8 -10 -11 -5
-3 -10 -1 -10 4 0 6 5 11 10 11 6 0 10 -2 10 -4z m30 -6 c0 -5 -2 -10 -4 -10
-3 0 -8 5 -11 10 -3 6 -1 10 4 10 6 0 11 -4 11 -10z m30 -20 c0 -5 -9 -10 -19
-10 -11 0 -22 -6 -24 -12 -4 -10 -6 -10 -6 0 -1 10 22 25 47 31 1 1 2 -3 2 -9z
m-5765 -30 c-5 -15 0 -26 17 -40 l23 -19 -25 -9 c-19 -7 -26 -6 -28 4 -2 8
-10 14 -17 14 -17 0 -10 26 13 53 20 22 25 22 17 -3z m-48 -24 c-7 -18 -27
-22 -27 -6 0 6 5 10 11 10 6 0 8 7 4 18 -5 13 -3 14 6 5 6 -6 9 -19 6 -27z
m751 15 c3 -8 -1 -12 -9 -9 -7 2 -15 10 -17 17 -3 8 1 12 9 9 7 -2 15 -10 17
-17z m2295 4 c26 -4 37 -11 37 -23 0 -11 -3 -13 -8 -5 -4 6 -31 15 -59 19 -29
3 -50 10 -48 14 3 5 13 7 23 5 9 -2 34 -7 55 -10z m-2213 -15 c6 -11 8 -20 6
-20 -3 0 -10 9 -16 20 -6 11 -8 20 -6 20 3 0 10 -9 16 -20z m2290 0 c0 -5 -2
-10 -4 -10 -3 0 -8 5 -11 10 -3 6 -1 10 4 10 6 0 11 -4 11 -10z m-2189 -22
c11 -21 11 -22 -4 -9 -10 7 -17 17 -17 22 0 15 9 10 21 -13z m-804 5 c-4 -3
-2 -12 3 -18 8 -9 4 -12 -15 -12 -25 0 -25 0 -9 18 9 11 19 19 22 19 3 0 2 -3
-1 -7z m897 -9 c9 -22 -3 -32 -14 -14 -12 19 -12 30 -1 30 5 0 12 -7 15 -16z
m2193 10 c-3 -3 -12 -4 -19 -1 -8 3 -5 6 6 6 11 1 17 -2 13 -5z m-2568 -13
c20 -13 -23 -24 -70 -19 -34 4 -34 4 -9 15 31 14 60 16 79 4z m475 -7 c3 -8 2
-12 -4 -9 -6 3 -10 10 -10 16 0 14 7 11 14 -7z m2259 -1 c-7 -2 -19 -2 -25 0
-7 3 -2 5 12 5 14 0 19 -2 13 -5z m64 -9 c-3 -3 -12 -4 -19 -1 -8 3 -5 6 6 6
11 1 17 -2 13 -5z m1323 -7 c0 6 9 9 20 6 16 -4 17 -7 5 -19 -24 -25 -59 -15
-48 13 5 12 7 12 14 1 6 -8 9 -9 9 -1z m-4065 -7 c16 -7 13 -9 -17 -9 -20 -1
-40 4 -43 9 -7 12 32 12 60 0z m520 0 c3 -5 1 -10 -4 -10 -6 0 -11 5 -11 10 0
6 2 10 4 10 3 0 8 -4 11 -10z m213 -32 c16 -29 18 -38 7 -38 -7 0 -17 10 -20
23 -21 72 -21 73 13 15z m2095 21 c-3 -11 -12 -23 -19 -26 -8 -3 -12 -9 -9
-13 3 -5 1 -11 -4 -14 -5 -4 -12 -2 -16 4 -3 5 3 15 15 22 26 17 25 26 -2 38
-21 8 -20 9 9 9 27 1 30 -2 26 -20z m1474 -11 c-3 -7 -5 -2 -5 12 0 14 2 19 5
13 2 -7 2 -19 0 -25z m-1433 7 c-4 -8 -10 -12 -15 -9 -14 8 -10 24 6 24 9 0
12 -6 9 -15z m-2778 -8 c10 -10 -17 -8 -41 3 -17 8 -16 9 7 7 15 -2 30 -6 34
-10z m762 -37 c7 -18 7 -30 1 -30 -5 0 -9 1 -9 3 0 1 -4 17 -9 35 -12 40 3 33
17 -8z m-648 20 c0 -11 -21 -11 -65 0 -27 7 -25 8 18 9 26 0 47 -3 47 -9z
m750 -11 c0 -5 -4 -9 -10 -9 -5 0 -10 7 -10 16 0 8 5 12 10 9 6 -3 10 -10 10
-16z m-2186 -5 c10 -25 7 -34 -9 -28 -8 4 -15 15 -15 25 0 23 16 25 24 3z
m1519 6 c25 -1 28 -3 16 -10 -19 -11 -91 -1 -83 12 3 5 13 7 21 4 8 -3 29 -6
46 -6z m1937 0 c0 -5 -7 -10 -15 -10 -8 0 -15 5 -15 10 0 6 7 10 15 10 8 0 15
-4 15 -10z m-1160 -16 c0 -8 -5 -12 -10 -9 -6 4 -8 11 -5 16 9 14 15 11 15 -7z
m-1130 -16 c0 -16 -3 -17 -20 -8 -22 12 -20 27 5 27 8 0 15 -9 15 -19z m460
12 c20 -1 22 -2 9 -10 -20 -11 -91 -1 -83 12 4 5 16 7 28 4 11 -3 32 -6 46 -6z
m1819 -6 c2 -2 -18 -4 -45 -3 -36 0 -44 3 -29 9 18 7 63 3 74 -6z m-1245 -10
c4 -9 4 -19 2 -21 -8 -8 -26 8 -26 23 0 19 16 18 24 -2z m1019 9 c-7 -2 -21
-2 -30 0 -10 3 -4 5 12 5 17 0 24 -2 18 -5z m-2393 -7 c0 -3 -4 -8 -10 -11 -5
-3 -10 -1 -10 4 0 6 5 11 10 11 6 0 10 -2 10 -4z m909 -7 c13 0 13 -2 -2 -8
-25 -10 -88 -1 -81 11 4 6 20 7 36 4 17 -3 38 -6 47 -7z m1528 5 c-3 -3 -12
-4 -19 -1 -8 3 -5 6 6 6 11 1 17 -2 13 -5z m-947 -30 c0 -8 -4 -12 -10 -9 -5
3 -10 13 -10 21 0 8 5 12 10 9 6 -3 10 -13 10 -21z m1118 10 c26 -8 2 -21 -35
-18 -54 3 -53 3 -47 19 5 13 37 13 82 -1z m-2681 0 c-3 -3 -12 -4 -19 -1 -8 3
-5 6 6 6 11 1 17 -2 13 -5z m1123 -12 c47 -10 80 -21 74 -24 -5 -4 -28 -2 -50
4 -21 5 -59 12 -84 15 -25 3 -49 9 -54 14 -14 13 17 11 114 -9z m-672 -39 c17
-38 15 -45 -10 -41 -18 2 -24 11 -26 36 -4 40 18 43 36 5z m845 7 c23 -1 28
-3 17 -9 -20 -11 -92 -2 -84 11 3 5 13 7 21 4 8 -3 29 -6 46 -6z m3461 -15 c3
-9 -1 -41 -9 -72 -8 -32 -13 -65 -10 -74 3 -10 1 -20 -4 -24 -7 -4 -9 12 -5
47 4 29 6 65 5 81 -1 15 4 27 10 27 8 0 8 4 -1 15 -7 9 -8 15 -2 15 5 0 13 -7
16 -15z m885 -7 c-24 -46 -51 -78 -65 -78 -44 0 21 88 74 99 1 1 -3 -9 -9 -21z
m-5349 2 c0 -5 -8 -10 -17 -10 -15 0 -16 2 -3 10 19 12 20 12 20 0z m1128 0
c11 0 13 -3 6 -10 -13 -13 -96 -1 -88 12 4 6 20 7 36 4 17 -3 38 -6 46 -6z
m107 -20 c26 -1 27 -2 12 -11 -22 -13 -100 -2 -91 13 3 5 16 7 28 4 11 -3 35
-6 51 -6z m-2383 -32 c-7 -7 -12 -8 -12 -2 0 14 12 26 19 19 2 -3 -1 -11 -7
-17z m1413 12 c3 -5 1 -10 -4 -10 -6 0 -11 5 -11 10 0 6 2 10 4 10 3 0 8 -4
11 -10z m-97 -39 c10 -6 6 -11 -15 -19 -31 -10 -83 -5 -83 8 0 17 76 25 98 11z
m289 -7 c-3 -3 -12 -4 -19 -1 -8 3 -5 6 6 6 11 1 17 -2 13 -5z m88 -14 c3 -5
1 -10 -4 -10 -6 0 -11 5 -11 10 0 6 2 10 4 10 3 0 8 -4 11 -10z m-320 -10 c15
-7 10 -9 -22 -9 -24 -1 -43 4 -43 9 0 12 37 12 65 0z m2732 -27 c-3 -34 -27
-44 -27 -10 0 13 3 27 7 30 14 14 22 6 20 -20z m-2522 -17 c79 -17 104 -25 88
-30 -25 -8 -95 3 -88 14 2 4 -16 7 -42 8 -25 0 -49 5 -53 12 -4 6 -13 11 -21
10 -31 -5 -59 1 -59 11 0 7 11 9 33 5 17 -4 82 -17 142 -30z m4480 4 c-10 -11
-23 -20 -28 -20 -6 0 0 11 13 25 27 29 42 25 15 -5z m-4160 0 c3 -5 2 -10 -4
-10 -5 0 -13 5 -16 10 -3 6 -2 10 4 10 5 0 13 -4 16 -10z m2152 -52 c-2 -13
-4 -3 -4 22 0 25 2 35 4 23 2 -13 2 -33 0 -45z m-130 10 c-3 -7 -5 -2 -5 12 0
14 2 19 5 13 2 -7 2 -19 0 -25z m100 0 c-3 -8 -6 -5 -6 6 -1 11 2 17 5 13 3
-3 4 -12 1 -19z m-2707 2 c0 -5 -7 -10 -16 -10 -8 0 -12 5 -9 10 3 6 10 10 16
10 5 0 9 -4 9 -10z m790 0 c0 -5 -4 -10 -10 -10 -5 0 -10 5 -10 10 0 6 5 10
10 10 6 0 10 -4 10 -10z m2805 -172 c-3 -101 -10 -235 -15 -298 -5 -63 -12
-167 -16 -230 -4 -63 -9 -107 -12 -97 -5 24 -28 15 -25 -10 1 -12 -5 -19 -17
-20 -27 -2 -80 -44 -80 -62 0 -14 1 -14 10 -1 7 11 10 12 10 2 0 -8 -9 -16
-21 -19 -15 -4 -17 -8 -8 -14 8 -4 10 -11 6 -15 -4 -4 -13 -2 -19 4 -14 14
-42 16 -33 3 5 -10 -21 -41 -35 -41 -10 0 -22 101 -24 210 -2 47 -10 110 -20
141 l-18 55 -86 18 c-126 25 -193 46 -186 57 3 5 10 7 15 3 11 -7 221 -55 225
-51 1 1 4 36 6 77 5 75 5 75 33 75 16 1 30 6 33 13 3 10 -15 99 -34 165 -4 13
1 17 20 17 14 0 26 -4 26 -10 0 -21 18 -9 22 15 4 17 1 25 -8 25 -26 0 -14 15
32 43 26 16 53 26 61 23 8 -4 11 -1 7 5 -3 6 3 17 15 25 12 9 21 26 21 42 0
19 3 23 11 15 6 -6 18 -9 25 -6 9 3 14 -2 14 -12 0 -9 6 -15 13 -12 6 2 11 9
10 15 -2 6 4 9 12 6 9 -4 15 0 15 10 0 9 5 16 11 16 7 0 8 -57 4 -182z m673
162 c-7 -10 -14 -17 -17 -15 -4 4 18 35 25 35 2 0 -1 -9 -8 -20z m782 10 c0
-5 -2 -10 -4 -10 -3 0 -8 5 -11 10 -3 6 -1 10 4 10 6 0 11 -4 11 -10z m70 -5
c0 -9 -9 -15 -25 -15 -29 0 -34 16 -7 23 30 8 32 7 32 -8z m-4680 -5 c12 -8
10 -10 -10 -9 -14 0 -34 4 -45 9 -17 7 -16 9 10 9 17 0 37 -4 45 -9z m4260 5
c0 -12 -63 -74 -71 -70 -4 3 9 21 29 40 38 35 42 38 42 30z m-4130 -26 c0 -4
24 -10 53 -14 43 -6 48 -8 30 -15 -13 -5 -36 -5 -55 1 -18 6 -51 13 -73 16
-67 8 -77 23 -13 21 32 -2 58 -6 58 -9z m2058 -25 c1 -20 -3 -44 -10 -52 -11
-13 -11 -14 0 -8 10 6 12 -7 10 -60 -2 -43 -8 -69 -15 -72 -10 -3 -13 18 -13
81 0 87 8 147 19 147 3 0 7 -16 9 -36z m-1614 11 c3 -8 1 -15 -4 -15 -6 0 -10
7 -10 15 0 8 2 15 4 15 2 0 6 -7 10 -15z m-989 -25 c20 -38 19 -42 -7 -38 -18
2 -24 11 -26 36 -4 40 13 42 33 2z m754 -6 c2 -2 2 -7 -2 -10 -10 -10 -108 7
-101 17 5 9 92 2 103 -7z m346 6 c3 -5 1 -10 -4 -10 -6 0 -11 5 -11 10 0 6 2
10 4 10 3 0 8 -4 11 -10z m-218 -37 c51 -10 93 -22 93 -27 0 -10 -91 0 -99 12
-4 4 -25 8 -49 9 -24 0 -49 6 -55 12 -15 15 -1 14 110 -6z m-1102 -7 c-11 -8
-26 -11 -35 -8 -11 5 -9 8 10 13 40 11 45 10 25 -5z m4748 8 c-7 -3 -9 -12 -6
-20 5 -12 9 -12 25 5 19 21 38 27 38 13 0 -17 -52 -57 -73 -57 -13 0 -23 -7
-25 -19 -3 -11 0 -16 7 -12 6 4 11 2 11 -3 0 -6 -8 -11 -18 -11 -10 0 -25 -9
-35 -20 -9 -11 -14 -20 -10 -20 3 0 3 -3 0 -7 -4 -3 -14 2 -21 13 -11 14 -17
16 -27 7 -6 -6 -17 -9 -24 -6 -8 2 -25 -3 -40 -13 -14 -9 -28 -14 -32 -11 -8
9 57 87 73 87 8 0 31 15 52 34 34 31 60 42 102 44 9 0 10 -2 3 -4z m-3433 -45
c0 -15 -44 -17 -78 -4 l-37 14 58 -2 c31 -1 57 -5 57 -8z m-805 -19 c8 -13 -5
-13 -25 0 -13 8 -13 10 2 10 9 0 20 -4 23 -10z m-206 -20 c15 -1 15 -1 -1 -10
-19 -12 -78 -2 -78 13 0 5 13 7 31 3 17 -3 39 -6 48 -6z m311 -6 c0 -2 -7 -4
-15 -4 -8 0 -15 4 -15 10 0 5 7 7 15 4 8 -4 15 -8 15 -10z m2360 9 c0 -5 -23
-21 -50 -38 -28 -16 -50 -32 -50 -36 0 -4 -13 -12 -30 -18 -25 -8 -30 -7 -30
5 0 8 5 12 10 9 6 -3 10 -1 10 5 0 6 10 15 23 20 12 5 40 21 62 34 43 26 55
30 55 19z m2150 2 c0 -3 -179 -275 -397 -605 -434 -653 -603 -911 -617 -941
-9 -18 -41 -28 -34 -11 3 9 52 88 165 267 76 121 146 236 176 288 10 18 27 39
38 49 10 9 19 20 19 24 0 15 112 194 121 194 5 0 14 10 18 23 5 12 30 54 55
92 25 39 46 73 46 78 0 4 7 7 15 7 8 0 15 6 15 13 0 7 19 41 41 77 68 106 73
115 74 120 1 14 57 100 65 100 6 0 10 5 10 11 0 6 15 31 33 56 36 51 53 77 81
121 11 17 27 33 35 35 25 7 41 7 41 2z m-4735 -25 c18 -1 19 -1 3 -11 -22 -13
-96 -1 -76 12 7 5 22 7 33 4 11 -2 29 -5 40 -5z m323 -15 c-8 -8 -48 8 -42 16
3 5 14 4 25 -2 12 -6 19 -12 17 -14z m-228 -15 c8 -5 36 -11 63 -15 26 -4 47
-11 47 -17 0 -5 6 -8 13 -6 6 1 30 -2 52 -6 33 -6 36 -9 22 -18 -12 -6 -31 -5
-60 6 -23 8 -59 18 -81 21 -21 4 -46 10 -55 15 -9 5 -34 12 -55 15 -29 5 -36
9 -25 15 14 9 50 4 79 -10z m320 0 c0 -5 -4 -10 -9 -10 -6 0 -13 5 -16 10 -3
6 1 10 9 10 9 0 16 -4 16 -10z m2323 -4 c9 10 25 -30 28 -71 4 -38 3 -40 -26
-41 -52 -2 -55 -4 -55 -25 0 -11 -5 -17 -10 -14 -6 4 -7 11 -4 17 10 16 17 57
18 104 0 39 2 41 22 34 12 -5 24 -6 27 -4z m-3305 -33 c-10 -2 -18 -9 -18 -14
0 -5 -5 -9 -11 -9 -8 0 -8 5 1 15 7 8 20 14 29 14 13 -1 13 -2 -1 -6z m1192
-8 c0 -8 -7 -15 -16 -15 -14 0 -14 3 -4 15 7 8 14 15 16 15 2 0 4 -7 4 -15z
m1787 -27 c-3 -7 -5 -2 -5 12 0 14 2 19 5 13 2 -7 2 -19 0 -25z m428 -166
c-10 -10 -22 18 -19 44 3 27 -2 30 -20 12 -18 -19 -27 -48 -15 -48 6 0 8 -4 5
-9 -15 -23 25 -42 143 -66 69 -14 126 -26 127 -28 6 -6 7 -107 1 -113 -3 -3
-56 6 -117 20 -131 31 -134 31 -125 9 4 -10 10 -40 14 -67 l6 -49 85 -23 c101
-27 120 -29 120 -9 0 19 11 19 36 -1 10 -8 13 -13 7 -9 -8 4 -13 0 -13 -9 0
-10 -9 -16 -21 -16 -20 0 -200 43 -233 56 -9 3 -16 2 -16 -4 0 -8 137 -51 218
-67 31 -6 32 -8 32 -61 0 -30 -3 -54 -8 -54 -4 0 -54 14 -112 30 -58 17 -108
30 -112 30 -5 0 -8 -11 -8 -25 0 -18 -5 -25 -19 -25 -18 0 -18 3 -5 63 19 87
1 167 -28 126 -7 -10 -8 -6 -5 13 2 15 0 25 -4 22 -5 -3 -9 0 -9 6 0 6 -4 8
-10 5 -24 -15 -7 13 20 33 38 28 41 62 5 62 -14 0 -36 -7 -48 -15 l-23 -15 0
71 1 71 38 -6 c35 -6 37 -5 37 19 0 20 -6 27 -30 32 -17 3 -33 9 -36 14 -3 5
3 6 13 2 16 -6 16 -5 4 10 -7 9 -9 17 -4 17 21 0 123 107 125 131 1 13 4 -20
5 -75 2 -54 1 -101 -2 -104z m1400 168 c-16 -16 -33 -30 -39 -30 -5 0 0 9 13
21 31 30 20 34 -23 8 -45 -26 -48 -19 -3 10 17 11 43 21 56 21 l25 0 -29 -30z
m-3575 10 c-8 -5 -19 -10 -25 -10 -5 0 -3 5 5 10 8 5 20 10 25 10 6 0 3 -5 -5
-10z m-272 -10 c12 0 13 -3 5 -11 -8 -8 -28 -9 -59 -4 -34 5 -44 9 -33 16 8 5
27 7 43 4 16 -3 36 -5 44 -5z m361 0 c4 0 8 -6 8 -14 0 -10 -8 -11 -41 -3 -33
9 -36 12 -20 18 10 4 25 6 32 3 8 -2 17 -4 21 -4z m-269 -24 c8 -1 18 -5 21
-9 3 -5 31 -9 61 -10 38 -1 54 -6 51 -14 -3 -6 -11 -14 -18 -17 -13 -5 -85 13
-95 24 -3 3 -25 6 -49 7 -24 2 -47 5 -50 8 -10 11 24 25 44 18 11 -3 27 -6 35
-7z m346 4 c8 0 14 -7 14 -14 0 -12 -6 -13 -30 -5 -16 6 -30 15 -30 21 0 6 7
7 16 4 9 -3 22 -6 30 -6z m-1517 -17 c0 -10 -95 -73 -109 -73 -24 0 -6 21 43
48 56 32 67 36 66 25z m4836 -3 c-3 -5 -3 -10 2 -10 4 0 15 -5 23 -10 12 -8
10 -14 -15 -40 -31 -32 -51 -40 -41 -15 3 8 0 15 -6 15 -9 0 -9 3 0 12 10 10
15 10 22 -2 9 -13 11 -13 19 0 12 18 3 33 -15 26 -17 -7 -18 6 -2 22 15 15 21
16 13 2z m-1720 -217 c-3 -13 -10 -23 -15 -23 -14 0 -11 200 3 225 10 16 13 3
15 -80 2 -55 0 -110 -3 -122z m-1480 197 c3 -5 1 -10 -4 -10 -6 0 -11 5 -11
10 0 6 2 10 4 10 3 0 8 -4 11 -10z m-230 -20 c19 -1 19 -1 2 -11 -21 -12 -97
-2 -97 13 0 7 14 8 38 4 20 -3 46 -6 57 -6z m108 -43 c-5 -8 -79 0 -97 11 -5
3 -1 8 9 12 23 8 96 -11 88 -23z m3238 5 c-7 -2 -18 1 -23 6 -8 8 -4 9 13 5
13 -4 18 -8 10 -11z m-4571 -1 c0 -5 -7 -14 -15 -21 -8 -7 -15 -10 -15 -7 0 3
-3 12 -6 21 -4 12 0 16 15 16 12 0 21 -4 21 -9z m4517 -2 c-9 -6 -15 -14 -12
-20 7 -10 -6 -12 -30 -3 -14 6 -13 9 7 19 29 16 62 20 35 4z m-3111 -8 c19 -5
38 -5 50 2 19 10 19 10 0 -11 -22 -25 -27 -26 -80 -11 -29 8 -36 13 -25 20 17
11 18 11 55 0z m-1380 -37 c-9 -6 -16 -19 -16 -29 0 -11 -5 -15 -14 -12 -10 4
-13 1 -10 -7 7 -18 -9 -28 -30 -20 -13 5 -10 13 19 45 19 22 35 44 35 50 0 8
5 7 16 -2 14 -12 14 -14 0 -25z m2419 12 c39 -3 104 -9 145 -12 41 -3 84 -6
95 -5 37 2 83 -9 88 -22 4 -10 -6 -12 -44 -7 -27 4 -49 3 -49 -1 0 -4 15 -9
33 -11 52 -5 27 -23 -28 -20 -45 3 -48 2 -31 -11 18 -13 17 -14 -14 -20 -17
-4 -35 -5 -39 -2 -15 9 -61 13 -61 5 0 -12 27 -20 68 -20 68 0 82 -9 82 -47
l0 -35 -47 6 c-153 19 -225 22 -242 11 -10 -6 -12 -4 -7 4 6 8 2 11 -10 9 -15
-2 -20 4 -22 35 l-3 39 79 -7 c53 -4 82 -3 87 4 4 7 -14 11 -54 12 -34 1 -65
3 -71 4 -5 1 -17 3 -25 4 -8 0 -15 6 -15 11 0 6 7 10 16 8 10 -2 19 2 20 7 3
6 -20 11 -53 13 -67 4 -88 13 -53 23 22 6 20 7 -11 8 -22 1 -39 7 -42 15 -9
22 -2 23 70 15 38 -4 100 -10 138 -13z m2149 -26 c-21 -22 -42 -40 -48 -40 -6
0 -3 7 7 14 9 7 17 18 17 25 0 6 -8 11 -17 11 -16 1 -16 2 1 12 15 8 21 8 24
0 4 -13 23 -17 21 -4 -3 16 2 22 16 22 11 0 3 -13 -21 -40z m-103 -4 c21 -3
39 -11 39 -16 0 -6 -5 -10 -11 -10 -5 0 -7 -4 -4 -10 8 -12 -57 21 -67 35 -4
6 -7 17 -7 25 1 12 2 12 6 -1 2 -10 19 -19 44 -23z m-2321 2 c0 -16 -3 -19
-11 -11 -6 6 -8 16 -5 22 11 17 16 13 16 -11z m-1873 -14 c-3 -3 -12 -4 -19
-1 -8 3 -5 6 6 6 11 1 17 -2 13 -5z m78 -14 c43 -21 25 -28 -22 -8 -15 6 -32
10 -36 9 -5 -1 -6 3 -2 9 8 13 13 13 60 -10z m-915 -25 c0 -8 -4 -15 -10 -15
-5 0 -10 7 -10 15 0 8 5 15 10 15 6 0 10 -7 10 -15z m990 5 c8 -5 11 -12 7
-16 -4 -4 -15 0 -24 9 -18 18 -8 23 17 7z m-1028 -36 c-4 -6 -25 -32 -47 -57
-30 -35 -42 -43 -52 -35 -21 17 -16 25 39 79 36 35 54 46 59 37 4 -6 5 -17 1
-24z m5110 -1 c-26 -36 -61 -68 -67 -61 -6 6 65 85 78 87 5 0 0 -11 -11 -26z
m-4392 -44 c0 -16 4 -29 9 -29 10 0 31 -48 34 -78 1 -24 6 -25 142 -42 195
-23 190 -22 175 -49 -8 -16 -3 -20 35 -31 24 -7 77 -14 117 -15 40 -2 76 -4
80 -4 4 -1 5 -8 2 -16 -4 -8 -1 -15 6 -15 6 0 8 -4 5 -10 -4 -6 -19 -4 -42 5
-44 18 -103 21 -85 3 6 -6 25 -11 42 -10 l31 1 -22 -18 c-20 -16 -28 -17 -83
-5 -34 7 -72 17 -86 22 -55 20 -80 23 -80 8 0 -10 -7 -12 -22 -8 -19 5 -21 2
-14 -29 3 -19 9 -50 12 -70 l6 -37 -148 44 c-82 25 -185 52 -229 62 -70 15
-80 20 -81 40 0 12 1 20 4 18 2 -3 19 9 38 26 24 22 31 35 24 43 -14 17 12 37
58 44 43 7 58 39 22 48 -14 4 -19 11 -15 21 4 11 0 13 -15 9 -11 -3 -20 -1
-20 4 0 5 -7 9 -15 9 -8 0 -15 8 -15 18 0 21 58 62 88 62 12 0 22 5 22 11 0 5
5 7 10 4 6 -3 10 -19 10 -36z m4205 31 c-12 -19 15 -39 61 -46 35 -5 42 -9 34
-19 -8 -9 -7 -14 2 -18 7 -3 3 -6 -9 -6 -16 -1 -21 -6 -17 -16 4 -9 0 -15 -10
-15 -9 0 -15 -3 -15 -7 3 -17 -1 -33 -8 -32 -20 3 -34 -2 -29 -10 3 -5 -4 -11
-15 -14 -16 -4 -20 -11 -15 -24 4 -9 4 -15 1 -11 -9 9 -55 -37 -55 -55 0 -9
-12 -24 -27 -34 -16 -10 -31 -22 -35 -27 -9 -14 -22 0 -13 14 4 6 19 16 33 21
20 8 23 12 12 19 -12 7 -12 11 0 25 12 14 9 16 -31 14 -52 -2 -109 9 -109 22
0 5 4 9 9 9 5 0 26 15 47 34 21 19 42 32 46 30 5 -3 13 -2 19 2 7 4 8 9 1 13
-10 6 105 140 121 141 5 0 5 -5 2 -10z m-4905 -34 c0 -2 -17 -14 -37 -25 l-38
-21 30 25 c28 23 45 31 45 21z m-152 -38 c27 -22 13 -36 -32 -33 -24 1 -48 5
-54 9 -5 3 -12 -1 -16 -9 -7 -19 -33 -19 -33 0 0 8 6 15 14 15 7 0 13 4 13 9
0 5 7 12 16 15 8 3 12 2 9 -4 -3 -6 1 -10 9 -10 9 0 16 7 16 16 0 11 6 14 23
8 12 -3 28 -11 35 -16z m3652 -64 c0 -13 -4 -24 -10 -24 -5 0 -10 14 -10 31 0
17 4 28 10 24 6 -3 10 -17 10 -31z m-3698 -22 c-7 -2 -12 -13 -12 -23 0 -21
-46 -68 -67 -69 -8 0 -13 12 -13 29 0 23 7 32 35 45 19 9 37 21 40 26 4 6 11
7 18 3 8 -5 8 -8 -1 -11z m2935 -29 c4 -11 -4 -11 -62 -4 -5 1 -3 6 5 11 19
13 52 9 57 -7z m763 2 c0 -8 -4 -15 -10 -15 -5 0 -10 7 -10 15 0 8 5 15 10 15
6 0 10 -7 10 -15z m310 5 c0 -5 -4 -10 -10 -10 -5 0 -10 5 -10 10 0 6 5 10 10
10 6 0 10 -4 10 -10z m1445 -10 c3 -5 1 -10 -4 -10 -6 0 -11 5 -11 10 0 6 2
10 4 10 3 0 8 -4 11 -10z m-5465 -43 c0 -2 -13 -13 -30 -25 -16 -13 -30 -19
-30 -15 0 5 12 16 28 25 28 18 32 20 32 15z m3987 -79 c-3 -10 -1 -18 4 -18 5
0 9 -4 9 -10 0 -5 -7 -7 -15 -4 -11 5 -15 21 -14 63 1 54 1 55 11 22 5 -19 7
-43 5 -53z m-3902 52 c-3 -5 -12 -10 -18 -10 -7 0 -6 4 3 10 19 12 23 12 15 0z
m619 -14 c-1 -3 -5 -22 -8 -41 -9 -46 -23 -37 -23 14 0 30 3 38 16 36 9 -1 15
-5 15 -9z m-652 -24 c-7 -2 -10 -8 -6 -13 3 -5 -10 -9 -28 -9 l-33 1 23 19
c13 11 30 16 39 13 11 -4 13 -8 5 -11z m-137 -1 c-3 -6 -20 -17 -38 -25 l-32
-16 30 25 c30 25 51 33 40 16z m755 -63 c0 -12 -17 -9 -27 5 -6 6 -10 20 -10
31 0 16 3 15 18 -5 10 -13 19 -27 19 -31z m1852 36 c50 -14 59 -20 56 -38 -3
-23 -13 -24 -98 -7 l-55 10 67 -5 c45 -3 69 -1 74 7 4 8 3 9 -4 5 -16 -9 -93
15 -85 27 3 5 -3 6 -16 2 -12 -4 -21 -2 -21 4 0 15 14 14 82 -5z m-1251 -14
c12 0 16 -5 13 -14 -4 -11 0 -13 18 -9 13 3 20 2 16 -2 -4 -4 -24 -9 -44 -11
-39 -3 -57 -14 -36 -22 10 -3 5 -10 -15 -23 -15 -10 -32 -19 -38 -19 -5 0 -4
4 4 9 9 6 10 14 5 22 -5 8 -9 24 -9 37 -1 19 3 23 21 19 17 -3 21 0 16 11 -4
12 -1 14 12 9 10 -4 26 -7 37 -7z m1077 -7 c-10 -2 -26 -2 -35 0 -10 3 -2 5
17 5 19 0 27 -2 18 -5z m-724 -17 c-10 -8 -21 -12 -24 -10 -5 6 21 24 34 24 6
0 1 -6 -10 -14z m789 7 c-7 -2 -21 -2 -30 0 -10 3 -4 5 12 5 17 0 24 -2 18 -5z
m2547 -1 c0 -13 -31 -45 -57 -59 -27 -15 -63 -17 -63 -3 0 6 8 10 18 10 26 0
82 29 89 46 6 16 13 19 13 6z m-5040 -27 c-14 -17 -40 -20 -40 -6 0 5 10 12
23 14 12 2 24 5 26 6 2 0 -2 -6 -9 -14z m1438 -16 c-2 -7 12 -16 30 -21 34 -9
41 -22 17 -32 -23 -8 -14 -29 20 -45 82 -37 -74 -7 -169 33 l-30 13 55 30 c59
33 80 39 77 22z m3036 -5 c6 -17 0 -34 -12 -34 -4 0 -9 11 -10 25 -2 28 12 34
22 9z m-2800 -3 c3 -4 3 -11 0 -14 -8 -8 -34 3 -34 14 0 11 27 12 34 0z m2623
3 c-3 -3 -12 -4 -19 -1 -8 3 -5 6 6 6 11 1 17 -2 13 -5z m-12 -70 c83 -20 154
-41 160 -45 5 -5 14 -9 20 -9 5 0 3 5 -5 10 -12 8 -9 10 12 10 14 0 28 -5 30
-11 2 -6 21 -15 43 -19 22 -5 62 -15 88 -23 l48 -13 -20 -25 c-18 -23 -25 -24
-128 -24 -106 0 -139 -7 -128 -26 3 -5 -1 -6 -9 -3 -14 6 -21 -5 -17 -28 0 -5
-2 -7 -7 -6 -16 3 -48 -17 -72 -46 -14 -17 -33 -37 -42 -45 -10 -9 -18 -21
-18 -28 0 -7 -3 -12 -7 -11 -11 3 -53 -25 -53 -35 0 -4 -16 -21 -35 -38 -19
-17 -32 -35 -29 -40 3 -5 2 -8 -3 -7 -14 5 -65 -41 -58 -52 4 -6 3 -10 -2 -9
-18 3 -27 -2 -16 -9 9 -6 7 -12 -7 -25 -11 -9 -20 -12 -20 -7 0 6 -5 10 -11
10 -7 0 -9 -9 -6 -21 4 -15 2 -19 -8 -15 -15 5 -39 -17 -29 -27 4 -4 -6 -11
-22 -17 -23 -9 -26 -13 -14 -21 13 -9 13 -10 0 -8 -8 1 -41 -5 -72 -15 -67
-20 -202 -24 -223 -6 -8 6 -23 9 -35 5 -13 -4 -20 -2 -20 7 0 9 -44 28 -122
52 -68 22 -127 42 -131 46 -5 4 58 63 139 131 81 68 179 151 217 184 173 148
340 282 373 300 17 8 36 10 57 5 18 -5 100 -25 182 -46z m-2645 30 c0 -8 -5
-12 -10 -9 -6 4 -8 11 -5 16 9 14 15 11 15 -7z m40 -14 c0 -5 -4 -10 -10 -10
-5 0 -10 5 -10 10 0 6 5 10 10 10 6 0 10 -4 10 -10z m3280 7 c0 -2 -10 -12
-22 -23 l-23 -19 19 23 c18 21 26 27 26 19z m-2125 -47 c3 -5 -1 -10 -9 -10
-9 0 -16 5 -16 10 0 6 4 10 9 10 6 0 13 -4 16 -10z m-2095 -24 c0 -2 -7 -7
-16 -10 -8 -3 -12 -2 -9 4 6 10 25 14 25 6z m4147 -17 c-8 -11 -30 -31 -48
-45 -19 -14 -33 -28 -31 -32 1 -4 -9 -8 -24 -10 -16 -2 -25 1 -22 8 2 6 7 11
12 10 5 -1 13 5 18 14 5 9 17 16 26 16 9 1 28 14 42 30 27 34 49 41 27 9z
m-1812 -9 c-3 -5 -11 -10 -16 -10 -6 0 -7 5 -4 10 3 6 11 10 16 10 6 0 7 -4 4
-10z m-520 -82 c6 -5 -21 5 -60 22 -38 17 -74 36 -80 41 -5 6 22 -4 60 -21 39
-18 75 -36 80 -42z m2484 30 l-1 -43 -8 35 c-8 32 -6 50 6 50 2 0 4 -19 3 -42z
m-4262 26 c-3 -3 -12 -4 -19 -1 -8 3 -5 6 6 6 11 1 17 -2 13 -5z m1901 -43
c50 -17 76 -31 56 -31 -14 1 -114 36 -121 44 -10 10 9 6 65 -13z m-1778 -1 c0
-5 -4 -10 -9 -10 -6 0 -13 5 -16 10 -3 6 1 10 9 10 9 0 16 -4 16 -10z m850
-26 c0 -8 -5 -12 -10 -9 -6 4 -8 11 -5 16 9 14 15 11 15 -7z m-784 -37 c8 3
14 0 14 -7 0 -7 8 -9 19 -5 11 3 22 1 26 -5 4 -6 14 -9 22 -6 9 4 22 1 29 -5
16 -13 19 -33 4 -24 -5 3 -10 -1 -10 -9 0 -21 2 -21 -68 14 -34 17 -74 30 -89
30 -18 1 -34 9 -46 26 l-18 24 51 -19 c29 -11 58 -17 66 -14z m670 -8 c7 -12
-18 -11 -51 1 -37 14 -22 32 15 18 17 -5 33 -14 36 -19z m-521 3 c4 -11 -1
-13 -22 -7 -41 10 -48 22 -14 22 17 0 33 -7 36 -15z m-210 -32 c-3 -5 -12 -10
-18 -10 -7 0 -6 4 3 10 19 12 23 12 15 0z m-245 -43 c19 -9 47 -19 63 -22 33
-7 35 -18 5 -32 -13 -6 -44 -27 -70 -46 -45 -35 -49 -36 -79 -23 l-31 13 33
25 c19 14 44 31 57 37 29 15 28 25 -3 39 -14 6 -25 16 -25 22 0 6 3 10 8 8 4
-2 23 -11 42 -21z m670 13 c0 -5 -5 -10 -11 -10 -5 0 -7 5 -4 10 3 6 8 10 11
10 2 0 4 -4 4 -10z m72 -23 c3 -18 0 -23 -14 -22 -26 2 -32 12 -17 29 19 21
26 20 31 -7z m-257 3 c3 -5 -1 -10 -10 -10 -9 0 -13 5 -10 10 3 6 8 10 10 10
2 0 7 -4 10 -10z m121 -46 c4 -17 11 -23 21 -20 9 4 13 1 11 -6 -3 -7 -18 -13
-35 -14 -17 -1 -38 -4 -47 -7 -8 -3 -18 -2 -21 2 -7 13 20 32 37 26 9 -4 18 1
21 9 4 9 2 16 -3 16 -6 0 -10 5 -10 10 0 21 20 9 26 -16z m84 -18 c0 -3 -6 -6
-14 -6 -8 0 -17 -8 -20 -17 -2 -10 -3 -2 -1 17 2 19 4 36 4 38 2 5 31 -26 31
-32z m1570 -8 c0 -13 -62 1 -78 17 -11 10 -5 11 32 2 25 -6 46 -14 46 -19z
m-1735 12 c-3 -5 -12 -10 -18 -10 -7 0 -6 4 3 10 19 12 23 12 15 0z m208 -20
c-7 -28 -13 -25 -13 6 0 14 4 23 9 20 5 -3 7 -15 4 -26z m37 -11 c0 -6 -4 -7
-10 -4 -5 3 -10 11 -10 16 0 6 5 7 10 4 6 -3 10 -11 10 -16z m215 11 c3 -5 1
-10 -4 -10 -6 0 -11 5 -11 10 0 6 2 10 4 10 3 0 8 -4 11 -10z m1229 -9 c11 -4
15 -10 10 -14 -14 -8 -54 3 -54 14 0 11 17 11 44 0z m-1400 -39 c-11 -9 -26
-26 -32 -37 -11 -20 -11 -19 -12 2 0 12 10 29 22 37 30 22 48 20 22 -2z m1367
5 c-1 -12 -15 -9 -19 4 -3 6 1 10 8 8 6 -3 11 -8 11 -12z m-2295 -16 c-10 -11
-15 -25 -11 -30 3 -6 -1 -11 -9 -11 -9 0 -16 2 -16 5 0 13 33 55 43 55 5 0 2
-9 -7 -19z m1002 -6 c-3 -3 -9 2 -12 12 -6 14 -5 15 5 6 7 -7 10 -15 7 -18z
m-1043 -45 c3 -5 24 -10 46 -10 l40 0 -34 -30 c-28 -24 -44 -30 -81 -30 -44 0
-47 1 -40 23 13 45 53 72 69 47z m760 -15 c-30 -24 -30 -24 -6 -25 13 0 39 11
57 25 25 19 40 24 61 19 l27 -7 -43 -37 c-39 -34 -41 -38 -25 -51 19 -15 64
-20 64 -7 0 5 6 8 14 6 8 -2 14 0 13 3 -4 12 36 49 52 49 20 0 52 35 43 46 -4
4 -1 3 7 -1 11 -6 -3 -25 -59 -78 -73 -69 -74 -69 -120 -64 -71 9 -150 28
-150 36 0 4 29 2 65 -4 36 -7 65 -9 65 -6 0 16 -47 49 -80 56 l-34 7 32 29
c18 16 36 29 40 29 4 0 -6 -11 -23 -25z m125 -45 c0 -5 -5 -10 -11 -10 -5 0
-7 5 -4 10 3 6 8 10 11 10 2 0 4 -4 4 -10z m2790 -5 c0 -8 -2 -15 -4 -15 -2 0
-6 7 -10 15 -3 8 -1 15 4 15 6 0 10 -7 10 -15z m-935 -5 c8 -13 -5 -13 -25 0
-13 8 -13 10 2 10 9 0 20 -4 23 -10z m-2295 -30 c-8 -5 -19 -10 -25 -10 -5 1
-2 5 8 11 9 6 14 16 11 22 -5 8 -2 7 7 -1 12 -11 12 -14 -1 -22z m1556 -33 c4
-4 16 -7 26 -7 10 0 18 -4 18 -10 0 -5 -4 -10 -9 -10 -13 0 -81 29 -81 35 0 7
38 0 46 -8z m-1479 -24 c3 -7 11 -13 18 -13 15 0 50 -38 42 -46 -3 -3 -13 3
-23 15 -10 11 -21 18 -26 15 -13 -9 -108 17 -108 28 0 6 9 8 20 5 11 -3 20 -1
20 4 0 14 52 6 57 -8z m231 -19 c20 -8 51 -16 69 -16 31 0 32 -1 17 -23 -8
-12 -33 -30 -55 -40 -38 -18 -41 -18 -57 -1 -16 16 -16 18 6 37 l24 19 -29 11
c-15 6 -41 11 -58 11 -21 -1 -25 2 -15 8 22 14 56 12 98 -6z m-107 -21 c13
-17 13 -17 -6 -3 -11 8 -22 16 -24 17 -2 2 0 3 6 3 6 0 17 -8 24 -17z m-25
-44 c19 -22 19 -22 -3 -8 -13 8 -23 17 -23 21 0 12 6 9 26 -13z m64 11 c0 -5
-2 -10 -4 -10 -3 0 -8 5 -11 10 -3 6 -1 10 4 10 6 0 11 -4 11 -10z m2294 -15
c-6 -16 -24 -21 -24 -7 0 11 11 22 21 22 5 0 6 -7 3 -15z m66 -5 c0 -5 -7 -10
-15 -10 -8 0 -15 5 -15 10 0 6 7 10 15 10 8 0 15 -4 15 -10z m-658 -90 c20 -6
47 -19 60 -30 22 -18 22 -19 3 -20 -11 -1 -28 -3 -38 -5 -9 -2 -15 1 -11 6 3
5 -19 20 -48 34 -40 19 -47 25 -28 25 14 0 42 -5 62 -10z m-2472 -35 c-10 -12
-10 -18 0 -30 10 -12 10 -21 1 -42 -6 -14 -15 -23 -18 -19 -4 3 -1 12 5 18 16
16 15 23 -4 42 -12 13 -13 18 -2 30 17 20 34 20 18 1z m3253 8 c-7 -2 -21 -2
-30 0 -10 3 -4 5 12 5 17 0 24 -2 18 -5z m-3383 -18 c0 -8 -4 -15 -10 -15 -5
0 -7 7 -4 15 4 8 8 15 10 15 2 0 4 -7 4 -15z m73 -27 c-17 -50 -28 -65 -18
-25 5 19 3 27 -5 27 -9 0 -7 7 5 20 28 31 34 24 18 -22z m3461 -28 c14 -5 30
-19 37 -32 11 -22 11 -22 -7 -7 -24 21 -71 29 -99 19 -12 -5 -28 -4 -36 0 -11
8 -11 10 1 14 8 2 22 7 30 9 24 9 47 8 74 -3z m-3580 -16 c20 -8 21 -24 2 -24
-8 0 -16 7 -20 15 -6 17 -4 18 18 9z m141 -40 c-9 -9 -19 -13 -23 -10 -3 4 0
11 8 16 24 15 33 11 15 -6z m2852 -30 c-3 -3 -12 -4 -19 -1 -8 3 -5 6 6 6 11
1 17 -2 13 -5z"/>
<path d="M1405 3700 c-3 -5 -1 -10 4 -10 6 0 11 5 11 10 0 6 -2 10 -4 10 -3 0
-8 -4 -11 -10z"/>
<path d="M1613 3595 c0 -8 4 -15 9 -15 4 0 8 7 8 15 0 8 -4 15 -8 15 -5 0 -9
-7 -9 -15z"/>
<path d="M1608 3413 c7 -3 16 -2 19 1 4 3 -2 6 -13 5 -11 0 -14 -3 -6 -6z"/>
<path d="M3435 3820 c3 -5 12 -10 20 -10 8 0 17 5 20 10 4 6 -5 10 -20 10 -15
0 -24 -4 -20 -10z"/>
<path d="M3430 3640 c0 -5 10 -10 23 -10 18 0 19 2 7 10 -19 13 -30 13 -30 0z"/>
<path d="M6125 3520 c-11 -5 -15 -9 -9 -9 7 -1 14 -10 17 -20 3 -12 13 -19 25
-18 23 1 19 17 -5 17 -10 0 -14 6 -10 20 3 11 4 20 4 19 -1 0 -11 -4 -22 -9z"/>
<path d="M5859 3518 c-5 -10 -5 -48 0 -48 3 0 15 8 26 16 20 16 19 16 -4 9
-20 -6 -23 -4 -18 9 5 13 1 24 -4 14z"/>
<path d="M5802 3485 c9 -10 21 -16 28 -13 7 2 -1 10 -16 17 -27 12 -28 11 -12
-4z"/>
<path d="M5910 3489 c0 -5 5 -7 10 -4 6 3 10 8 10 11 0 2 -4 4 -10 4 -5 0 -10
-5 -10 -11z"/>
<path d="M6375 3470 c3 -5 8 -10 11 -10 2 0 4 5 4 10 0 6 -5 10 -11 10 -5 0
-7 -4 -4 -10z"/>
<path d="M3980 3380 c0 -5 5 -10 10 -10 6 0 10 5 10 10 0 6 -4 10 -10 10 -5 0
-10 -4 -10 -10z"/>
<path d="M6726 3471 c-11 -4 -15 -10 -10 -13 5 -2 20 1 34 8 26 14 8 18 -24 5z"/>
<path d="M6675 3450 c-3 -5 1 -10 10 -10 9 0 13 5 10 10 -3 6 -8 10 -10 10 -2
0 -7 -4 -10 -10z"/>
<path d="M6620 3436 c0 -9 30 -14 35 -6 4 6 -3 10 -14 10 -12 0 -21 -2 -21 -4z"/>
<path d="M6685 3410 c-3 -5 -1 -10 4 -10 6 0 11 5 11 10 0 6 -2 10 -4 10 -3 0
-8 -4 -11 -10z"/>
<path d="M6650 3400 c0 -5 5 -10 10 -10 6 0 10 5 10 10 0 6 -4 10 -10 10 -5 0
-10 -4 -10 -10z"/>
<path d="M6753 3393 c9 -2 25 -2 35 0 9 3 1 5 -18 5 -19 0 -27 -2 -17 -5z"/>
<path d="M6777 3339 c7 -7 15 -10 18 -7 3 3 -2 9 -12 12 -14 6 -15 5 -6 -5z"/>
<path d="M6910 3296 c0 -2 7 -7 16 -10 8 -3 12 -2 9 4 -6 10 -25 14 -25 6z"/>
<path d="M6901 3184 c0 -11 3 -14 6 -6 3 7 2 16 -1 19 -3 4 -6 -2 -5 -13z"/>
<path d="M1400 3020 c0 -5 5 -10 10 -10 6 0 10 5 10 10 0 6 -4 10 -10 10 -5 0
-10 -4 -10 -10z"/>
<path d="M2580 2888 l0 -58 46 0 c43 0 46 2 40 23 -3 12 -6 36 -6 53 0 30 -3
32 -40 36 l-40 4 0 -58z"/>
<path d="M5334 2765 c35 -19 37 -19 30 0 -4 8 -18 15 -33 15 l-26 0 29 -15z"/>
<path d="M930 3090 c0 -5 7 -10 16 -10 8 0 12 5 9 10 -3 6 -10 10 -16 10 -5 0
-9 -4 -9 -10z"/>
<path d="M1040 3069 c0 -5 5 -7 10 -4 6 3 10 8 10 11 0 2 -4 4 -10 4 -5 0 -10
-5 -10 -11z"/>
<path d="M5086 3091 c-4 -5 -2 -12 3 -15 5 -4 12 -2 15 3 4 5 2 12 -3 15 -5 4
-12 2 -15 -3z"/>
<path d="M4908 2663 c6 -2 18 -2 25 0 6 3 1 5 -13 5 -14 0 -19 -2 -12 -5z"/>
<path d="M1978 2663 c7 -3 16 -2 19 1 4 3 -2 6 -13 5 -11 0 -14 -3 -6 -6z"/>
<path d="M2088 2643 c6 -2 18 -2 25 0 6 3 1 5 -13 5 -14 0 -19 -2 -12 -5z"/>
<path d="M4838 2043 c-10 -2 -18 -9 -18 -14 0 -6 8 -5 20 1 11 6 20 13 20 15
0 3 -1 4 -2 4 -2 -1 -11 -3 -20 -6z"/>
<path d="M4765 1990 c-3 -6 1 -7 9 -4 18 7 21 14 7 14 -6 0 -13 -4 -16 -10z"/>
<path d="M4897 1890 c-15 -16 -21 -30 -15 -30 18 1 43 22 51 43 10 26 -7 20
-36 -13z"/>
<path d="M4842 1810 l-1 -50 45 37 c55 46 61 75 8 43 -32 -20 -35 -21 -32 -5
2 10 -2 20 -9 22 -7 3 -11 -13 -11 -47z"/>
<path d="M4687 1829 c7 -7 15 -10 18 -7 3 3 -2 9 -12 12 -14 6 -15 5 -6 -5z"/>
<path d="M4734 1828 c-9 -14 -17 -218 -9 -218 12 0 84 63 90 78 3 8 0 19 -7
23 -9 6 -9 11 1 23 11 13 11 19 0 33 -11 13 -11 17 -1 20 14 5 17 43 3 43 -19
0 -30 -29 -32 -88 -1 -34 -8 -67 -14 -72 -19 -16 -23 6 -19 93 4 76 2 88 -12
65z"/>
<path d="M4893 1787 c-13 -13 -23 -31 -23 -40 0 -16 3 -15 30 5 17 12 30 30
30 40 0 23 -10 22 -37 -5z"/>
<path d="M4837 1737 c-11 -29 -9 -43 4 -30 6 6 9 19 7 29 -3 18 -4 18 -11 1z"/>
<path d="M3971 1944 c0 -11 3 -14 6 -6 3 7 2 16 -1 19 -3 4 -6 -2 -5 -13z"/>
<path d="M5873 1978 c-25 -33 -25 -40 0 -22 27 19 34 34 18 34 -5 0 -13 -6
-18 -12z"/>
<path d="M4361 1751 c0 -8 -9 -20 -18 -27 -10 -7 -14 -16 -10 -20 12 -12 39
22 34 42 -3 11 -5 13 -6 5z"/>
<path d="M3410 1626 c0 -2 9 -6 20 -9 11 -3 18 -1 14 4 -5 9 -34 13 -34 5z"/>
<path d="M3528 1613 c7 -3 16 -2 19 1 4 3 -2 6 -13 5 -11 0 -14 -3 -6 -6z"/>
<path d="M3618 1603 c12 -2 30 -2 40 0 9 3 -1 5 -23 4 -22 0 -30 -2 -17 -4z"/>
<path d="M3498 1583 c7 -3 16 -2 19 1 4 3 -2 6 -13 5 -11 0 -14 -3 -6 -6z"/>
<path d="M3549 1577 c5 -5 19 -7 32 -5 20 3 19 5 -9 9 -20 3 -29 2 -23 -4z"/>
<path d="M3771 3988 c0 -7 4 -22 9 -33 7 -17 9 -15 9 13 1 17 -3 32 -9 32 -5
0 -10 -6 -9 -12z"/>
<path d="M6330 3950 c0 -5 5 -10 11 -10 5 0 7 5 4 10 -3 6 -8 10 -11 10 -2 0
-4 -4 -4 -10z"/>
<path d="M4101 3934 c0 -11 3 -14 6 -6 3 7 2 16 -1 19 -3 4 -6 -2 -5 -13z"/>
<path d="M5520 3910 c0 -29 4 -40 15 -40 16 0 19 20 9 58 -10 36 -24 25 -24
-18z"/>
<path d="M5422 3893 c2 -10 12 -18 23 -18 11 0 21 8 23 18 3 13 -3 17 -23 17
-20 0 -26 -4 -23 -17z"/>
<path d="M6350 3890 c0 -5 7 -10 16 -10 8 0 12 5 9 10 -3 6 -10 10 -16 10 -5
0 -9 -4 -9 -10z"/>
<path d="M7097 3759 c4 -12 11 -18 20 -15 8 3 19 6 24 6 5 0 9 7 9 15 0 8 -7
15 -16 15 -8 0 -13 -4 -9 -9 3 -5 1 -12 -5 -16 -5 -3 -10 1 -10 9 0 9 -4 16
-9 16 -5 0 -7 -9 -4 -21z"/>
<path d="M4060 3668 c0 -6 3 -8 7 -5 3 4 15 0 25 -10 22 -20 24 -11 2 11 -18
19 -34 21 -34 4z"/>
<path d="M7030 3375 c-14 -8 -20 -14 -15 -14 6 0 21 6 35 14 14 8 21 14 15 14
-5 0 -21 -6 -35 -14z"/>
<path d="M7065 2880 c-3 -5 -1 -10 4 -10 6 0 11 5 11 10 0 6 -2 10 -4 10 -3 0
-8 -4 -11 -10z"/>
<path d="M7040 2849 c0 -5 5 -7 10 -4 6 3 10 8 10 11 0 2 -4 4 -10 4 -5 0 -10
-5 -10 -11z"/>
<path d="M7120 2660 c0 -5 7 -10 15 -10 8 0 15 5 15 10 0 6 -7 10 -15 10 -8 0
-15 -4 -15 -10z"/>
<path d="M6862 2630 c-25 -24 -28 -48 -9 -75 11 -15 26 -18 78 -16 35 1 80 3
100 5 30 4 36 1 32 -12 -3 -14 3 -17 29 -17 24 0 33 -5 36 -19 3 -16 -1 -17
-36 -11 -27 4 -42 2 -47 -5 -10 -16 13 -30 47 -30 28 0 50 -21 30 -28 -6 -2
-10 -9 -8 -15 1 -7 1 -9 -1 -4 -6 10 -103 9 -103 -2 0 -11 88 -34 101 -26 9 6
13 -14 9 -50 -1 -16 1 -18 11 -8 9 9 14 59 17 163 4 141 3 150 -13 143 -12 -4
-16 -3 -12 4 7 11 -13 23 -40 23 -11 0 -13 -4 -6 -12 6 -7 13 -24 16 -38 6
-25 6 -25 -11 -4 -18 22 -117 54 -168 54 -17 0 -40 -9 -52 -20z"/>
<path d="M2649 2625 c-3 -2 0 -60 7 -127 6 -68 10 -126 8 -130 -8 -12 12 -17
92 -23 43 -3 87 -8 97 -11 16 -5 17 1 13 58 -3 35 -5 95 -6 134 l0 71 -87 12
c-49 7 -95 15 -104 17 -8 2 -18 2 -20 -1z m64 -172 c-7 -2 -19 -2 -25 0 -7 3
-2 5 12 5 14 0 19 -2 13 -5z"/>
<path d="M6840 2469 c0 -5 5 -7 10 -4 6 3 10 8 10 11 0 2 -4 4 -10 4 -5 0 -10
-5 -10 -11z"/>
<path d="M6642 2390 c-6 -11 -12 -36 -12 -55 0 -27 4 -35 18 -35 25 0 51 20
35 27 -8 2 -13 22 -13 44 0 43 -9 49 -28 19z"/>
<path d="M2667 2294 c-3 -4 8 -141 18 -211 4 -36 11 -49 23 -50 44 -3 120 -15
150 -23 l33 -9 -6 127 c-4 70 -9 129 -11 131 -5 5 -23 10 -65 16 -14 2 -52 8
-82 13 -31 5 -58 8 -60 6z"/>
<path d="M7030 2289 c0 -7 -15 -10 -39 -7 -32 3 -41 0 -44 -14 -6 -21 -3 -23
41 -33 21 -4 38 -2 47 5 17 14 20 60 5 60 -5 0 -10 -5 -10 -11z"/>
<path d="M6720 2264 c0 -8 5 -12 10 -9 6 3 10 10 10 16 0 5 -4 9 -10 9 -5 0
-10 -7 -10 -16z"/>
<path d="M7030 2210 c-7 -14 -18 -15 -59 -10 -44 6 -51 4 -51 -11 0 -19 19
-29 55 -29 13 0 27 -4 30 -10 3 -5 1 -10 -5 -10 -6 0 -9 -4 -6 -9 4 -5 1 -11
-6 -13 -12 -4 -16 -63 -5 -75 4 -4 13 -1 19 5 21 21 28 13 28 -34 0 -43 -1
-46 -23 -40 -21 5 -27 -2 -56 -69 -18 -41 -31 -82 -27 -90 3 -9 2 -13 -4 -10
-5 3 -18 -15 -29 -40 -11 -25 -25 -45 -30 -45 -6 0 -11 -4 -11 -9 0 -10 75
-23 143 -25 26 0 47 -4 47 -7 0 -7 100 -32 106 -26 3 2 -7 8 -22 11 -24 6 -26
10 -21 43 7 38 -10 62 -44 63 -9 0 -20 7 -23 16 -3 8 -2 13 2 10 4 -2 14 -1
22 5 13 7 13 9 0 9 -13 0 -13 1 0 10 8 5 23 7 33 4 12 -4 26 2 38 15 17 18 19
37 19 196 0 133 -3 175 -12 175 -7 1 -32 5 -56 9 -35 7 -44 6 -52 -9z m24 -32
c-4 -13 -7 -26 -6 -30 3 -12 -16 -10 -23 2 -6 9 26 62 33 55 2 -2 0 -14 -4
-27z"/>
<path d="M3794 2071 c1 -23 6 -31 19 -31 14 0 16 4 8 18 -25 42 -28 44 -27 13z"/>
<path d="M3465 2037 c-4 -10 -5 -21 -1 -24 10 -10 18 4 13 24 -4 17 -4 17 -12
0z"/>
<path d="M3800 2019 c0 -5 5 -7 10 -4 6 3 10 8 10 11 0 2 -4 4 -10 4 -5 0 -10
-5 -10 -11z"/>
<path d="M2718 2013 c7 -3 16 -2 19 1 4 3 -2 6 -13 5 -11 0 -14 -3 -6 -6z"/>
<path d="M2763 2002 c-7 -4 6 -8 30 -9 31 -1 37 1 22 7 -26 11 -37 11 -52 2z"/>
<path d="M2694 1909 c17 -185 16 -184 40 -186 11 -1 56 -8 99 -16 l78 -14 -5
61 c-3 34 -5 89 -6 122 l0 62 -72 15 c-40 9 -88 19 -107 22 l-34 7 7 -73z"/>
<path d="M6679 1828 c-5 -124 -4 -168 1 -168 9 0 20 78 20 141 0 48 -19 72
-21 27z"/>
<path d="M6820 1804 c0 -8 5 -12 10 -9 6 3 10 10 10 16 0 5 -4 9 -10 9 -5 0
-10 -7 -10 -16z"/>
<path d="M7133 1813 c-18 -7 -16 -33 2 -33 8 0 15 9 15 20 0 11 -1 20 -2 19
-2 0 -9 -3 -15 -6z"/>
<path d="M6426 1784 c-4 -9 -4 -19 -1 -22 2 -3 7 3 11 12 4 9 4 19 1 22 -2 3
-7 -3 -11 -12z"/>
<path d="M6776 1716 c-9 -19 -16 -38 -16 -43 0 -4 -8 -17 -17 -28 -14 -19 -15
-17 -9 28 3 28 2 47 -4 47 -6 0 -10 -13 -10 -29 0 -32 -15 -47 -42 -43 -16 3
-18 -7 -18 -91 0 -70 -4 -98 -14 -106 -12 -10 -13 -8 -9 8 3 12 1 21 -6 21
-14 0 -14 -15 -1 -60 7 -23 6 -36 -1 -40 -5 -4 -11 -29 -13 -56 -2 -36 -7 -50
-19 -52 -10 -2 -20 -19 -25 -40 -5 -20 -14 -59 -21 -86 -15 -61 -9 -70 9 -14
8 24 20 50 27 59 7 8 13 28 13 42 0 17 5 27 14 27 16 0 16 -34 1 -137 -7 -47
-10 -51 -26 -42 -26 14 -25 -7 1 -23 24 -15 27 -66 5 -74 -18 -7 -20 -30 -2
-37 9 -4 9 -8 -1 -15 -8 -5 -12 -22 -10 -38 3 -28 4 -29 58 -27 30 1 62 4 71
8 14 5 15 1 8 -37 -4 -24 -8 -45 -9 -48 0 -4 -16 -12 -35 -18 -29 -11 -39 -10
-64 3 -17 8 -32 15 -34 15 -3 0 -4 -33 -3 -72 1 -92 -1 -90 179 -114 37 -5 44
-9 32 -18 -9 -7 -12 -19 -9 -33 7 -25 41 -39 122 -49 55 -7 62 -13 37 -34 -8
-7 -15 -23 -15 -36 0 -12 -4 -26 -10 -29 -5 -3 -10 -1 -10 4 0 6 -6 11 -14 11
-19 0 -48 -47 -56 -92 -7 -38 -7 -38 34 -49 22 -5 49 -13 59 -15 20 -6 50 13
41 27 -3 5 2 9 10 9 15 0 66 42 66 54 0 4 -9 4 -21 1 -19 -6 -20 -3 -18 33 2
27 -2 45 -14 56 -23 23 -21 43 3 51 23 7 25 18 10 46 -11 20 -50 27 -50 9 0
-5 -6 -10 -12 -10 -7 0 2 13 20 29 26 24 38 29 66 24 31 -5 34 -3 39 23 3 16
11 51 17 78 10 40 10 50 -1 57 -10 6 -11 9 -1 9 29 0 10 36 -30 56 -34 16 -42
25 -40 42 2 12 -2 22 -7 22 -6 0 -11 5 -11 11 0 7 10 9 26 5 20 -5 27 -3 31
14 8 29 23 25 29 -9 4 -20 13 -30 30 -34 17 -3 21 -1 15 7 -5 6 -6 30 -1 56 5
29 4 52 -3 65 -6 11 -10 29 -10 40 1 16 1 16 -3 3 -3 -10 -13 -18 -21 -18 -9
0 -22 8 -29 18 -10 12 -16 14 -21 6 -5 -7 -23 -10 -41 -8 -40 5 -54 12 -47 25
4 5 -1 9 -10 9 -11 0 -14 -6 -9 -24 5 -21 3 -23 -21 -18 -20 3 -25 9 -22 23 3
11 1 19 -4 19 -5 0 -9 7 -9 16 0 13 -3 14 -14 5 -8 -7 -26 -10 -40 -9 -27 4
-48 18 -26 18 10 0 11 3 3 11 -15 15 -33 3 -33 -21 0 -17 -5 -19 -47 -14 -27
3 -50 8 -52 10 -3 2 1 41 8 87 11 76 15 103 19 165 2 19 5 21 20 13 14 -7 18
-6 18 9 0 10 -5 18 -11 17 -10 -2 -10 5 -1 103 5 63 8 72 47 157 29 63 45 113
36 113 -2 0 -12 -15 -21 -34z m-79 -108 c-3 -8 -6 -5 -6 6 -1 11 2 17 5 13 3
-3 4 -12 1 -19z m3 -35 c0 -5 -5 -15 -10 -23 -8 -12 -10 -11 -10 8 0 12 5 22
10 22 6 0 10 -3 10 -7z m90 -513 c0 -6 -7 -26 -14 -45 -15 -35 -31 -45 -38
-24 -4 12 -48 -67 -48 -87 0 -9 -12 -14 -35 -14 -33 0 -35 2 -34 33 0 17 4 55
7 82 l7 50 65 6 c36 3 71 6 78 7 6 1 12 -3 12 -8z m55 -40 c3 -6 -1 -7 -9 -4
-18 7 -21 14 -7 14 6 0 13 -4 16 -10z m52 -25 c-4 -8 -2 -17 3 -20 6 -4 7 -17
4 -31 -4 -16 -1 -26 9 -30 9 -3 18 -11 20 -18 4 -10 -4 -11 -36 -5 -23 5 -49
9 -57 9 -10 1 -11 3 -3 6 7 3 9 12 6 20 -3 8 1 14 10 14 10 0 18 13 23 35 3
19 11 35 16 35 6 0 8 -7 5 -15z m67 -51 c3 -8 2 -12 -4 -9 -6 3 -10 10 -10 16
0 14 7 11 14 -7z m1 -34 c3 -5 1 -10 -4 -10 -6 0 -11 5 -11 10 0 6 2 10 4 10
3 0 8 -4 11 -10z m-37 -70 c46 -24 43 -24 -53 -4 -42 9 -83 13 -91 10 -15 -6
-19 5 -6 18 12 13 111 -3 150 -24z m-163 -60 c3 -6 -1 -7 -9 -4 -18 7 -21 14
-7 14 6 0 13 -4 16 -10z m233 -87 c2 -9 -6 -12 -25 -11 -36 2 -45 7 -37 19 8
14 56 7 62 -8z m-73 -24 c-4 -5 -11 -9 -17 -9 -6 0 -8 3 -5 7 4 3 1 13 -6 21
-10 13 -9 14 11 3 12 -7 20 -16 17 -22z m-83 9 c-5 -7 -12 -24 -15 -38 l-4
-25 -8 23 c-6 17 -13 21 -27 16 -17 -5 -18 -4 -6 15 8 13 23 21 42 21 21 0 26
-3 18 -12z m-246 -25 c-10 -10 -19 5 -10 18 6 11 8 11 12 0 2 -7 1 -15 -2 -18z
m258 -9 c3 -8 2 -12 -4 -9 -6 3 -10 10 -10 16 0 14 7 11 14 -7z m86 -4 c0 -5
-4 -10 -10 -10 -5 0 -10 5 -10 10 0 6 5 10 10 10 6 0 10 -4 10 -10z m-43 -56
c-3 -3 -12 -4 -19 -1 -8 3 -5 6 6 6 11 1 17 -2 13 -5z"/>
<path d="M6760 1039 c0 -5 5 -7 10 -4 6 3 10 8 10 11 0 2 -4 4 -10 4 -5 0 -10
-5 -10 -11z"/>
<path d="M6451 1694 c0 -11 3 -14 6 -6 3 7 2 16 -1 19 -3 4 -6 -2 -5 -13z"/>
<path d="M6365 1659 c-9 -17 -15 -33 -13 -35 3 -2 12 12 21 31 21 43 13 47 -8
4z"/>
<path d="M6485 1680 c3 -5 11 -10 16 -10 6 0 7 5 4 10 -3 6 -11 10 -16 10 -6
0 -7 -4 -4 -10z"/>
<path d="M2707 1658 c6 -7 13 -60 17 -118 3 -58 6 -106 6 -107 0 -2 13 -3 29
-3 17 0 33 -5 36 -10 4 -6 10 -8 14 -6 4 3 33 -1 64 -8 l57 -13 -6 111 c-4 61
-9 114 -13 117 -8 8 -171 49 -195 49 -13 0 -16 -3 -9 -12z"/>
<path d="M6777 1506 c-20 -49 -35 -91 -33 -93 5 -5 46 80 46 96 0 5 7 17 16
25 8 9 14 26 12 38 -2 16 -14 -4 -41 -66z"/>
<path d="M1298 1533 c7 -3 16 -2 19 1 4 3 -2 6 -13 5 -11 0 -14 -3 -6 -6z"/>
<path d="M6242 1438 c-1 -28 0 -29 13 -12 18 24 18 31 1 37 -9 4 -13 -4 -14
-25z"/>
<path d="M3270 1414 c0 -9 71 -41 75 -33 4 5 10 7 15 4 5 -3 11 -1 14 3 3 5
-19 13 -49 19 -30 5 -55 9 -55 7z"/>
<path d="M3674 1392 c3 -6 -2 -13 -11 -15 -16 -4 -16 -5 -1 -6 21 -1 32 15 17
25 -7 4 -9 3 -5 -4z"/>
<path d="M3475 1360 c11 -5 29 -9 40 -9 l20 0 -20 9 c-11 5 -29 9 -40 9 l-20
0 20 -9z"/>
<path d="M6755 1350 c-3 -5 3 -10 14 -10 11 0 23 5 26 10 3 6 -3 10 -14 10
-11 0 -23 -4 -26 -10z"/>
<path d="M605 1280 c-3 -6 -17 -7 -31 -4 -14 4 -31 1 -40 -7 -18 -14 -54 -86
-54 -106 0 -8 -12 -30 -27 -49 -25 -30 -33 -34 -76 -34 -45 0 -54 -5 -133 -71
-47 -39 -120 -98 -162 -132 -42 -33 -79 -62 -81 -64 -2 -1 -2 -6 1 -9 8 -7 61
31 170 124 62 52 91 71 104 66 12 -4 15 -3 7 3 -7 5 -9 13 -5 18 12 18 62 46
62 35 0 -6 25 -10 58 -10 69 0 94 14 191 105 69 66 87 95 56 95 -9 0 -15 9
-15 25 0 25 -14 33 -25 15z m-40 -50 c-10 -11 -20 -18 -23 -15 -7 6 18 35 31
35 5 0 2 -9 -8 -20z"/>
<path d="M3368 1253 c7 -3 16 -2 19 1 4 3 -2 6 -13 5 -11 0 -14 -3 -6 -6z"/>
<path d="M3408 1243 c7 -3 16 -2 19 1 4 3 -2 6 -13 5 -11 0 -14 -3 -6 -6z"/>
<path d="M3491 1221 c9 -6 35 -13 57 -16 23 -2 60 -9 84 -15 24 -5 52 -9 63
-9 24 1 -123 37 -180 45 -30 4 -36 3 -24 -5z"/>
<path d="M3310 1180 c8 -5 24 -10 34 -10 26 0 18 6 -19 14 -22 5 -26 4 -15 -4z"/>
<path d="M3728 1173 c7 -3 16 -2 19 1 4 3 -2 6 -13 5 -11 0 -14 -3 -6 -6z"/>
<path d="M6105 1169 c-4 -6 -5 -12 -2 -15 2 -3 7 2 10 11 7 17 1 20 -8 4z"/>
<path d="M1980 1160 c0 -5 5 -10 11 -10 5 0 7 5 4 10 -3 6 -8 10 -11 10 -2 0
-4 -4 -4 -10z"/>
<path d="M3378 1163 c6 -2 18 -2 25 0 6 3 1 5 -13 5 -14 0 -19 -2 -12 -5z"/>
<path d="M3768 1163 c7 -3 16 -2 19 1 4 3 -2 6 -13 5 -11 0 -14 -3 -6 -6z"/>
<path d="M6811 1154 c0 -11 3 -14 6 -6 3 7 2 16 -1 19 -3 4 -6 -2 -5 -13z"/>
<path d="M3428 1153 c7 -3 16 -2 19 1 4 3 -2 6 -13 5 -11 0 -14 -3 -6 -6z"/>
<path d="M3808 1153 c6 -2 18 -2 25 0 6 3 1 5 -13 5 -14 0 -19 -2 -12 -5z"/>
<path d="M3468 1143 c7 -3 16 -2 19 1 4 3 -2 6 -13 5 -11 0 -14 -3 -6 -6z"/>
<path d="M3520 1130 c34 -11 60 -11 35 0 -11 5 -29 8 -40 8 -16 0 -15 -2 5 -8z"/>
<path d="M3640 1100 c34 -11 60 -11 35 0 -11 5 -29 8 -40 8 -16 0 -15 -2 5 -8z"/>
<path d="M832 1068 c6 -18 28 -21 28 -4 0 9 -7 16 -16 16 -9 0 -14 -5 -12 -12z"/>
<path d="M6050 1072 c0 -7 -6 -12 -14 -12 -8 0 -18 -5 -22 -12 -4 -7 -3 -8 4
-4 16 9 15 -3 -1 -34 -62 -116 -104 -193 -129 -238 -16 -30 -28 -56 -26 -58 3
-2 42 65 88 149 109 198 113 207 106 214 -3 4 -6 1 -6 -5z"/>
<path d="M6512 1036 c-12 -24 -22 -53 -22 -65 0 -11 -4 -21 -10 -21 -5 0 -15
-18 -21 -40 -7 -22 -18 -45 -26 -51 -7 -6 -13 -17 -13 -25 0 -18 -82 -208 -92
-212 -4 -2 -8 -10 -8 -17 0 -13 -16 -50 -92 -215 -19 -41 -64 -140 -99 -220
-64 -146 -81 -159 -61 -51 9 48 8 51 -9 46 -14 -5 -19 -1 -19 14 0 16 -6 21
-24 21 -18 0 -24 -5 -23 -19 0 -11 6 -19 12 -18 5 1 9 -7 8 -18 -2 -28 -5
-107 -4 -127 1 -21 27 -24 34 -5 4 9 6 9 6 0 1 -7 7 -13 15 -13 15 0 63 93
100 197 14 40 39 99 56 132 17 34 31 64 31 68 1 5 10 26 20 48 85 189 109 241
147 313 23 46 42 92 42 101 0 9 4 21 9 27 10 11 73 185 68 190 -2 2 -13 -16
-25 -40z"/>
<path d="M2113 1042 c12 -15 49 -12 54 5 3 8 -8 11 -30 10 -28 -2 -33 -5 -24
-15z"/>
<path d="M830 1030 c0 -5 4 -10 9 -10 6 0 13 5 16 10 3 6 -1 10 -9 10 -9 0
-16 -4 -16 -10z"/>
<path d="M850 995 c-14 -16 -10 -18 14 -9 9 3 16 10 16 15 0 14 -16 11 -30 -6z"/>
<path d="M1735 934 c-38 -19 -59 -40 -48 -47 13 -8 104 34 100 46 -5 17 -20
18 -52 1z"/>
<path d="M620 871 c-11 -28 -3 -64 13 -62 4 1 7 -1 7 -4 0 -3 0 -8 0 -12 0 -3
-9 2 -20 12 -17 16 -20 16 -20 2 0 -19 40 -34 50 -18 3 7 13 10 21 8 8 -2 11
-2 7 0 -5 3 -3 13 2 24 8 15 7 17 -5 13 -8 -3 -12 -10 -9 -15 3 -5 0 -9 -5 -9
-14 0 -14 6 -1 30 8 14 7 25 -2 40 -17 27 -23 25 -38 -9z"/>
<path d="M3140 862 c0 -34 14 -43 24 -15 4 9 0 23 -9 32 -13 14 -15 12 -15
-17z"/>
<path d="M3045 860 c-10 -11 -15 -20 -11 -20 4 0 1 -10 -5 -22 -11 -21 -11
-21 19 3 17 13 31 32 31 42 1 23 -12 22 -34 -3z"/>
<path d="M2962 796 c-24 -23 -21 -36 9 -36 17 0 29 19 29 46 0 19 -11 17 -38
-10z"/>
<path d="M7126 708 c-9 -62 -23 -138 -31 -168 -14 -57 -30 -154 -40 -253 -4
-33 -12 -60 -20 -63 -7 -3 -61 8 -121 24 -60 16 -164 44 -231 62 -68 18 -123
37 -123 42 0 4 5 8 10 8 6 0 10 7 10 15 0 8 5 15 11 15 6 0 8 -9 4 -20 -10
-31 2 -24 19 12 18 36 20 52 6 43 -5 -3 -10 -2 -10 3 0 5 -9 12 -20 15 -12 3
-20 14 -20 26 0 12 -7 24 -16 28 -19 7 -36 -15 -29 -38 3 -9 -1 -22 -10 -29
-24 -20 -18 -49 11 -61 37 -13 25 -21 -15 -9 -35 10 -35 9 -45 -50 l-6 -36 62
-13 c35 -7 92 -21 128 -32 36 -10 135 -37 220 -58 131 -34 155 -43 153 -58 -1
-10 -3 -29 -5 -42 -3 -21 3 -25 65 -40 l67 -17 0 403 c0 222 -1 403 -3 403 -2
0 -11 -51 -21 -112z"/>
<path d="M687 776 c-20 -12 -40 -26 -44 -30 -10 -10 48 13 62 24 11 9 15 10
43 10 14 0 15 2 2 10 -20 13 -19 13 -63 -14z"/>
<path d="M2769 797 c-6 -12 -4 -58 3 -79 13 -37 29 -36 22 2 -4 18 -1 36 6 45
7 9 10 19 6 22 -6 6 -35 14 -37 10z"/>
<path d="M2655 750 c3 -5 10 -10 16 -10 5 0 9 5 9 10 0 6 -7 10 -16 10 -8 0
-12 -4 -9 -10z"/>
<path d="M2669 709 c-9 -17 -8 -23 2 -30 17 -11 40 16 32 37 -7 20 -21 17 -34
-7z"/>
<path d="M2 614 c0 -56 4 -94 10 -94 21 0 77 32 104 61 26 27 27 32 13 42 -9
7 -18 21 -20 31 -3 13 -22 25 -55 37 l-51 17 -1 -94z"/>
<path d="M5836 685 c-9 -26 -7 -32 5 -12 6 10 9 21 6 23 -2 3 -7 -2 -11 -11z"/>
<path d="M2822 668 c4 -30 23 -33 23 -3 0 14 -6 25 -13 25 -8 0 -12 -9 -10
-22z"/>
<path d="M2574 644 c-18 -14 -18 -15 4 -4 12 6 22 13 22 15 0 8 -5 6 -26 -11z"/>
<path d="M2664 638 c3 -13 6 -27 6 -31 0 -5 5 -5 10 -2 17 10 12 55 -6 55 -12
0 -15 -6 -10 -22z"/>
<path d="M5796 603 c-6 -14 -5 -15 5 -6 7 7 10 15 7 18 -3 3 -9 -2 -12 -12z"/>
<path d="M2723 602 c-13 -2 -23 -8 -23 -13 0 -12 47 -12 55 0 7 13 -5 18 -32
13z"/>
<path d="M2386 585 c4 -10 0 -15 -12 -16 -11 -1 -5 -5 14 -12 48 -15 65 6 23
27 -26 14 -30 14 -25 1z"/>
<path d="M6681 564 c0 -11 3 -14 6 -6 3 7 2 16 -1 19 -3 4 -6 -2 -5 -13z"/>
<path d="M6040 475 c5 -14 7 -32 3 -41 -6 -17 15 -36 30 -27 5 3 3 9 -4 14 -8
5 -12 22 -11 44 3 26 0 35 -12 35 -12 0 -14 -5 -6 -25z"/>
<path d="M6660 468 c-14 -6 -20 -12 -13 -15 7 -2 9 -11 6 -19 -3 -7 2 -17 11
-20 22 -8 20 -41 -3 -53 -10 -6 -21 -7 -25 -4 -3 3 -6 1 -6 -5 0 -6 14 -13 31
-17 22 -5 36 -2 51 12 20 18 21 18 14 -2 -5 -17 0 -23 29 -34 28 -10 39 -10
50 -1 18 15 20 50 4 50 -6 0 -9 7 -5 15 8 22 -14 65 -35 65 -15 0 -31 -20 -33
-42 -1 -5 -4 -8 -8 -8 -5 0 -14 0 -21 0 -9 0 -12 9 -9 29 6 43 -7 61 -38 49z
m110 -108 c0 -13 -6 -20 -17 -19 -11 0 -13 3 -5 6 6 2 12 11 12 19 0 8 2 14 5
14 3 0 5 -9 5 -20z"/>
<path d="M2432 444 c2 -15 9 -29 16 -32 10 -3 13 4 10 24 -2 15 -9 29 -16 32
-10 3 -13 -4 -10 -24z"/>
<path d="M5657 406 c-4 -9 -2 -16 3 -16 13 0 7 -14 -87 -208 -47 -96 -82 -176
-79 -179 3 -3 40 66 82 153 42 88 84 175 95 195 15 30 16 39 5 54 -12 16 -13
16 -19 1z"/>
<path d="M6024 378 c3 -13 6 -56 6 -95 0 -58 3 -73 15 -73 16 0 20 12 8 24 -7
7 -6 95 3 139 5 23 2 27 -16 27 -18 0 -21 -4 -16 -22z"/>
<path d="M5907 321 c7 -27 -27 -35 -88 -21 -80 19 -66 6 19 -19 42 -12 96 -28
120 -35 23 -7 42 -10 42 -6 0 4 -9 10 -20 13 -16 4 -19 11 -15 30 8 29 -9 44
-30 27 -12 -10 -15 -9 -15 3 0 9 -4 18 -9 21 -5 4 -7 -3 -4 -13z m47 -36 c-4
-8 -12 -15 -20 -15 -17 0 -18 17 -1 23 22 9 27 7 21 -8z"/>
<path d="M5737 246 c-4 -9 -10 -15 -14 -13 -5 3 -8 -5 -8 -18 0 -22 1 -23 20
-7 11 9 21 17 21 17 1 0 -2 9 -6 19 -6 18 -7 18 -13 2z"/>
<path d="M385 170 c-3 -5 1 -10 10 -10 9 0 13 5 10 10 -3 6 -8 10 -10 10 -2 0
-7 -4 -10 -10z"/>
<path d="M995 159 c-4 -6 -5 -13 -2 -16 7 -7 27 6 27 18 0 12 -17 12 -25 -2z"/>
<path d="M5736 135 c-8 -22 -8 -21 10 -39 12 -13 20 -14 36 -5 18 10 20 9 15
-5 -3 -8 -2 -18 4 -21 5 -4 12 1 15 9 3 9 10 13 15 10 10 -6 11 -3 13 39 1 16
-3 27 -11 27 -7 0 -13 -5 -13 -11 0 -11 -28 -9 -61 5 -11 5 -19 1 -23 -9z"/>
<path d="M987 103 c-4 -3 -7 -11 -7 -17 0 -6 5 -5 12 2 6 6 9 14 7 17 -3 3 -9
2 -12 -2z"/>
<path d="M875 80 c-18 -8 -17 -9 8 -9 15 -1 27 4 27 9 0 12 -8 12 -35 0z"/>
<path d="M1865 60 c-3 -5 7 -15 22 -21 15 -6 37 -16 48 -21 19 -10 19 -10 2 8
-10 10 -25 19 -35 19 -9 0 -16 6 -14 13 2 14 -14 16 -23 2z"/>
<path d="M5756 38 c6 -22 21 -38 36 -38 9 0 -1 29 -15 48 -16 20 -29 14 -21
-10z"/>
<path d="M6131 33 c0 -16 3 -22 6 -13 3 8 10 21 16 28 7 8 5 12 -7 12 -11 0
-16 -8 -15 -27z"/>
<path d="M6987 33 c-13 -13 -7 -32 8 -27 8 4 15 12 15 20 0 15 -12 19 -23 7z"/>
<path d="M1875 16 c11 -8 29 -15 40 -15 16 0 17 1 5 8 -8 5 -26 12 -40 16 -24
7 -24 7 -5 -9z"/>
<path d="M6682 14 c30 -16 78 -15 78 1 0 7 -21 12 -52 13 -52 1 -52 0 -26 -14z"/>
<path d="M248 3 c6 -2 18 -2 25 0 6 3 1 5 -13 5 -14 0 -19 -2 -12 -5z"/>
</g>
</svg>
