<?xml version="1.0" standalone="no"?>
<!DOCTYPE svg PUBLIC "-//W3C//DTD SVG 20010904//EN"
 "http://www.w3.org/TR/2001/REC-SVG-20010904/DTD/svg10.dtd">
<svg version="1.0" xmlns="http://www.w3.org/2000/svg"
 width="480.000000pt" height="360.000000pt" viewBox="0 0 480.000000 360.000000"
 preserveAspectRatio="xMidYMid meet">

<g transform="translate(0.000000,360.000000) scale(0.100000,-0.100000)"
fill="#000000" stroke="none">
<path d="M0 1800 l0 -1800 2400 0 2400 0 0 1800 0 1800 -2400 0 -2400 0 0
-1800z m827 1087 c40 -15 97 -67 117 -109 56 -110 -25 -250 -161 -278 -107
-23 -213 24 -257 112 -45 89 -27 173 49 234 50 39 89 52 160 52 33 0 74 -5 92
-11z m-419 -112 c72 -3 87 -13 78 -49 -6 -25 -10 -26 -71 -26 -35 0 -67 -4
-70 -10 -20 -32 -85 18 -85 65 0 31 10 37 50 29 19 -3 63 -8 98 -9z m3615
-327 l-32 -31 32 -16 32 -16 3 -112 c2 -102 1 -114 -18 -133 -24 -24 -67 -26
-92 -3 -15 14 -18 32 -18 124 0 116 4 139 27 139 7 0 13 6 11 13 -5 22 36 66
62 67 l25 0 -32 -32z m-3299 -38 l31 0 0 -117 c0 -135 17 -199 82 -318 21 -39
45 -83 53 -100 24 -47 152 -170 226 -218 128 -83 289 -157 341 -157 33 0 116
61 143 104 11 19 30 60 42 92 21 55 22 80 26 387 l3 327 335 0 335 0 -3 -107
-3 -108 -166 -3 c-192 -3 -179 5 -179 -112 0 -117 -11 -109 167 -112 l155 -3
0 -92 c0 -102 -4 -115 -35 -112 -12 0 -82 1 -154 0 l-133 -1 0 -117 c0 -65 4
-124 8 -130 6 -9 60 -13 192 -15 l185 -3 1 -50 c2 -75 2 -75 27 -76 l22 -2
-22 -4 c-16 -3 -23 -11 -23 -28 0 -13 -4 -27 -10 -30 -11 -7 -961 -8 -967 -1
-3 2 -5 39 -6 82 l-2 78 -74 28 c-110 40 -214 95 -313 165 -49 34 -98 68 -111
74 -20 11 -56 46 -97 96 -41 49 -93 139 -121 209 -28 71 -31 93 -36 223 -5
116 -3 145 8 152 8 5 20 7 27 4 8 -3 28 -5 46 -5z m2416 -21 c0 -5 -9 -9 -20
-9 -18 0 -20 -8 -22 -127 -3 -106 -6 -128 -18 -128 -12 0 -15 22 -18 128 -2
119 -4 127 -22 127 -30 0 -24 18 8 22 40 4 92 -3 92 -13z m-552 -124 c-2 -82
-7 -135 -13 -135 -6 0 -11 53 -13 135 -2 117 0 135 13 135 13 0 15 -18 13
-135z m193 100 c11 -49 10 -192 -1 -220 -19 -51 -30 -14 -30 105 0 65 -4 121
-9 124 -5 4 -16 3 -25 0 -13 -5 -16 -24 -16 -103 0 -108 -6 -137 -26 -145 -12
-4 -14 19 -14 134 l0 139 57 -2 c56 -2 58 -3 64 -32z m163 19 c20 -19 21 -54
2 -54 -8 0 -17 12 -20 26 -9 36 -40 28 -44 -12 -2 -24 6 -39 43 -77 49 -51 57
-85 29 -125 -18 -26 -74 -30 -98 -6 -21 20 -21 64 -1 64 8 0 15 -8 15 -17 0
-31 16 -46 39 -38 38 12 28 61 -24 116 -46 49 -55 81 -35 120 13 24 72 26 94
3z m294 -121 c-3 -115 -6 -138 -18 -138 -12 0 -15 23 -18 138 -2 132 -2 137
18 137 20 0 20 -5 18 -137z m182 127 c0 -5 -9 -10 -19 -10 -27 0 -31 -18 -31
-140 0 -66 -4 -111 -11 -115 -6 -4 -12 -5 -14 -4 -2 2 -5 60 -7 129 -3 121 -4
125 -25 128 -49 7 -20 22 42 22 37 0 65 -4 65 -10z m82 -112 l3 -123 25 0 25
0 3 123 c2 114 4 122 22 122 19 0 20 -7 20 -124 0 -118 -1 -126 -22 -140 -31
-22 -68 -20 -95 6 -21 20 -23 29 -23 133 0 113 3 125 26 125 10 0 14 -30 16
-122z m256 109 c6 -7 12 -26 14 -42 2 -21 -2 -30 -14 -33 -14 -3 -18 3 -18 26
0 31 -18 46 -39 33 -8 -5 -11 -39 -9 -112 3 -96 4 -104 23 -104 15 0 21 8 23
33 3 25 8 32 20 30 20 -4 21 -60 2 -83 -16 -20 -74 -19 -94 1 -20 20 -23 233
-4 252 16 16 83 15 96 -1z m112 -121 c0 -123 -7 -162 -27 -142 -7 6 -11 246
-5 264 2 6 10 12 18 12 11 0 14 -26 14 -134z m354 128 c14 -5 16 -27 16 -140
0 -108 -3 -134 -14 -134 -19 0 -28 56 -25 161 3 94 -2 110 -29 93 -14 -9 -17
-31 -20 -133 -2 -98 -5 -121 -17 -121 -8 0 -15 6 -16 13 0 11 0 226 1 255 0
13 75 17 104 6z m-3677 -796 c-1 -134 -2 -25 -2 242 0 267 1 376 2 243 2 -134
2 -352 0 -485z m493 517 c-7 -8 -10 -22 -6 -30 3 -9 2 -13 -4 -10 -14 8 -13
28 2 43 17 17 23 15 8 -3z m275 -105 c16 -7 11 -9 -20 -9 -29 -1 -36 2 -25 9
17 11 19 11 45 0z m-141 -60 c3 0 15 -9 26 -20 29 -29 9 -24 -30 8 -59 47 -87
75 -44 43 23 -17 45 -31 48 -31z m1406 -81 c0 -122 1 -129 20 -129 25 0 29 19
33 155 3 157 21 142 25 -22 3 -143 -4 -163 -53 -163 -48 0 -55 21 -55 159 0
70 3 131 6 134 18 18 24 -16 24 -134z m219 127 c17 -11 16 -289 -1 -284 -9 3
-14 42 -16 136 -2 123 -4 132 -22 132 -18 0 -20 -9 -22 -132 -3 -110 -6 -133
-18 -133 -12 0 -15 23 -18 134 -1 74 -1 140 2 147 5 12 75 12 95 0z m89 -141
c-2 -100 -6 -140 -15 -143 -10 -3 -13 30 -13 141 0 79 3 147 7 151 18 17 23
-22 21 -149z m82 93 c22 -113 26 -120 33 -52 8 73 24 121 37 108 6 -6 6 -33 0
-69 -5 -33 -14 -94 -20 -135 -18 -126 -40 -121 -60 14 -6 45 -16 103 -21 129
-5 27 -7 53 -3 58 12 21 22 6 34 -53z m208 44 c2 -7 -7 -12 -23 -12 -25 0 -26
-2 -23 -52 3 -46 6 -53 26 -56 30 -5 28 -22 -3 -22 -24 0 -25 -3 -25 -55 0
-52 1 -55 25 -55 16 0 25 -6 25 -15 0 -17 -32 -20 -61 -5 -15 9 -19 22 -19 63
0 29 -5 58 -12 65 -8 8 -8 15 0 24 6 8 12 38 14 68 3 48 6 55 28 61 31 8 43 6
48 -9z m141 2 c20 -14 22 -22 17 -63 -7 -55 -7 -58 0 -140 4 -39 2 -67 -5 -74
-17 -17 -24 -2 -30 65 -4 47 -10 63 -21 63 -12 0 -16 -16 -18 -68 -2 -48 -7
-67 -15 -64 -14 4 -24 119 -18 225 l3 72 32 0 c17 0 42 -7 55 -16z m135 0 c9
-8 16 -22 16 -30 0 -8 0 -17 0 -21 0 -13 -25 -9 -26 5 -1 6 -2 17 -3 22 -2 16
-31 12 -37 -5 -10 -25 4 -61 41 -105 39 -47 46 -90 19 -128 -20 -28 -69 -30
-84 -3 -15 29 -12 61 5 61 9 0 15 -9 15 -25 0 -14 7 -28 16 -32 41 -16 41 73
0 116 -47 50 -58 109 -26 141 24 24 43 25 64 4z m96 -135 c0 -116 -3 -150 -12
-147 -9 3 -14 42 -16 138 -3 137 0 160 18 160 6 0 10 -54 10 -151z m148 134
c2 -8 -5 -13 -17 -13 -20 0 -21 -5 -21 -136 0 -104 -3 -135 -12 -132 -9 3 -14
42 -16 135 -2 123 -4 131 -23 136 -12 3 -18 10 -14 17 9 15 97 9 103 -7z m132
7 c11 -7 16 -35 18 -116 4 -119 -3 -177 -21 -171 -7 2 -13 30 -15 70 -3 58 -5
67 -22 67 -17 0 -19 -9 -22 -67 -2 -42 -8 -68 -15 -71 -10 -3 -13 13 -13 58 0
34 -5 70 -10 80 -7 13 -7 21 0 25 5 3 10 30 10 59 0 28 5 57 12 64 14 14 57
16 78 2z m151 0 c14 -8 19 -21 19 -56 0 -25 -5 -54 -10 -64 -7 -13 -7 -21 0
-25 15 -10 13 -148 -2 -143 -8 3 -14 28 -16 64 -3 53 -12 73 -34 74 -5 0 -8
-24 -8 -54 0 -58 -7 -86 -21 -86 -5 0 -9 28 -9 63 0 35 -5 68 -11 74 -8 8 -8
17 0 31 6 11 11 46 11 76 0 56 0 56 31 56 17 0 39 -5 50 -10z m89 -141 c0
-116 -3 -150 -12 -147 -9 3 -14 42 -16 138 -3 137 0 160 18 160 6 0 10 -54 10
-151z m155 135 c22 -23 18 -279 -5 -279 -12 0 -16 15 -18 68 -3 58 -5 67 -22
67 -17 0 -19 -9 -22 -67 -4 -94 -25 -95 -32 -1 -2 40 -5 78 -5 83 -4 40 13
122 27 133 22 17 57 15 77 -4z m-2925 -35 c0 -16 -4 -28 -9 -25 -8 5 -3 56 5
56 2 0 4 -14 4 -31z m-36 -8 c3 -5 0 -11 -8 -14 -15 -6 -26 1 -26 15 0 11 27
10 34 -1z m90 0 c7 -11 -14 -20 -31 -13 -7 2 -10 8 -7 13 7 12 31 12 38 0z
m2544 -337 c21 -14 22 -22 22 -155 0 -108 -3 -140 -12 -137 -8 3 -14 29 -16
72 -2 57 -6 67 -20 64 -14 -3 -18 -17 -20 -71 -2 -48 -7 -67 -15 -64 -8 2 -13
44 -15 133 -3 120 -2 131 18 152 25 26 29 27 58 6z m293 6 c17 -10 19 -22 19
-143 0 -90 -4 -137 -12 -145 -15 -15 -64 -16 -73 -2 -3 6 -7 69 -7 141 -1 118
1 133 17 145 23 17 30 17 56 4z m-1553 -30 c16 -31 13 -243 -4 -260 -7 -7 -27
-13 -45 -13 l-34 -2 -3 153 -3 153 38 -3 c28 -2 41 -9 51 -28z m140 13 c2 -8
-6 -13 -22 -13 -25 0 -26 -3 -26 -55 0 -52 1 -55 26 -55 31 0 28 -23 -4 -28
-19 -3 -22 -10 -22 -57 0 -46 3 -54 20 -57 12 -2 21 -7 22 -13 3 -18 -28 -16
-50 2 -22 19 -27 66 -23 209 1 53 4 62 24 72 27 13 49 11 55 -5z m462 7 c0 -5
-8 -10 -19 -10 -28 0 -42 -24 -37 -63 6 -46 13 -57 37 -57 10 0 19 -4 19 -10
0 -5 -11 -10 -24 -10 -19 0 -25 -7 -30 -34 -9 -45 8 -86 34 -86 11 0 20 -4 20
-10 0 -15 -56 -12 -69 4 -8 10 -12 58 -12 137 -1 106 2 125 17 136 21 15 64
17 64 3z m141 -17 c15 -39 8 -265 -8 -271 -10 -3 -13 28 -13 132 0 129 -1 136
-20 136 -19 0 -20 -7 -20 -135 0 -113 -2 -135 -15 -135 -13 0 -15 23 -15 150
l0 150 40 0 c35 0 42 -4 51 -27z m82 13 c3 -8 9 -42 13 -76 4 -33 10 -63 15
-65 4 -3 11 26 15 64 3 38 10 75 15 82 18 29 21 -5 10 -93 -29 -225 -48 -252
-68 -97 -7 52 -15 118 -19 147 -4 33 -3 52 4 52 5 0 12 -6 15 -14z m157 -142
c0 -112 -3 -145 -12 -142 -9 3 -14 42 -16 138 -3 138 1 166 18 155 6 -4 10
-65 10 -151z m129 142 c15 -18 19 -65 6 -66 -5 -1 -12 9 -15 22 -3 13 -14 24
-23 26 -16 3 -17 -7 -15 -120 3 -101 6 -123 18 -123 11 0 16 14 18 58 2 46 0
57 -13 57 -8 0 -15 4 -15 9 0 16 19 23 41 16 19 -6 21 -13 17 -77 -3 -54 -8
-73 -23 -84 -23 -17 -27 -17 -51 0 -16 12 -19 29 -22 128 -4 130 6 168 42 168
13 0 29 -6 35 -14z m311 -5 c5 -11 10 -70 10 -131 0 -134 -6 -150 -60 -150
l-40 0 0 150 0 150 40 0 c29 0 42 -5 50 -19z m-1283 -43 c-3 -8 -6 -5 -6 6 -1
11 2 17 5 13 3 -3 4 -12 1 -19z m-1035 -1230 c-15 -15 -26 -4 -18 18 5 13 9
15 18 6 9 -9 9 -15 0 -24z"/>
<path d="M598 2844 c-36 -19 -35 -22 7 -21 37 1 72 -21 48 -30 -18 -7 -16 -33
2 -33 8 0 20 -9 27 -20 8 -12 23 -20 38 -19 l25 0 -23 10 c-27 10 -25 32 4 38
21 3 54 29 54 42 0 4 -13 10 -29 14 -16 3 -35 13 -42 21 -15 18 -76 17 -111
-2z"/>
<path d="M777 2708 c-14 -7 -15 -12 -4 -31 14 -26 28 -37 38 -31 5 2 6 -18 5
-44 -4 -57 8 -88 18 -48 3 14 11 26 16 26 6 0 10 5 10 10 0 6 14 24 30 40 34
33 39 54 12 46 -10 -4 -39 4 -64 18 -31 17 -50 21 -61 14z"/>
<path d="M3977 2373 c-4 -3 -7 -55 -7 -115 l0 -108 25 0 25 0 0 115 c0 105 -2
115 -18 115 -10 0 -22 -3 -25 -7z"/>
<path d="M3260 1936 c0 -49 2 -56 20 -56 39 0 37 100 -3 108 -14 3 -17 -5 -17
-52z"/>
<path d="M3783 1983 c-8 -3 -13 -24 -13 -54 0 -42 3 -49 20 -49 17 0 20 7 20
49 0 51 -6 62 -27 54z"/>
<path d="M3930 1934 c0 -47 3 -55 18 -52 33 6 25 108 -9 108 -5 0 -9 -25 -9
-56z"/>
<path d="M4166 1983 c-3 -4 -6 -28 -6 -55 0 -41 3 -48 20 -48 17 0 20 7 20 49
0 33 -5 51 -14 54 -8 3 -17 3 -20 0z"/>
<path d="M3857 1593 c-4 -3 -7 -28 -7 -55 0 -41 3 -48 20 -48 18 0 20 7 20 55
0 39 -4 55 -13 55 -8 0 -17 -3 -20 -7z"/>
<path d="M4146 1584 c-13 -33 -6 -210 8 -230 8 -10 17 -17 20 -14 4 5 8 131 7
223 -1 39 -23 52 -35 21z"/>
<path d="M2580 1465 c0 -100 3 -125 14 -125 21 0 26 23 26 125 0 102 -5 125
-26 125 -11 0 -14 -25 -14 -125z"/>
<path d="M4000 1470 c0 -120 2 -131 18 -128 15 3 17 17 17 128 0 111 -2 125
-17 128 -16 3 -18 -8 -18 -128z"/>
</g>
</svg>
